<svg width="64" height="64" xmlns="http://www.w3.org/2000/svg">

 <g>
  <title>background</title>
  <rect fill="none" id="canvas_background" height="402" width="582" y="-1" x="-1"/>
 </g>
 <g>
  <title>Layer 1</title>
  <path id="svg_1" d="m23,10l0,-6c0,-0.552 0.448,-1 1,-1l16,0c0.552,0 1,0.448 1,1l0,6c0,0.552 -0.448,1 -1,1l-16,0c-0.552,0 -1,-0.448 -1,-1zm4,3l10,0l0,2l-10,0l0,-2zm-15.02,17.951l2.268,-9.639c0.315,-1.339 1.483,-2.276 2.852,-2.307c-0.065,0.322 -0.1,0.655 -0.1,0.995l0,5l2,0l0,-5c0,-1.654 1.346,-3 3,-3l20,0c1.654,0 3,1.346 3,3l0,5l2,0l0,-5c0,-0.34 -0.035,-0.673 -0.101,-0.994c1.37,0.031 2.537,0.968 2.852,2.308l2.268,9.639c0.65,2.763 0.98,5.604 0.98,8.442c0,1.996 -0.548,3.932 -1.576,5.633c-1.611,0.133 -3.12,0.803 -4.299,1.948c-1.175,1.14 -1.893,2.614 -2.076,4.214c-1.019,-0.592 -2.098,-1.074 -3.22,-1.43c-0.54,-3.581 -0.828,-7.221 -0.828,-10.843l0,-19.917l-2,0l0,19.917c0,3.448 0.256,6.911 0.734,10.328c-0.901,-0.158 -1.816,-0.245 -2.734,-0.245l-10,0c-0.918,0 -1.833,0.087 -2.734,0.245c0.478,-3.417 0.734,-6.88 0.734,-10.328l0,-19.917l-2,0l0,19.917c0,3.622 -0.288,7.262 -0.83,10.843c-1.122,0.356 -2.201,0.838 -3.22,1.43c-0.183,-1.6 -0.901,-3.075 -2.076,-4.214c-1.18,-1.144 -2.671,-1.806 -4.296,-1.944c-1.03,-1.703 -1.578,-3.64 -1.578,-5.637c0,-2.839 0.33,-5.68 0.98,-8.444zm45.02,23.887c0,0.663 -0.106,1.319 -0.315,1.948c-0.841,2.521 -3.191,4.214 -5.847,4.214l-37.676,0c-2.656,0 -5.006,-1.693 -5.846,-4.213c-0.21,-0.63 -0.316,-1.286 -0.316,-1.949l0,-2.586c0,-2.814 2.174,-5.169 4.846,-5.249c1.362,-0.045 2.657,0.459 3.636,1.408c0.979,0.95 1.518,2.225 1.518,3.589l0,2c0,2.757 2.243,5 5,5l2,0l0,-2l-2,0c-1.654,0 -3,-1.346 -3,-3l0,-0.476c2.336,-1.625 5.153,-2.524 8,-2.524l10,0c2.847,0 5.664,0.899 8,2.524l0,0.476c0,1.654 -1.346,3 -3,3l-2,0l0,2l2,0c2.757,0 5,-2.243 5,-5l0,-2c0,-1.364 0.539,-2.639 1.519,-3.589c0.979,-0.949 2.279,-1.451 3.636,-1.408c2.671,0.08 4.845,2.435 4.845,5.249l0,2.586z"/>
 </g>
</svg>