<svg width="621" height="302" xmlns="http://www.w3.org/2000/svg">

 <g>
  <title>background</title>
  <rect fill="none" id="canvas_background" height="304" width="623" y="-1" x="-1"/>
 </g>
 <g>
  <title>Layer 1</title>
  <g id="layer1">
   <path fill="#0e8102" fill-rule="nonzero" id="path14144" d="m0.457489,230.12068l620.085,0l0,-158.24136l-620.085,0l0,158.24136z"/>
   <path fill="#ffea00" fill-rule="nonzero" id="path14148" d="m309.007409,179.53873c-128.8596,0 -220.43229,7.94661 -220.43229,7.94661l0,3.45506l228.0334,0l2.41854,-11.40167c-2.91607,-0.0111 -6.4264,0 -10.01965,0zm16.92975,0l-2.07303,11.40167l207.9941,0l0,-3.45506c0,0 -85.92022,-7.29707 -205.92107,-7.94661z"/>
   <path fill="#ffffff" fill-rule="nonzero" id="path14156" d="m144.892459,111.81972l-12.09268,57.00835l43.53365,0l1.72753,-10.71066l-29.71345,0l2.76404,-13.1292l26.94941,0l2.07303,-11.40167l-26.9494,0l2.41853,-10.71066l30.05895,0l1.72753,-11.05616l-42.49714,0zm145.45767,13.8202c-16.97121,0 -23.82604,9.0246 -26.6039,22.11233c-2.77786,13.07392 3.70382,22.45784 17.27526,22.45784c16.12818,0 23.82604,-9.03842 26.6039,-22.11233c2.79168,-13.08774 -1.61697,-22.45784 -17.27526,-22.45784zm97.08695,0c-16.97122,0 -23.48053,9.03842 -26.25839,22.11233c-2.77787,13.08774 3.35831,22.45784 16.92975,22.45784c13.76492,0 21.5457,-6.55078 25.22187,-16.58425l-12.78369,0c-1.74134,4.07696 -4.54684,6.9101 -10.36515,6.9101c-7.61494,0 -8.31977,-6.50931 -6.9101,-13.12919c1.40966,-6.61988 4.82325,-13.1292 12.43818,-13.1292c5.87359,0 7.49055,4.11842 7.25561,8.98313l12.43818,0c0.7463,-10.48953 -4.32572,-17.62076 -17.96626,-17.62076zm-44.57017,0.69101c-3.81437,0 -9.99201,0.91214 -13.12919,4.14606l0.69101,-3.10954l-12.43819,0c-0.4146,2.7364 -12.78369,63.57295 -12.78369,63.57295l12.09268,0l5.18258,-24.87638c2.39089,3.70382 9.13515,4.49157 12.09268,4.49157c12.1756,0 17.77278,-11.78863 20.0393,-22.45783c2.37707,-11.18055 0.11056,-21.76683 -11.74718,-21.76683zm91.90437,0c-21.72536,-0.59482 -20.73031,13.4747 -20.73031,13.4747l11.40167,0c0,0 -0.15257,-5.52808 7.94662,-5.52808c0,0 7.31089,-0.33168 6.21909,4.83707c0,0 -0.15257,4.46393 -5.18257,4.14606c0,0 -24.0748,-2.50145 -25.91289,15.20223c0,0 -0.99505,12.43819 13.1292,12.43819c0,0 9.27335,-0.27641 13.4747,-4.83708c0,0 1.17471,2.76405 5.18257,2.76405l6.91011,0l2.07303,-8.29213l-1.03596,-0.69101c0,0 -0.84248,0.11056 -0.34496,-2.07303l4.49157,-21.76682c1.94865,-9.49448 -17.62076,-9.67415 -17.62076,-9.67415l-0.00111,0zm-243.23562,1.03597l-5.87359,26.9494c-0.30404,1.40966 -0.80157,3.99404 -0.69101,6.56459c0.20786,6.03943 7.61493,8.98314 11.74717,8.98314c5.79067,0 9.48067,-1.4373 12.43819,-3.80056l0,2.76404l12.43819,0c0.2764,-2.48763 0.59371,-4.76797 1.03596,-7.25561l7.25561,-34.205l-12.43819,0l-5.18258,23.83985c-1.45112,6.05325 -5.8874,7.25561 -8.98313,7.25561c-5.3346,0 -5.68011,-2.3218 -4.83707,-6.21909l5.52808,-24.87637l-12.43819,0l0.00056,0zm46.64319,0c-0.48315,3.06808 -8.29212,41.46061 -8.29212,41.46061l13.12919,0l4.49157,-21.42132c0.55281,-2.70876 0.37259,-5.51426 2.07303,-7.94661c1.35438,-1.94865 4.80943,-2.5982 6.91011,-2.76405l5.87358,0l2.41854,-9.32863c-5.70775,0 -9.42538,-0.12494 -14.16571,3.10954l0,-3.10954l-12.43819,0zm225.61486,0c-0.48426,3.06808 -8.29212,41.46061 -8.29212,41.46061l13.1292,0l4.14606,-21.42132c0.55281,-2.70876 0.71865,-5.51426 2.41853,-7.94661c1.3682,-1.94865 4.80944,-2.5982 6.91011,-2.76405l5.52808,0l2.76404,-9.32863c-5.70774,0 -9.42538,-0.12494 -14.16571,3.10954l0,-3.10954l-12.43819,0zm-175.17111,6.9101c7.61494,0 7.97426,6.85482 6.5646,13.4747c-1.40966,6.61988 -3.68999,12.78369 -12.09268,12.78369c-7.61493,0 -8.31976,-6.50932 -6.9101,-13.1292c1.40966,-6.61987 4.82325,-13.12919 12.43818,-13.12919zm48.71623,1.72752c5.65246,0 7.22797,5.37606 5.87359,11.74718c-1.35438,6.38493 -4.68505,11.74717 -11.05617,11.74717c-6.7028,0 -7.43527,-6.03943 -6.21909,-11.74717c1.21618,-5.72157 4.69887,-11.74718 11.40167,-11.74718zm99.15998,14.51122c0,0 -1.81045,11.40167 -11.05617,11.40167c0,0 -5.18257,0.34495 -5.18257,-3.80056c0,0 0.12493,-5.30696 7.60111,-6.21909c0,0 5.80449,-0.40023 8.63763,-1.38202z"/>
  </g>
 </g>
</svg>