<?xml version="1.0" encoding="utf-8"?>
<!-- Generator: Adobe Illustrator 18.0.0, SVG Export Plug-In . SVG Version: 6.00 Build 0)  -->
<!DOCTYPE svg PUBLIC "-//W3C//DTD SVG 1.1//EN" "http://www.w3.org/Graphics/SVG/1.1/DTD/svg11.dtd">
<svg version="1.1" id="Layer_1" xmlns="http://www.w3.org/2000/svg" xmlns:xlink="http://www.w3.org/1999/xlink" x="0px" y="0px"
	 viewBox="0 0 479.3 132" enable-background="new 0 0 479.3 132" xml:space="preserve">
<path fill="#939598" d="M252.6,125.7v-1.5h0.9c0.3,0,0.9,0.3,0.9,0.9c0,0.6-0.3,0.6-0.9,0.6H252.6L252.6,125.7z M252.6,126.9h0.6
	l1.2,2.4h1.5l-1.5-2.7c0.9,0,1.5-0.3,1.5-1.5c0-1.2-0.9-1.8-2.4-1.8h-2.4v5.9h1.5L252.6,126.9L252.6,126.9z M258.8,126.3
	c0-3.5-2.7-5.3-5.3-5.3c-3,0-5.6,1.8-5.6,5.3s2.7,5.3,5.6,5.3C256.2,131.6,258.8,129.9,258.8,126.3L258.8,126.3z M257.4,126.3
	c0,2.7-1.8,4.1-3.8,4.1l0,0c-2.4,0-3.8-1.5-3.8-4.1c0-2.4,1.5-4.1,3.8-4.1C255.6,122.2,257.4,124,257.4,126.3L257.4,126.3z"/>
<polygon fill="#348FCB" points="214.9,23.6 222.8,0.3 192.7,0.3 192.7,0 184.8,23.6 "/>
<polygon fill="#348FCB" points="15.1,53.1 45.7,53.1 53.1,31.6 66.4,31.6 77,0.3 13.9,0.3 3.2,31.6 22.4,31.6 "/>
<polygon fill="#348FCB" points="13.9,56.4 13.9,56.4 0,97.7 30.7,97.7 44.9,56.4 "/>
<polygon fill="#348FCB" points="61.1,56.4 46.9,97.7 77.3,97.7 91.2,56.4 "/>
<path fill="#348FCB" d="M110.4,0v0.3V0z"/>
<path fill="#348FCB" d="M62.3,53.1h62.9l5.3-15.9c2.7-8.6-3-14.2-12.1-14.2c-6.5,0-13.3,1.8-20.7,14.5l12.7-37.2H80L62.3,53.1
	L62.3,53.1z"/>
<path fill="#348FCB" d="M109.8,97.7h0.3H109.8z"/>
<polygon fill="#348FCB" points="94.4,56.4 80.6,97.7 109.8,97.7 124,56.4 "/>
<path fill="#348FCB" d="M171.8,53.1l10-30.4c-13.6,0-17.1,5.6-22.7,13.3l3.2-9.4h-25.1l-9.1,26.6L171.8,53.1L171.8,53.1z"/>
<polygon fill="#348FCB" points="127.2,56.4 113,97.7 143.1,97.7 157,56.4 "/>
<polygon fill="#348FCB" points="204.8,53.1 214,26.6 183.9,26.6 174.7,53.1 "/>
<polygon fill="#348FCB" points="189.8,97.7 203.6,56.4 173.8,56.4 159.7,97.7 "/>
<path fill="#348FCB" d="M248.5,53.1l8.9-26.6h-14.5c-0.6,0-2.7,0.6-2.7-0.9c0-1.5,0.6-2.1,2.7-2.1l0,0h18.9l7.7-23.3h-30.1
	c-10.9,0-15.3,6.8-18.6,15.3l-12.7,37.5H248.5L248.5,53.1z"/>
<polygon fill="#348FCB" points="237.3,56.4 206.9,56.4 193,97.7 223.1,97.7 "/>
<polygon fill="#348FCB" points="274.8,97.7 288.6,56.4 257.4,56.4 243.5,97.7 "/>
<polygon fill="#348FCB" points="313.7,53.1 312,26.6 297.2,26.6 306.1,0.3 306.3,0.3 278,0.3 268.9,26.6 260.6,26.6 251.8,53.1 "/>
<polygon fill="#348FCB" points="288.6,56.4 290.7,88 262.1,131.3 292.8,131.3 343.5,56.4 "/>
<polygon fill="#348FCB" points="331.4,26.6 313.7,53.1 345.9,53.1 363.6,26.6 "/>
<path fill="#939598" d="M309,120.7c1.5-5.6,3-8.3,5-13c3.2-7.7,11.5-10.3,13.9-10.3c6.5,0,8.6,4.1,6.5,10.6h-4.1
	c0.9-3.8,0.6-7.1-3.5-7.1c-2.7,0-6.2,1.8-8.9,7.7c-0.9,1.8-2.1,5-2.7,7.1c-0.6,1.8-1.2,3.8-1.8,5.6c-1.5,5.6,1.2,7.1,4.1,7.1
	c4.7,0,7.4-4.7,9.1-9.4h3.8c-2.1,7.7-7.4,12.7-14.5,12.7C310.2,131.9,307.5,127.5,309,120.7L309,120.7z M360.4,108l0.9-2.1h-4.4
	l-8.6,25.4h4.4l5.6-16.2c0.3-1.2,0.9-2.4,1.8-3.2c1.8-1.8,4.1-2.4,6.5-2.1l1.5-3.8c-0.9-0.3-2.4,0-3.2,0.3c-1.8,0.3-3.2,1.5-4.4,2.4
	C360.4,108.6,360.4,108.3,360.4,108L360.4,108z M346.2,114.5c0.3-1.2,1.5-3.2,1.2-3.8c-0.9-2.1-3.2-2.1-5-1.8
	c-2.1,0.6-3.2,2.1-3.8,4.1h-3.8c0.6-3,2.7-5.3,5.3-6.5c3-1.2,6.5-1.2,9.4,0.3c0.6,0,0.9,0.3,1.5,0.9c0.3,0.3,0.6,1.5,0.6,1.8
	c0,0.9,0,2.1-0.3,3.2c-1.8,4.7-3.5,9.7-5.3,14.5c0,0.6-0.3,1.5,0.6,1.8c0.3,0.3,0.9,0,1.5,0l-0.9,2.7c-0.6,0.3-2.4,0.3-3.2,0
	c-0.9-0.3-1.5-0.6-1.8-1.5c0-0.3-0.3-1.5-0.6-1.2c-1.5,1.5-2.7,2.4-4.7,2.7c-1.5,0.3-3,0.3-4.4,0c-1.8-0.3-3.2-1.8-3.2-3.5
	c0-3.8,1.5-7.1,5.3-9.4c2.4-1.2,6.5-1.8,9.1-2.4C344.4,116,345.9,115.4,346.2,114.5L346.2,114.5z M345,118.6
	c-0.6,0.3-2.7,0.9-2.7,0.9c-2.7,0.6-5.6,0.9-7.4,3c-1.2,1.5-2.1,3.2-1.2,5c0.3,0.9,0.9,1.2,1.5,1.2c3,0.3,5.3-1.5,6.8-3
	c0.6-0.6,0.9-1.8,1.2-2.4C343.5,123.4,345,118.6,345,118.6L345,118.6z M441.5,131.9l1.2-3.5c-1.2,0-4.4,0.6-3.5-2.1l5.6-16.8h4.1
	l1.2-3.2h-4.1l2.1-6.5h-4.1l-2.4,6.5H438l-1.2,3.2h3.5L435,126c-0.3,0.9-0.9,2.1-0.9,3.2c0.3,1.2,0.9,1.8,1.5,2.4
	C437.4,132.2,439.5,131.9,441.5,131.9L441.5,131.9z M420.6,113.9l-5.6,17.4h-4.4l8.6-25.4h4.1l-0.6,2.1c0,0.3,0,0.3,0.3,0.3
	c1.5-1.5,3.2-2.4,5.3-2.7c2.4-0.6,5.6,0.3,6.5,2.4c0.3,0.9,0.6,2.4,0,3.8l-6.5,19.5h-4.4l6.8-19.5c0.3-1.5-0.6-2.7-2.1-3
	C422.9,108.3,421.2,112.7,420.6,113.9L420.6,113.9z M399.9,118.9c-0.3,1.5-0.9,2.7-1.2,4.1c-0.6,3.2,0,5.6,2.4,5.6
	c3,0,5.3-2.4,6.5-5.9h3.8c-1.2,5.3-6.5,9.1-11.2,9.1s-7.1-3.2-5.9-8.6c0-0.6,0.6-4.1,3-9.1c0.6-1.8,4.1-8.9,10.9-8.9
	c5.3,0,7.4,3.8,6.2,8.6c0,0.6-1.2,5-1.2,5L399.9,118.9L399.9,118.9z M401.1,115.7h8.6c0,0,0.3-0.3,0.6-1.2c0.9-3.2-0.3-5.9-2.7-5.6
	c-2.4,0-5.3,2.7-6.5,5.6C401.1,115.4,401.1,115.7,401.1,115.7L401.1,115.7z M379.2,116.3l-5,15.1h-4.4l11.5-33.6
	c10,0,12.4,0,13.3,0.3c1.5,0.3,2.7,1.2,3.5,2.1c1.5,3,0.6,6.2-0.6,8.9c-1.2,2.7-4.1,4.7-6.5,5.6c0.6,0.3,2.7,1.5,2.7,3.8
	c-0.3,3.5-1.8,6.5-2.7,10.6c-0.3,0.9,0.6,1.8,0.9,2.4c-1.8,0-5,0-5,0c-0.6,0-0.3-2.1-0.3-1.8c0.6-3.8,1.5-4.7,2.4-9.4
	c0.6-2.1-1.2-3-1.2-3.2C386,116,385.4,116.3,379.2,116.3L379.2,116.3z M384.3,101.2l-3.8,11.5c6.2,0,8,0.3,9.4-0.6
	c1.8-1.2,3.2-2.1,4.1-5.9c1.2-5-3-5-3.2-5C390.2,101.2,384.3,101.2,384.3,101.2L384.3,101.2z M461.3,114.5c0.3-1.2,1.2-3.2,0.9-3.8
	c-0.6-2.1-3-2.1-5-1.8c-1.8,0.6-3.2,2.1-3.5,4.1h-3.8c0.6-3,2.7-5.3,5.3-6.5c3-1.2,6.2-1.2,9.4,0.3c0.6,0,0.9,0.3,1.2,0.9
	c0.3,0.3,0.9,1.5,0.9,1.8c0,0.9-0.3,2.1-0.6,3.2c-1.8,4.7-3.2,9.7-5,14.5c-0.3,0.6-0.3,1.5,0.3,1.8c0.6,0.3,1.2,0,1.8,0
	c0,0-0.6,2.4-0.9,2.4c-0.9,0.9-2.4,0.6-3.5,0.3c-0.9-0.3-1.2-0.9-1.5-1.5c0.3,0.6-0.9-1.2-0.6-1.2c-2.1,1.2-3,2.4-4.7,2.7
	c-1.5,0.3-3,0.3-4.4,0c-1.8-0.3-3.2-1.8-3.2-3.5c-0.3-3.8,1.5-7.1,5.3-9.4c2.1-1.2,6.5-1.8,9.1-2.4C459.5,116,461,115.4,461.3,114.5
	L461.3,114.5z M459.8,118.6c-0.6,0.3-2.7,0.9-2.4,0.9c-2.7,0.6-5.6,0.9-7.4,3c-1.2,1.5-2.1,3.2-1.5,5c0.3,0.9,1.2,1.2,1.8,1.2
	c2.7,0.3,5.3-1.5,6.5-3c0.6-0.6,1.2-1.8,1.5-2.4L459.8,118.6L459.8,118.6z M463.7,131.3l11.2-33.6h4.4l-11.5,33.6L463.7,131.3
	L463.7,131.3z"/>
</svg>
