<?xml version="1.0" encoding="UTF-8" standalone="no"?>
<!DOCTYPE svg PUBLIC "-//W3C//DTD SVG 1.1//EN" "http://www.w3.org/Graphics/SVG/1.1/DTD/svg11.dtd">
<svg version="1.1" xmlns="http://www.w3.org/2000/svg" xmlns:xlink="http://www.w3.org/1999/xlink" preserveAspectRatio="xMidYMid meet" viewBox="1.6152976190476211 2.858473097078008 61.38470238095238 54.90343166482677" width="67.64" height="60"><defs><path d="M11.22 40.34C11.75 40.34 12.18 40.72 12.18 41.19C12.18 41.66 11.75 42.04 11.22 42.04C7.53 42.04 4.53 44.7 4.53 47.98C4.53 48.44 4.1 48.82 3.57 48.82C3.04 48.82 2.62 48.44 2.62 47.98C2.62 43.76 6.48 40.34 11.22 40.34Z" id="f221vyxIFw"></path><path d="M11.22 40.34C11.75 40.34 12.18 40.72 12.18 41.19C12.18 41.66 11.75 42.04 11.22 42.04C7.53 42.04 4.53 44.7 4.53 47.98C4.53 48.44 4.1 48.82 3.57 48.82C3.04 48.82 2.62 48.44 2.62 47.98C2.62 43.76 6.48 40.34 11.22 40.34Z" id="a2NmjCCVi3"></path><path d="M10.27 41.19C10.27 40.72 10.7 40.34 11.22 40.34C11.8 40.34 16.39 40.34 16.96 40.34C17.49 40.34 17.92 40.72 17.92 41.19C17.92 41.66 17.49 42.04 16.96 42.04C15.81 42.04 11.8 42.04 11.22 42.04C10.69 42.04 10.27 41.66 10.27 41.19Z" id="c58YrlHqk0"></path><path d="M10.27 41.19C10.27 40.72 10.7 40.34 11.22 40.34C11.8 40.34 16.39 40.34 16.96 40.34C17.49 40.34 17.92 40.72 17.92 41.19C17.92 41.66 17.49 42.04 16.96 42.04C15.81 42.04 11.8 42.04 11.22 42.04C10.69 42.04 10.27 41.66 10.27 41.19Z" id="b22lVLSWZR"></path><path d="M29.39 41.19C29.39 40.72 29.82 40.34 30.35 40.34C30.75 40.34 33.93 40.34 34.32 40.34C34.85 40.34 35.28 40.72 35.28 41.19C35.28 41.66 34.85 42.04 34.32 42.04C33.53 42.04 30.75 42.04 30.35 42.04C29.82 42.04 29.39 41.66 29.39 41.19Z" id="b2Wf4GsroT"></path><path d="M29.39 41.19C29.39 40.72 29.82 40.34 30.35 40.34C30.75 40.34 33.93 40.34 34.32 40.34C34.85 40.34 35.28 40.72 35.28 41.19C35.28 41.66 34.85 42.04 34.32 42.04C33.53 42.04 30.75 42.04 30.35 42.04C29.82 42.04 29.39 41.66 29.39 41.19Z" id="a2Ti4Dg4E"></path><path d="M2.62 47.98C2.62 47.51 3.04 47.13 3.57 47.13C4.1 47.13 4.53 47.51 4.53 47.98C4.53 48.57 4.53 53.32 4.53 53.91C4.53 54.38 4.1 54.76 3.57 54.76C3.05 54.76 2.62 54.38 2.62 53.91C2.62 53.32 2.62 48.57 2.62 47.98Z" id="g1TfH0CjgQ"></path><path d="M2.62 47.98C2.62 47.51 3.04 47.13 3.57 47.13C4.1 47.13 4.53 47.51 4.53 47.98C4.53 48.57 4.53 53.32 4.53 53.91C4.53 54.38 4.1 54.76 3.57 54.76C3.05 54.76 2.62 54.38 2.62 53.91C2.62 53.32 2.62 48.57 2.62 47.98Z" id="cjjHUv8up"></path><path d="M16 36.33C16 35.86 16.43 35.48 16.96 35.48C17.49 35.48 17.92 35.86 17.92 36.33C17.92 36.81 17.92 40.7 17.92 41.19C17.92 41.66 17.49 42.04 16.96 42.04C16.43 42.04 16 41.66 16 41.19C16 40.7 16 36.81 16 36.33Z" id="f1j0UQIX1"></path><path d="M16 36.33C16 35.86 16.43 35.48 16.96 35.48C17.49 35.48 17.92 35.86 17.92 36.33C17.92 36.81 17.92 40.7 17.92 41.19C17.92 41.66 17.49 42.04 16.96 42.04C16.43 42.04 16 41.66 16 41.19C16 40.7 16 36.81 16 36.33Z" id="b6jYuoCcF9"></path><path d="M29.39 36.33C29.39 35.86 29.82 35.48 30.35 35.48C30.88 35.48 31.31 35.86 31.31 36.33C31.31 36.81 31.31 40.7 31.31 41.19C31.31 41.66 30.88 42.04 30.35 42.04C29.82 42.04 29.39 41.66 29.39 41.19C29.39 40.7 29.39 36.81 29.39 36.33Z" id="c63T4UYVk"></path><path d="M29.39 36.33C29.39 35.86 29.82 35.48 30.35 35.48C30.88 35.48 31.31 35.86 31.31 36.33C31.31 36.81 31.31 40.7 31.31 41.19C31.31 41.66 30.88 42.04 30.35 42.04C29.82 42.04 29.39 41.66 29.39 41.19C29.39 40.7 29.39 36.81 29.39 36.33Z" id="a2IzARijU"></path><path d="M9.31 24.22C9.84 24.22 10.27 24.6 10.27 25.07C10.27 31.62 16.27 36.95 23.65 36.95C31.04 36.95 37.04 31.62 37.04 25.07C37.04 24.6 37.47 24.22 38 24.22C38.53 24.22 38.96 24.6 38.96 25.07C38.96 32.55 32.09 38.64 23.65 38.64C15.22 38.64 8.35 32.55 8.35 25.07C8.35 24.6 8.78 24.22 9.31 24.22Z" id="b2Ss2kI1rd"></path><path d="M9.31 24.22C9.84 24.22 10.27 24.6 10.27 25.07C10.27 31.62 16.27 36.95 23.65 36.95C31.04 36.95 37.04 31.62 37.04 25.07C37.04 24.6 37.47 24.22 38 24.22C38.53 24.22 38.96 24.6 38.96 25.07C38.96 32.55 32.09 38.64 23.65 38.64C15.22 38.64 8.35 32.55 8.35 25.07C8.35 24.6 8.78 24.22 9.31 24.22Z" id="k6MI0LbyTT"></path><path d="M8.35 15.74C8.35 15.27 8.78 14.89 9.31 14.89C9.84 14.89 10.27 15.27 10.27 15.74C10.27 16.67 10.27 24.14 10.27 25.07C10.27 25.54 9.84 25.92 9.31 25.92C8.78 25.92 8.35 25.54 8.35 25.07C8.35 24.14 8.35 16.67 8.35 15.74Z" id="ct6kCYMPt"></path><path d="M8.35 15.74C8.35 15.27 8.78 14.89 9.31 14.89C9.84 14.89 10.27 15.27 10.27 15.74C10.27 16.67 10.27 24.14 10.27 25.07C10.27 25.54 9.84 25.92 9.31 25.92C8.78 25.92 8.35 25.54 8.35 25.07C8.35 24.14 8.35 16.67 8.35 15.74Z" id="bEbwWqMO"></path><path d="M37.04 14.89C37.04 14.42 37.47 14.04 38 14.04C38.53 14.04 38.96 14.42 38.96 14.89C38.96 15.91 38.96 24.05 38.96 25.07C38.96 25.54 38.53 25.92 38 25.92C37.47 25.92 37.04 25.54 37.04 25.07C37.04 24.05 37.04 15.91 37.04 14.89Z" id="is0LEwaiK"></path><path d="M37.04 14.89C37.04 14.42 37.47 14.04 38 14.04C38.53 14.04 38.96 14.42 38.96 14.89C38.96 15.91 38.96 24.05 38.96 25.07C38.96 25.54 38.53 25.92 38 25.92C37.47 25.92 37.04 25.54 37.04 25.07C37.04 24.05 37.04 15.91 37.04 14.89Z" id="a2wxjM2HEJ"></path><path d="M31.31 9.8C30.78 9.8 30.35 9.42 30.35 8.95C30.35 8.48 30.78 8.1 31.31 8.1C35.52 8.1 38.96 11.15 38.96 14.89C38.96 15.36 38.53 15.74 38 15.74C37.47 15.74 37.04 15.36 37.04 14.89C37.04 12.08 34.47 9.8 31.31 9.8Z" id="a6JPquG2OY"></path><path d="M31.31 9.8C30.78 9.8 30.35 9.42 30.35 8.95C30.35 8.48 30.78 8.1 31.31 8.1C35.52 8.1 38.96 11.15 38.96 14.89C38.96 15.36 38.53 15.74 38 15.74C37.47 15.74 37.04 15.36 37.04 14.89C37.04 12.08 34.47 9.8 31.31 9.8Z" id="o1aoq2WPsL"></path><path d="M30.35 4.71C30.35 4.24 30.78 3.86 31.31 3.86C31.83 3.86 32.26 4.24 32.26 4.71C32.26 5.13 32.26 8.53 32.26 8.95C32.26 9.42 31.83 9.8 31.31 9.8C30.78 9.8 30.35 9.42 30.35 8.95C30.35 8.53 30.35 5.13 30.35 4.71Z" id="a1wL27sGSj"></path><path d="M30.35 4.71C30.35 4.24 30.78 3.86 31.31 3.86C31.83 3.86 32.26 4.24 32.26 4.71C32.26 5.13 32.26 8.53 32.26 8.95C32.26 9.42 31.83 9.8 31.31 9.8C30.78 9.8 30.35 9.42 30.35 8.95C30.35 8.53 30.35 5.13 30.35 4.71Z" id="a3HUCUgYhX"></path><path d="M20.79 4.71C20.79 4.24 21.21 3.86 21.74 3.86C22.7 3.86 30.35 3.86 31.31 3.86C31.83 3.86 32.26 4.24 32.26 4.71C32.26 5.18 31.83 5.56 31.31 5.56C29.39 5.56 22.7 5.56 21.74 5.56C21.21 5.56 20.79 5.18 20.79 4.71Z" id="c10fzl9nDY"></path><path d="M20.79 4.71C20.79 4.24 21.21 3.86 21.74 3.86C22.7 3.86 30.35 3.86 31.31 3.86C31.83 3.86 32.26 4.24 32.26 4.71C32.26 5.18 31.83 5.56 31.31 5.56C29.39 5.56 22.7 5.56 21.74 5.56C21.21 5.56 20.79 5.18 20.79 4.71Z" id="d1STJYMrdk"></path><path d="M21.74 3.86C22.27 3.86 22.7 4.24 22.7 4.71C22.7 5.18 22.27 5.56 21.74 5.56C15.41 5.56 10.27 10.12 10.27 15.74C10.27 16.2 9.84 16.58 9.31 16.58C8.78 16.58 8.35 16.2 8.35 15.74C8.35 9.19 14.36 3.86 21.74 3.86Z" id="ej48svkT"></path><path d="M21.74 3.86C22.27 3.86 22.7 4.24 22.7 4.71C22.7 5.18 22.27 5.56 21.74 5.56C15.41 5.56 10.27 10.12 10.27 15.74C10.27 16.2 9.84 16.58 9.31 16.58C8.78 16.58 8.35 16.2 8.35 15.74C8.35 9.19 14.36 3.86 21.74 3.86Z" id="dVgxi0JB"></path><path d="M33.5 17.18C33.12 16.85 33.12 16.32 33.5 15.98C33.87 15.65 34.48 15.65 34.85 15.98C35.23 16.32 38.29 19.04 38.68 19.38C39.05 19.71 39.05 20.25 38.68 20.58C38.49 20.74 38.24 20.83 38 20.83C37.76 20.83 37.51 20.74 37.32 20.58C36.94 20.24 33.88 17.52 33.5 17.18Z" id="jpM83GA5I"></path><path d="M33.5 17.18C33.12 16.85 33.12 16.32 33.5 15.98C33.87 15.65 34.48 15.65 34.85 15.98C35.23 16.32 38.29 19.04 38.68 19.38C39.05 19.71 39.05 20.25 38.68 20.58C38.49 20.74 38.24 20.83 38 20.83C37.76 20.83 37.51 20.74 37.32 20.58C36.94 20.24 33.88 17.52 33.5 17.18Z" id="a1iJb82Awq"></path><path d="M12.31 16.15C12.59 15.75 13.17 15.62 13.63 15.86C13.67 15.88 18.27 18.28 23.65 18.28C29.04 18.28 33.64 15.88 33.68 15.86C34.14 15.62 34.72 15.75 34.99 16.15C35.26 16.55 35.12 17.07 34.67 17.31C34.46 17.42 29.59 19.98 23.65 19.98C17.72 19.98 12.85 17.42 12.64 17.31C12.19 17.07 12.04 16.55 12.31 16.15Z" id="cd0AHkwum"></path><path d="M12.31 16.15C12.59 15.75 13.17 15.62 13.63 15.86C13.67 15.88 18.27 18.28 23.65 18.28C29.04 18.28 33.64 15.88 33.68 15.86C34.14 15.62 34.72 15.75 34.99 16.15C35.26 16.55 35.12 17.07 34.67 17.31C34.46 17.42 29.59 19.98 23.65 19.98C17.72 19.98 12.85 17.42 12.64 17.31C12.19 17.07 12.04 16.55 12.31 16.15Z" id="ahct4rgz8"></path><path d="M8.63 19.38C9.02 19.04 12.08 16.32 12.46 15.98C12.83 15.65 13.44 15.65 13.81 15.98C14.19 16.32 14.19 16.85 13.81 17.18C13.43 17.52 10.37 20.24 9.99 20.58C9.8 20.74 9.55 20.83 9.31 20.83C9.07 20.83 8.82 20.74 8.63 20.58C8.26 20.25 8.26 19.71 8.63 19.38Z" id="bE5hr551d"></path><path d="M8.63 19.38C9.02 19.04 12.08 16.32 12.46 15.98C12.83 15.65 13.44 15.65 13.81 15.98C14.19 16.32 14.19 16.85 13.81 17.18C13.43 17.52 10.37 20.24 9.99 20.58C9.8 20.74 9.55 20.83 9.31 20.83C9.07 20.83 8.82 20.74 8.63 20.58C8.26 20.25 8.26 19.71 8.63 19.38Z" id="j7Zm0L4BH2"></path><path d="M16.43 41.9C15.99 41.64 15.87 41.11 16.17 40.72C16.46 40.33 17.05 40.22 17.49 40.48C17.78 40.65 20.07 42.01 20.36 42.18C20.8 42.44 20.92 42.97 20.63 43.36C20.44 43.6 20.14 43.73 19.83 43.73C19.65 43.73 19.46 43.69 19.3 43.59C19.01 43.42 16.72 42.06 16.43 41.9Z" id="g1aEBqn6D"></path><path d="M16.43 41.9C15.99 41.64 15.87 41.11 16.17 40.72C16.46 40.33 17.05 40.22 17.49 40.48C17.78 40.65 20.07 42.01 20.36 42.18C20.8 42.44 20.92 42.97 20.63 43.36C20.44 43.6 20.14 43.73 19.83 43.73C19.65 43.73 19.46 43.69 19.3 43.59C19.01 43.42 16.72 42.06 16.43 41.9Z" id="a1UnLhxJ6x"></path><path d="M19.6 42.06C19.98 41.98 23.04 41.3 23.42 41.21C23.93 41.1 24.45 41.38 24.58 41.83C24.71 42.29 24.4 42.75 23.89 42.86C23.5 42.94 20.44 43.62 20.06 43.71C19.98 43.72 19.91 43.73 19.83 43.73C19.4 43.73 19.01 43.48 18.9 43.09C18.77 42.64 19.08 42.17 19.6 42.06Z" id="bfRePWHm5"></path><path d="M19.6 42.06C19.98 41.98 23.04 41.3 23.42 41.21C23.93 41.1 24.45 41.38 24.58 41.83C24.71 42.29 24.4 42.75 23.89 42.86C23.5 42.94 20.44 43.62 20.06 43.71C19.98 43.72 19.91 43.73 19.83 43.73C19.4 43.73 19.01 43.48 18.9 43.09C18.77 42.64 19.08 42.17 19.6 42.06Z" id="fBkYxMI5"></path><path d="M26.95 42.18C27.24 42.01 29.53 40.65 29.82 40.48C30.26 40.22 30.85 40.33 31.15 40.72C31.44 41.11 31.32 41.64 30.88 41.9C30.59 42.06 28.3 43.42 28.01 43.59C27.85 43.69 27.66 43.73 27.48 43.73C27.17 43.73 26.87 43.6 26.68 43.36C26.39 42.97 26.51 42.44 26.95 42.18Z" id="d5rTnm0I"></path><path d="M26.95 42.18C27.24 42.01 29.53 40.65 29.82 40.48C30.26 40.22 30.85 40.33 31.15 40.72C31.44 41.11 31.32 41.64 30.88 41.9C30.59 42.06 28.3 43.42 28.01 43.59C27.85 43.69 27.66 43.73 27.48 43.73C27.17 43.73 26.87 43.6 26.68 43.36C26.39 42.97 26.51 42.44 26.95 42.18Z" id="a5e0sRGP2l"></path><path d="M23.42 42.86C22.91 42.75 22.6 42.29 22.73 41.83C22.85 41.38 23.37 41.1 23.89 41.21C24.27 41.3 27.33 41.98 27.71 42.06C28.22 42.17 28.54 42.64 28.41 43.09C28.3 43.48 27.91 43.73 27.48 43.73C27.4 43.73 27.33 43.72 27.25 43.71C26.87 43.62 23.81 42.94 23.42 42.86Z" id="aeAe8EttV"></path><path d="M23.42 42.86C22.91 42.75 22.6 42.29 22.73 41.83C22.85 41.38 23.37 41.1 23.89 41.21C24.27 41.3 27.33 41.98 27.71 42.06C28.22 42.17 28.54 42.64 28.41 43.09C28.3 43.48 27.91 43.73 27.48 43.73C27.4 43.73 27.33 43.72 27.25 43.71C26.87 43.62 23.81 42.94 23.42 42.86Z" id="c35iIGZmIz"></path><path d="M23.67 45.43C23.67 45.43 23.68 45.43 23.68 45.43C24.21 45.43 24.64 45.81 24.64 46.28C24.64 46.75 24.21 47.13 23.68 47.13C23.15 47.13 22.72 46.75 22.72 46.28C22.72 45.81 23.15 45.43 23.67 45.43Z" id="cBn2Qupa7"></path><path d="M23.67 45.43C23.67 45.43 23.68 45.43 23.68 45.43C24.21 45.43 24.64 45.81 24.64 46.28C24.64 46.75 24.21 47.13 23.68 47.13C23.15 47.13 22.72 46.75 22.72 46.28C22.72 45.81 23.15 45.43 23.67 45.43Z" id="d1d7rdJUL"></path><path d="M23.67 50.52C23.67 50.52 23.68 50.52 23.68 50.52C24.21 50.52 24.64 50.9 24.64 51.37C24.64 51.84 24.21 52.22 23.68 52.22C23.15 52.22 22.72 51.84 22.72 51.37C22.72 50.9 23.15 50.52 23.67 50.52Z" id="c2k8xaBsdS"></path><path d="M23.67 50.52C23.67 50.52 23.68 50.52 23.68 50.52C24.21 50.52 24.64 50.9 24.64 51.37C24.64 51.84 24.21 52.22 23.68 52.22C23.15 52.22 22.72 51.84 22.72 51.37C22.72 50.9 23.15 50.52 23.67 50.52Z" id="a9VmNDZnP"></path><path d="M47.71 31.04L48.25 31.09L48.78 31.16L49.31 31.25L49.82 31.35L50.34 31.47L50.84 31.61L51.33 31.77L51.82 31.94L52.29 32.13L52.76 32.33L53.21 32.55L53.66 32.79L54.09 33.03L54.51 33.3L54.92 33.58L55.32 33.87L55.7 34.17L56.07 34.49L56.43 34.82L56.77 35.16L57.1 35.51L57.41 35.87L57.71 36.25L57.99 36.63L58.26 37.02L58.5 37.43L58.73 37.84L58.95 38.26L59.14 38.69L59.32 39.13L59.47 39.58L59.61 40.03L59.73 40.49L59.82 40.96L59.9 41.43L59.95 41.91L59.99 42.39L60 42.88L59.99 43.37L59.95 43.85L59.9 44.33L59.82 44.81L59.73 45.27L59.61 45.73L59.47 46.19L59.32 46.63L59.14 47.07L58.95 47.5L58.73 47.92L58.5 48.34L58.26 48.74L57.99 49.13L57.71 49.52L57.41 49.89L57.1 50.26L56.77 50.61L56.43 50.95L56.07 51.28L55.7 51.6L55.32 51.9L54.92 52.19L54.51 52.47L54.09 52.73L53.66 52.98L53.21 53.21L52.76 53.43L52.29 53.64L51.82 53.83L51.33 54L50.84 54.16L50.34 54.29L49.82 54.42L49.31 54.52L48.78 54.61L48.25 54.67L47.71 54.72L47.16 54.75L46.61 54.76L46.06 54.75L45.51 54.72L44.97 54.67L44.44 54.61L43.92 54.52L43.4 54.42L42.89 54.29L42.38 54.16L41.89 54L41.4 53.83L40.93 53.64L40.46 53.43L40.01 53.21L39.56 52.98L39.13 52.73L38.71 52.47L38.3 52.19L37.9 51.9L37.52 51.6L37.15 51.28L36.79 50.95L36.45 50.61L36.12 50.26L35.81 49.89L35.51 49.52L35.23 49.13L34.97 48.74L34.72 48.34L34.49 47.92L34.28 47.5L34.08 47.07L33.91 46.63L33.75 46.19L33.61 45.73L33.5 45.27L33.4 44.81L33.32 44.33L33.27 43.85L33.23 43.37L33.22 42.88L33.23 42.39L33.27 41.91L33.32 41.43L33.4 40.96L33.5 40.49L33.61 40.03L33.75 39.58L33.91 39.13L34.08 38.69L34.28 38.26L34.49 37.84L34.72 37.43L34.97 37.02L35.23 36.63L35.51 36.25L35.81 35.87L36.12 35.51L36.45 35.16L36.79 34.82L37.15 34.49L37.52 34.17L37.9 33.87L38.3 33.58L38.71 33.3L39.13 33.03L39.56 32.79L40.01 32.55L40.46 32.33L40.93 32.13L41.4 31.94L41.89 31.77L42.38 31.61L42.89 31.47L43.4 31.35L43.92 31.25L44.44 31.16L44.97 31.09L45.51 31.04L46.06 31.01L46.61 31L47.16 31.01L47.71 31.04ZM45.67 32.73L45.21 32.78L44.75 32.83L44.3 32.91L43.86 33L43.42 33.1L42.99 33.22L42.56 33.35L42.15 33.5L41.74 33.66L41.34 33.84L40.95 34.03L40.57 34.23L40.2 34.44L39.84 34.67L39.49 34.91L39.15 35.15L38.82 35.41L38.5 35.69L38.19 35.97L37.9 36.26L37.62 36.56L37.35 36.87L37.1 37.19L36.86 37.52L36.63 37.86L36.42 38.21L36.22 38.56L36.04 38.92L35.87 39.29L35.72 39.67L35.59 40.05L35.47 40.44L35.37 40.83L35.28 41.23L35.22 41.64L35.17 42.05L35.14 42.46L35.14 42.88L35.14 43.3L35.17 43.72L35.22 44.13L35.28 44.53L35.37 44.93L35.47 45.33L35.59 45.71L35.72 46.1L35.87 46.47L36.04 46.84L36.22 47.2L36.42 47.56L36.63 47.9L36.86 48.24L37.1 48.57L37.35 48.89L37.62 49.2L37.9 49.51L38.19 49.8L38.5 50.08L38.82 50.35L39.15 50.61L39.49 50.86L39.84 51.1L40.2 51.32L40.57 51.54L40.95 51.74L41.34 51.93L41.74 52.1L42.15 52.26L42.56 52.41L42.99 52.55L43.42 52.66L43.86 52.77L44.3 52.86L44.75 52.93L45.21 52.99L45.67 53.03L46.14 53.06L46.61 53.07L47.08 53.06L47.55 53.03L48.01 52.99L48.47 52.93L48.92 52.86L49.37 52.77L49.8 52.66L50.23 52.55L50.66 52.41L51.07 52.26L51.48 52.1L51.88 51.93L52.27 51.74L52.65 51.54L53.02 51.32L53.38 51.1L53.73 50.86L54.08 50.61L54.4 50.35L54.72 50.08L55.03 49.8L55.32 49.51L55.6 49.2L55.87 48.89L56.12 48.57L56.36 48.24L56.59 47.9L56.8 47.56L57 47.2L57.18 46.84L57.35 46.47L57.5 46.1L57.64 45.71L57.75 45.33L57.85 44.93L57.94 44.53L58 44.13L58.05 43.72L58.08 43.3L58.09 42.88L58.08 42.46L58.05 42.05L58 41.64L57.94 41.23L57.85 40.83L57.75 40.44L57.64 40.05L57.5 39.67L57.35 39.29L57.18 38.92L57 38.56L56.8 38.21L56.59 37.86L56.36 37.52L56.12 37.19L55.87 36.87L55.6 36.56L55.32 36.26L55.03 35.97L54.72 35.69L54.4 35.41L54.08 35.15L53.73 34.91L53.38 34.67L53.02 34.44L52.65 34.23L52.27 34.03L51.88 33.84L51.48 33.66L51.07 33.5L50.66 33.35L50.23 33.22L49.8 33.1L49.37 33L48.92 32.91L48.47 32.83L48.01 32.78L47.55 32.73L47.08 32.71L46.61 32.7L46.14 32.71L45.67 32.73Z" id="b2BDlk6nC"></path><path d="M47.71 31.04L48.25 31.09L48.78 31.16L49.31 31.25L49.82 31.35L50.34 31.47L50.84 31.61L51.33 31.77L51.82 31.94L52.29 32.13L52.76 32.33L53.21 32.55L53.66 32.79L54.09 33.03L54.51 33.3L54.92 33.58L55.32 33.87L55.7 34.17L56.07 34.49L56.43 34.82L56.77 35.16L57.1 35.51L57.41 35.87L57.71 36.25L57.99 36.63L58.26 37.02L58.5 37.43L58.73 37.84L58.95 38.26L59.14 38.69L59.32 39.13L59.47 39.58L59.61 40.03L59.73 40.49L59.82 40.96L59.9 41.43L59.95 41.91L59.99 42.39L60 42.88L59.99 43.37L59.95 43.85L59.9 44.33L59.82 44.81L59.73 45.27L59.61 45.73L59.47 46.19L59.32 46.63L59.14 47.07L58.95 47.5L58.73 47.92L58.5 48.34L58.26 48.74L57.99 49.13L57.71 49.52L57.41 49.89L57.1 50.26L56.77 50.61L56.43 50.95L56.07 51.28L55.7 51.6L55.32 51.9L54.92 52.19L54.51 52.47L54.09 52.73L53.66 52.98L53.21 53.21L52.76 53.43L52.29 53.64L51.82 53.83L51.33 54L50.84 54.16L50.34 54.29L49.82 54.42L49.31 54.52L48.78 54.61L48.25 54.67L47.71 54.72L47.16 54.75L46.61 54.76L46.06 54.75L45.51 54.72L44.97 54.67L44.44 54.61L43.92 54.52L43.4 54.42L42.89 54.29L42.38 54.16L41.89 54L41.4 53.83L40.93 53.64L40.46 53.43L40.01 53.21L39.56 52.98L39.13 52.73L38.71 52.47L38.3 52.19L37.9 51.9L37.52 51.6L37.15 51.28L36.79 50.95L36.45 50.61L36.12 50.26L35.81 49.89L35.51 49.52L35.23 49.13L34.97 48.74L34.72 48.34L34.49 47.92L34.28 47.5L34.08 47.07L33.91 46.63L33.75 46.19L33.61 45.73L33.5 45.27L33.4 44.81L33.32 44.33L33.27 43.85L33.23 43.37L33.22 42.88L33.23 42.39L33.27 41.91L33.32 41.43L33.4 40.96L33.5 40.49L33.61 40.03L33.75 39.58L33.91 39.13L34.08 38.69L34.28 38.26L34.49 37.84L34.72 37.43L34.97 37.02L35.23 36.63L35.51 36.25L35.81 35.87L36.12 35.51L36.45 35.16L36.79 34.82L37.15 34.49L37.52 34.17L37.9 33.87L38.3 33.58L38.71 33.3L39.13 33.03L39.56 32.79L40.01 32.55L40.46 32.33L40.93 32.13L41.4 31.94L41.89 31.77L42.38 31.61L42.89 31.47L43.4 31.35L43.92 31.25L44.44 31.16L44.97 31.09L45.51 31.04L46.06 31.01L46.61 31L47.16 31.01L47.71 31.04ZM45.67 32.73L45.21 32.78L44.75 32.83L44.3 32.91L43.86 33L43.42 33.1L42.99 33.22L42.56 33.35L42.15 33.5L41.74 33.66L41.34 33.84L40.95 34.03L40.57 34.23L40.2 34.44L39.84 34.67L39.49 34.91L39.15 35.15L38.82 35.41L38.5 35.69L38.19 35.97L37.9 36.26L37.62 36.56L37.35 36.87L37.1 37.19L36.86 37.52L36.63 37.86L36.42 38.21L36.22 38.56L36.04 38.92L35.87 39.29L35.72 39.67L35.59 40.05L35.47 40.44L35.37 40.83L35.28 41.23L35.22 41.64L35.17 42.05L35.14 42.46L35.14 42.88L35.14 43.3L35.17 43.72L35.22 44.13L35.28 44.53L35.37 44.93L35.47 45.33L35.59 45.71L35.72 46.1L35.87 46.47L36.04 46.84L36.22 47.2L36.42 47.56L36.63 47.9L36.86 48.24L37.1 48.57L37.35 48.89L37.62 49.2L37.9 49.51L38.19 49.8L38.5 50.08L38.82 50.35L39.15 50.61L39.49 50.86L39.84 51.1L40.2 51.32L40.57 51.54L40.95 51.74L41.34 51.93L41.74 52.1L42.15 52.26L42.56 52.41L42.99 52.55L43.42 52.66L43.86 52.77L44.3 52.86L44.75 52.93L45.21 52.99L45.67 53.03L46.14 53.06L46.61 53.07L47.08 53.06L47.55 53.03L48.01 52.99L48.47 52.93L48.92 52.86L49.37 52.77L49.8 52.66L50.23 52.55L50.66 52.41L51.07 52.26L51.48 52.1L51.88 51.93L52.27 51.74L52.65 51.54L53.02 51.32L53.38 51.1L53.73 50.86L54.08 50.61L54.4 50.35L54.72 50.08L55.03 49.8L55.32 49.51L55.6 49.2L55.87 48.89L56.12 48.57L56.36 48.24L56.59 47.9L56.8 47.56L57 47.2L57.18 46.84L57.35 46.47L57.5 46.1L57.64 45.71L57.75 45.33L57.85 44.93L57.94 44.53L58 44.13L58.05 43.72L58.08 43.3L58.09 42.88L58.08 42.46L58.05 42.05L58 41.64L57.94 41.23L57.85 40.83L57.75 40.44L57.64 40.05L57.5 39.67L57.35 39.29L57.18 38.92L57 38.56L56.8 38.21L56.59 37.86L56.36 37.52L56.12 37.19L55.87 36.87L55.6 36.56L55.32 36.26L55.03 35.97L54.72 35.69L54.4 35.41L54.08 35.15L53.73 34.91L53.38 34.67L53.02 34.44L52.65 34.23L52.27 34.03L51.88 33.84L51.48 33.66L51.07 33.5L50.66 33.35L50.23 33.22L49.8 33.1L49.37 33L48.92 32.91L48.47 32.83L48.01 32.78L47.55 32.73L47.08 32.71L46.61 32.7L46.14 32.71L45.67 32.73Z" id="c5JQvT1b3x"></path><path d="M47.47 33.58L47.9 33.62L48.31 33.67L48.73 33.74L49.14 33.82L49.54 33.92L49.93 34.03L50.32 34.15L50.7 34.28L51.08 34.43L51.44 34.59L51.8 34.76L52.15 34.95L52.49 35.14L52.82 35.35L53.14 35.57L53.45 35.8L53.76 36.04L54.05 36.29L54.33 36.54L54.6 36.81L54.85 37.09L55.1 37.37L55.33 37.67L55.55 37.97L55.76 38.28L55.95 38.6L56.14 38.92L56.3 39.25L56.46 39.59L56.59 39.94L56.72 40.29L56.82 40.64L56.92 41L56.99 41.37L57.05 41.74L57.1 42.12L57.12 42.5L57.13 42.88L57.12 43.27L57.1 43.65L57.05 44.02L56.99 44.39L56.92 44.76L56.82 45.12L56.72 45.48L56.59 45.83L56.46 46.17L56.3 46.51L56.14 46.84L55.95 47.17L55.76 47.49L55.55 47.8L55.33 48.1L55.1 48.39L54.85 48.68L54.6 48.95L54.33 49.22L54.05 49.48L53.76 49.73L53.45 49.97L53.14 50.2L52.82 50.41L52.49 50.62L52.15 50.82L51.8 51L51.44 51.17L51.08 51.33L50.7 51.48L50.32 51.62L49.93 51.74L49.54 51.85L49.14 51.95L48.73 52.03L48.31 52.09L47.9 52.15L47.47 52.19L47.04 52.21L46.61 52.22L46.18 52.21L45.75 52.19L45.33 52.15L44.91 52.09L44.49 52.03L44.09 51.95L43.68 51.85L43.29 51.74L42.9 51.62L42.52 51.48L42.15 51.33L41.78 51.17L41.42 51L41.07 50.82L40.73 50.62L40.4 50.41L40.08 50.2L39.77 49.97L39.47 49.73L39.18 49.48L38.9 49.22L38.63 48.95L38.37 48.68L38.12 48.39L37.89 48.1L37.67 47.8L37.46 47.49L37.27 47.17L37.09 46.84L36.92 46.51L36.77 46.17L36.63 45.83L36.51 45.48L36.4 45.12L36.31 44.76L36.23 44.39L36.17 44.02L36.13 43.65L36.1 43.27L36.09 42.88L36.1 42.5L36.13 42.12L36.17 41.74L36.23 41.37L36.31 41L36.4 40.64L36.51 40.29L36.63 39.94L36.77 39.59L36.92 39.25L37.09 38.92L37.27 38.6L37.46 38.28L37.67 37.97L37.89 37.67L38.12 37.37L38.37 37.09L38.63 36.81L38.9 36.54L39.18 36.29L39.47 36.04L39.77 35.8L40.08 35.57L40.4 35.35L40.73 35.14L41.07 34.95L41.42 34.76L41.78 34.59L42.15 34.43L42.52 34.28L42.9 34.15L43.29 34.03L43.68 33.92L44.09 33.82L44.49 33.74L44.91 33.67L45.33 33.62L45.75 33.58L46.18 33.56L46.61 33.55L47.04 33.56L47.47 33.58ZM45.91 35.27L45.56 35.3L45.22 35.35L44.88 35.4L44.54 35.47L44.22 35.55L43.89 35.64L43.57 35.74L43.26 35.85L42.96 35.97L42.66 36.1L42.37 36.24L42.08 36.39L41.8 36.55L41.53 36.72L41.27 36.9L41.01 37.09L40.77 37.28L40.53 37.48L40.3 37.7L40.08 37.91L39.87 38.14L39.67 38.38L39.48 38.61L39.3 38.86L39.13 39.12L38.97 39.38L38.82 39.64L38.68 39.91L38.56 40.19L38.44 40.47L38.34 40.76L38.25 41.05L38.18 41.34L38.12 41.64L38.07 41.95L38.03 42.26L38.01 42.57L38 42.88L38.01 43.2L38.03 43.51L38.07 43.82L38.12 44.12L38.18 44.42L38.25 44.71L38.34 45.01L38.44 45.29L38.56 45.57L38.68 45.85L38.82 46.12L38.97 46.39L39.13 46.65L39.3 46.9L39.48 47.15L39.67 47.39L39.87 47.62L40.08 47.85L40.3 48.07L40.53 48.28L40.77 48.48L41.01 48.68L41.27 48.87L41.53 49.04L41.8 49.21L42.08 49.37L42.37 49.53L42.66 49.67L42.96 49.8L43.26 49.92L43.57 50.03L43.89 50.13L44.22 50.22L44.54 50.3L44.88 50.36L45.22 50.42L45.56 50.46L45.91 50.49L46.26 50.51L46.61 50.52L46.97 50.51L47.32 50.49L47.66 50.46L48.01 50.42L48.34 50.36L48.68 50.3L49.01 50.22L49.33 50.13L49.65 50.03L49.96 49.92L50.26 49.8L50.56 49.67L50.86 49.53L51.14 49.37L51.42 49.21L51.69 49.04L51.95 48.87L52.21 48.68L52.46 48.48L52.69 48.28L52.92 48.07L53.14 47.85L53.35 47.62L53.56 47.39L53.75 47.15L53.93 46.9L54.1 46.65L54.26 46.39L54.4 46.12L54.54 45.85L54.66 45.57L54.78 45.29L54.88 45.01L54.97 44.71L55.04 44.42L55.1 44.12L55.15 43.82L55.19 43.51L55.21 43.2L55.22 42.88L55.21 42.57L55.19 42.26L55.15 41.95L55.1 41.64L55.04 41.34L54.97 41.05L54.88 40.76L54.78 40.47L54.66 40.19L54.54 39.91L54.4 39.64L54.26 39.38L54.1 39.12L53.93 38.86L53.75 38.61L53.56 38.38L53.35 38.14L53.14 37.91L52.92 37.7L52.69 37.48L52.46 37.28L52.21 37.09L51.95 36.9L51.69 36.72L51.42 36.55L51.14 36.39L50.86 36.24L50.56 36.1L50.26 35.97L49.96 35.85L49.65 35.74L49.33 35.64L49.01 35.55L48.68 35.47L48.34 35.4L48.01 35.35L47.66 35.3L47.32 35.27L46.97 35.25L46.61 35.25L46.26 35.25L45.91 35.27Z" id="a3UvRMoqlT"></path><path d="M47.47 33.58L47.9 33.62L48.31 33.67L48.73 33.74L49.14 33.82L49.54 33.92L49.93 34.03L50.32 34.15L50.7 34.28L51.08 34.43L51.44 34.59L51.8 34.76L52.15 34.95L52.49 35.14L52.82 35.35L53.14 35.57L53.45 35.8L53.76 36.04L54.05 36.29L54.33 36.54L54.6 36.81L54.85 37.09L55.1 37.37L55.33 37.67L55.55 37.97L55.76 38.28L55.95 38.6L56.14 38.92L56.3 39.25L56.46 39.59L56.59 39.94L56.72 40.29L56.82 40.64L56.92 41L56.99 41.37L57.05 41.74L57.1 42.12L57.12 42.5L57.13 42.88L57.12 43.27L57.1 43.65L57.05 44.02L56.99 44.39L56.92 44.76L56.82 45.12L56.72 45.48L56.59 45.83L56.46 46.17L56.3 46.51L56.14 46.84L55.95 47.17L55.76 47.49L55.55 47.8L55.33 48.1L55.1 48.39L54.85 48.68L54.6 48.95L54.33 49.22L54.05 49.48L53.76 49.73L53.45 49.97L53.14 50.2L52.82 50.41L52.49 50.62L52.15 50.82L51.8 51L51.44 51.17L51.08 51.33L50.7 51.48L50.32 51.62L49.93 51.74L49.54 51.85L49.14 51.95L48.73 52.03L48.31 52.09L47.9 52.15L47.47 52.19L47.04 52.21L46.61 52.22L46.18 52.21L45.75 52.19L45.33 52.15L44.91 52.09L44.49 52.03L44.09 51.95L43.68 51.85L43.29 51.74L42.9 51.62L42.52 51.48L42.15 51.33L41.78 51.17L41.42 51L41.07 50.82L40.73 50.62L40.4 50.41L40.08 50.2L39.77 49.97L39.47 49.73L39.18 49.48L38.9 49.22L38.63 48.95L38.37 48.68L38.12 48.39L37.89 48.1L37.67 47.8L37.46 47.49L37.27 47.17L37.09 46.84L36.92 46.51L36.77 46.17L36.63 45.83L36.51 45.48L36.4 45.12L36.31 44.76L36.23 44.39L36.17 44.02L36.13 43.65L36.1 43.27L36.09 42.88L36.1 42.5L36.13 42.12L36.17 41.74L36.23 41.37L36.31 41L36.4 40.64L36.51 40.29L36.63 39.94L36.77 39.59L36.92 39.25L37.09 38.92L37.27 38.6L37.46 38.28L37.67 37.97L37.89 37.67L38.12 37.37L38.37 37.09L38.63 36.81L38.9 36.54L39.18 36.29L39.47 36.04L39.77 35.8L40.08 35.57L40.4 35.35L40.73 35.14L41.07 34.95L41.42 34.76L41.78 34.59L42.15 34.43L42.52 34.28L42.9 34.15L43.29 34.03L43.68 33.92L44.09 33.82L44.49 33.74L44.91 33.67L45.33 33.62L45.75 33.58L46.18 33.56L46.61 33.55L47.04 33.56L47.47 33.58ZM45.91 35.27L45.56 35.3L45.22 35.35L44.88 35.4L44.54 35.47L44.22 35.55L43.89 35.64L43.57 35.74L43.26 35.85L42.96 35.97L42.66 36.1L42.37 36.24L42.08 36.39L41.8 36.55L41.53 36.72L41.27 36.9L41.01 37.09L40.77 37.28L40.53 37.48L40.3 37.7L40.08 37.91L39.87 38.14L39.67 38.38L39.48 38.61L39.3 38.86L39.13 39.12L38.97 39.38L38.82 39.64L38.68 39.91L38.56 40.19L38.44 40.47L38.34 40.76L38.25 41.05L38.18 41.34L38.12 41.64L38.07 41.95L38.03 42.26L38.01 42.57L38 42.88L38.01 43.2L38.03 43.51L38.07 43.82L38.12 44.12L38.18 44.42L38.25 44.71L38.34 45.01L38.44 45.29L38.56 45.57L38.68 45.85L38.82 46.12L38.97 46.39L39.13 46.65L39.3 46.9L39.48 47.15L39.67 47.39L39.87 47.62L40.08 47.85L40.3 48.07L40.53 48.28L40.77 48.48L41.01 48.68L41.27 48.87L41.53 49.04L41.8 49.21L42.08 49.37L42.37 49.53L42.66 49.67L42.96 49.8L43.26 49.92L43.57 50.03L43.89 50.13L44.22 50.22L44.54 50.3L44.88 50.36L45.22 50.42L45.56 50.46L45.91 50.49L46.26 50.51L46.61 50.52L46.97 50.51L47.32 50.49L47.66 50.46L48.01 50.42L48.34 50.36L48.68 50.3L49.01 50.22L49.33 50.13L49.65 50.03L49.96 49.92L50.26 49.8L50.56 49.67L50.86 49.53L51.14 49.37L51.42 49.21L51.69 49.04L51.95 48.87L52.21 48.68L52.46 48.48L52.69 48.28L52.92 48.07L53.14 47.85L53.35 47.62L53.56 47.39L53.75 47.15L53.93 46.9L54.1 46.65L54.26 46.39L54.4 46.12L54.54 45.85L54.66 45.57L54.78 45.29L54.88 45.01L54.97 44.71L55.04 44.42L55.1 44.12L55.15 43.82L55.19 43.51L55.21 43.2L55.22 42.88L55.21 42.57L55.19 42.26L55.15 41.95L55.1 41.64L55.04 41.34L54.97 41.05L54.88 40.76L54.78 40.47L54.66 40.19L54.54 39.91L54.4 39.64L54.26 39.38L54.1 39.12L53.93 38.86L53.75 38.61L53.56 38.38L53.35 38.14L53.14 37.91L52.92 37.7L52.69 37.48L52.46 37.28L52.21 37.09L51.95 36.9L51.69 36.72L51.42 36.55L51.14 36.39L50.86 36.24L50.56 36.1L50.26 35.97L49.96 35.85L49.65 35.74L49.33 35.64L49.01 35.55L48.68 35.47L48.34 35.4L48.01 35.35L47.66 35.3L47.32 35.27L46.97 35.25L46.61 35.25L46.26 35.25L45.91 35.27Z" id="b1yJJPmSui"></path><path d="M46.92 40.35L47.08 40.37L47.23 40.39L47.37 40.43L47.52 40.47L47.66 40.51L47.79 40.56L47.93 40.62L48.06 40.68L48.18 40.75L48.3 40.83L48.42 40.91L48.53 40.99L48.64 41.08L48.74 41.18L48.84 41.28L48.93 41.38L49.01 41.49L49.09 41.6L49.16 41.71L49.22 41.83L49.28 41.95L49.33 42.08L49.38 42.21L49.41 42.34L49.44 42.47L49.46 42.6L49.48 42.74L49.48 42.88L49.48 43.02L49.46 43.16L49.44 43.29L49.41 43.43L49.38 43.56L49.33 43.69L49.28 43.81L49.22 43.93L49.16 44.05L49.09 44.16L49.01 44.28L48.93 44.38L48.84 44.49L48.74 44.59L48.64 44.68L48.53 44.77L48.42 44.85L48.3 44.93L48.18 45.01L48.06 45.08L47.93 45.14L47.79 45.2L47.66 45.25L47.52 45.3L47.37 45.34L47.23 45.37L47.08 45.39L46.92 45.41L46.77 45.42L46.61 45.43L46.45 45.42L46.3 45.41L46.15 45.39L46 45.37L45.85 45.34L45.71 45.3L45.56 45.25L45.43 45.2L45.29 45.14L45.16 45.08L45.04 45.01L44.92 44.93L44.8 44.85L44.69 44.77L44.58 44.68L44.48 44.59L44.39 44.49L44.3 44.38L44.21 44.28L44.13 44.16L44.06 44.05L44 43.93L43.94 43.81L43.89 43.69L43.84 43.56L43.81 43.43L43.78 43.29L43.76 43.16L43.75 43.02L43.74 42.88L43.75 42.74L43.76 42.6L43.78 42.47L43.81 42.34L43.84 42.21L43.89 42.08L43.94 41.95L44 41.83L44.06 41.71L44.13 41.6L44.21 41.49L44.3 41.38L44.39 41.28L44.48 41.18L44.58 41.08L44.69 40.99L44.8 40.91L44.92 40.83L45.04 40.75L45.16 40.68L45.29 40.62L45.43 40.56L45.56 40.51L45.71 40.47L45.85 40.43L46 40.39L46.15 40.37L46.3 40.35L46.45 40.34L46.61 40.34L46.77 40.34L46.92 40.35ZM46.31 42.08L46.17 42.13L46.05 42.2L45.93 42.28L45.84 42.38L45.76 42.49L45.7 42.61L45.67 42.74L45.66 42.88L45.67 43.02L45.7 43.15L45.76 43.27L45.84 43.38L45.93 43.48L46.05 43.57L46.17 43.63L46.31 43.69L46.46 43.72L46.61 43.73L46.77 43.72L46.91 43.69L47.05 43.63L47.18 43.57L47.29 43.48L47.38 43.38L47.46 43.27L47.52 43.15L47.55 43.02L47.57 42.88L47.55 42.74L47.52 42.61L47.46 42.49L47.38 42.38L47.29 42.28L47.18 42.2L47.05 42.13L46.91 42.08L46.77 42.04L46.61 42.03L46.46 42.04L46.31 42.08Z" id="bxVJODUR"></path><path d="M46.92 40.35L47.08 40.37L47.23 40.39L47.37 40.43L47.52 40.47L47.66 40.51L47.79 40.56L47.93 40.62L48.06 40.68L48.18 40.75L48.3 40.83L48.42 40.91L48.53 40.99L48.64 41.08L48.74 41.18L48.84 41.28L48.93 41.38L49.01 41.49L49.09 41.6L49.16 41.71L49.22 41.83L49.28 41.95L49.33 42.08L49.38 42.21L49.41 42.34L49.44 42.47L49.46 42.6L49.48 42.74L49.48 42.88L49.48 43.02L49.46 43.16L49.44 43.29L49.41 43.43L49.38 43.56L49.33 43.69L49.28 43.81L49.22 43.93L49.16 44.05L49.09 44.16L49.01 44.28L48.93 44.38L48.84 44.49L48.74 44.59L48.64 44.68L48.53 44.77L48.42 44.85L48.3 44.93L48.18 45.01L48.06 45.08L47.93 45.14L47.79 45.2L47.66 45.25L47.52 45.3L47.37 45.34L47.23 45.37L47.08 45.39L46.92 45.41L46.77 45.42L46.61 45.43L46.45 45.42L46.3 45.41L46.15 45.39L46 45.37L45.85 45.34L45.71 45.3L45.56 45.25L45.43 45.2L45.29 45.14L45.16 45.08L45.04 45.01L44.92 44.93L44.8 44.85L44.69 44.77L44.58 44.68L44.48 44.59L44.39 44.49L44.3 44.38L44.21 44.28L44.13 44.16L44.06 44.05L44 43.93L43.94 43.81L43.89 43.69L43.84 43.56L43.81 43.43L43.78 43.29L43.76 43.16L43.75 43.02L43.74 42.88L43.75 42.74L43.76 42.6L43.78 42.47L43.81 42.34L43.84 42.21L43.89 42.08L43.94 41.95L44 41.83L44.06 41.71L44.13 41.6L44.21 41.49L44.3 41.38L44.39 41.28L44.48 41.18L44.58 41.08L44.69 40.99L44.8 40.91L44.92 40.83L45.04 40.75L45.16 40.68L45.29 40.62L45.43 40.56L45.56 40.51L45.71 40.47L45.85 40.43L46 40.39L46.15 40.37L46.3 40.35L46.45 40.34L46.61 40.34L46.77 40.34L46.92 40.35ZM46.31 42.08L46.17 42.13L46.05 42.2L45.93 42.28L45.84 42.38L45.76 42.49L45.7 42.61L45.67 42.74L45.66 42.88L45.67 43.02L45.7 43.15L45.76 43.27L45.84 43.38L45.93 43.48L46.05 43.57L46.17 43.63L46.31 43.69L46.46 43.72L46.61 43.73L46.77 43.72L46.91 43.69L47.05 43.63L47.18 43.57L47.29 43.48L47.38 43.38L47.46 43.27L47.52 43.15L47.55 43.02L47.57 42.88L47.55 42.74L47.52 42.61L47.46 42.49L47.38 42.38L47.29 42.28L47.18 42.2L47.05 42.13L46.91 42.08L46.77 42.04L46.61 42.03L46.46 42.04L46.31 42.08Z" id="a1uyEcWlS2"></path><path d="M37.37 38.64C37.37 38.17 37.8 37.79 38.33 37.79C39.98 37.79 53.24 37.79 54.89 37.79C55.42 37.79 55.85 38.17 55.85 38.64C55.85 39.11 55.42 39.49 54.89 39.49C51.58 39.49 39.98 39.49 38.33 39.49C37.8 39.49 37.37 39.11 37.37 38.64Z" id="aSxA76KtY"></path><path d="M37.37 38.64C37.37 38.17 37.8 37.79 38.33 37.79C39.98 37.79 53.24 37.79 54.89 37.79C55.42 37.79 55.85 38.17 55.85 38.64C55.85 39.11 55.42 39.49 54.89 39.49C51.58 39.49 39.98 39.49 38.33 39.49C37.8 39.49 37.37 39.11 37.37 38.64Z" id="a4GIsCwfoN"></path><path d="M47.57 51.17C47.67 46.66 51.01 42.81 55.9 41.58C56.41 41.45 56.93 41.71 57.08 42.16C57.22 42.61 56.93 43.08 56.42 43.21C52.35 44.23 49.56 47.45 49.48 51.21C49.47 51.67 49.05 52.04 48.53 52.04C48.52 52.04 48.51 52.04 48.51 52.04C47.98 52.03 47.56 51.64 47.57 51.17Z" id="d33jQWQlz"></path><path d="M47.57 51.17C47.67 46.66 51.01 42.81 55.9 41.58C56.41 41.45 56.93 41.71 57.08 42.16C57.22 42.61 56.93 43.08 56.42 43.21C52.35 44.23 49.56 47.45 49.48 51.21C49.47 51.67 49.05 52.04 48.53 52.04C48.52 52.04 48.51 52.04 48.51 52.04C47.98 52.03 47.56 51.64 47.57 51.17Z" id="aAnmTTa6w"></path><path d="M36.81 43.21C36.3 43.08 36 42.61 36.15 42.16C36.29 41.71 36.82 41.44 37.33 41.58C42.22 42.81 45.57 46.67 45.66 51.18C45.67 51.65 45.24 52.04 44.72 52.05C44.71 52.05 44.71 52.05 44.7 52.05C44.18 52.05 43.75 51.68 43.74 51.21C43.67 47.45 40.88 44.23 36.81 43.21Z" id="aRNlCNHzx"></path><path d="M36.81 43.21C36.3 43.08 36 42.61 36.15 42.16C36.29 41.71 36.82 41.44 37.33 41.58C42.22 42.81 45.57 46.67 45.66 51.18C45.67 51.65 45.24 52.04 44.72 52.05C44.71 52.05 44.71 52.05 44.7 52.05C44.18 52.05 43.75 51.68 43.74 51.21C43.67 47.45 40.88 44.23 36.81 43.21Z" id="c2Kg5G0NYe"></path><path d="M52.61 6.4L52.62 6.41L52.64 6.41L52.65 6.41L52.66 6.41L52.67 6.41L52.68 6.42L52.7 6.42L52.71 6.42L52.72 6.43L52.73 6.43L52.74 6.43L52.75 6.44L52.76 6.44L52.77 6.45L52.78 6.46L52.79 6.46L52.8 6.47L52.8 6.47L52.81 6.48L52.82 6.49L52.83 6.49L52.84 6.5L52.84 6.51L52.85 6.52L52.86 6.53L52.86 6.53L52.87 6.54L52.87 6.55L52.88 6.56L52.88 6.57L52.88 6.58L52.89 6.59L52.89 6.6L52.89 6.61L52.89 6.61L52.89 6.62L52.89 6.63L52.9 6.64L52.9 11.45L59.06 11.45L59.07 11.45L59.08 11.45L59.09 11.45L59.11 11.45L59.12 11.46L59.13 11.46L59.14 11.46L59.15 11.46L59.16 11.47L59.17 11.47L59.19 11.47L59.2 11.48L59.21 11.48L59.22 11.49L59.23 11.49L59.24 11.5L59.25 11.5L59.26 11.51L59.26 11.52L59.27 11.52L59.28 11.53L59.29 11.54L59.3 11.54L59.3 11.55L59.31 11.56L59.32 11.57L59.32 11.57L59.33 11.58L59.33 11.59L59.34 11.6L59.34 11.61L59.35 11.62L59.35 11.63L59.35 11.63L59.36 11.64L59.36 11.65L59.36 11.66L59.36 11.67L59.36 11.68L59.36 11.69L59.36 15.54L59.36 15.55L59.36 15.56L59.36 15.57L59.36 15.58L59.36 15.59L59.35 15.6L59.35 15.6L59.35 15.61L59.34 15.62L59.34 15.63L59.33 15.64L59.33 15.65L59.32 15.66L59.32 15.66L59.31 15.67L59.3 15.68L59.3 15.69L59.29 15.69L59.28 15.7L59.27 15.71L59.26 15.71L59.26 15.72L59.25 15.73L59.24 15.73L59.23 15.74L59.22 15.74L59.21 15.75L59.2 15.75L59.19 15.76L59.17 15.76L59.16 15.76L59.15 15.77L59.14 15.77L59.13 15.77L59.12 15.77L59.11 15.78L59.09 15.78L59.08 15.78L59.07 15.78L59.06 15.78L52.9 15.78L52.9 20.59L52.89 20.6L52.89 20.61L52.89 20.62L52.89 20.62L52.89 20.63L52.89 20.64L52.88 20.65L52.88 20.66L52.88 20.67L52.87 20.68L52.87 20.69L52.86 20.7L52.86 20.7L52.85 20.71L52.84 20.72L52.84 20.73L52.83 20.74L52.82 20.74L52.81 20.75L52.8 20.76L52.8 20.76L52.79 20.77L52.78 20.77L52.77 20.78L52.76 20.79L52.75 20.79L52.74 20.79L52.73 20.8L52.72 20.8L52.71 20.81L52.7 20.81L52.68 20.81L52.67 20.82L52.66 20.82L52.65 20.82L52.64 20.82L52.62 20.82L52.61 20.83L52.6 20.83L52.59 20.83L47.66 20.83L47.65 20.83L47.63 20.83L47.62 20.82L47.61 20.82L47.6 20.82L47.59 20.82L47.57 20.82L47.56 20.81L47.55 20.81L47.54 20.81L47.53 20.8L47.52 20.8L47.51 20.79L47.5 20.79L47.49 20.79L47.48 20.78L47.47 20.77L47.46 20.77L47.45 20.76L47.44 20.76L47.43 20.75L47.43 20.74L47.42 20.74L47.41 20.73L47.4 20.72L47.4 20.71L47.39 20.7L47.39 20.7L47.38 20.69L47.38 20.68L47.37 20.67L47.37 20.66L47.36 20.65L47.36 20.64L47.36 20.63L47.36 20.62L47.35 20.62L47.35 20.61L47.35 20.6L47.35 20.59L47.35 15.78L41.19 15.78L41.18 15.78L41.17 15.78L41.15 15.78L41.14 15.78L41.13 15.77L41.12 15.77L41.11 15.77L41.09 15.77L41.08 15.76L41.07 15.76L41.06 15.76L41.05 15.75L41.04 15.75L41.03 15.74L41.02 15.74L41.01 15.73L41 15.73L40.99 15.72L40.98 15.71L40.97 15.71L40.97 15.7L40.96 15.69L40.95 15.69L40.94 15.68L40.94 15.67L40.93 15.66L40.92 15.66L40.92 15.65L40.91 15.64L40.91 15.63L40.9 15.62L40.9 15.61L40.9 15.6L40.89 15.6L40.89 15.59L40.89 15.58L40.89 15.57L40.88 15.56L40.88 15.55L40.88 15.54L40.88 11.69L40.88 11.68L40.88 11.67L40.89 11.66L40.89 11.65L40.89 11.64L40.89 11.63L40.9 11.63L40.9 11.62L40.9 11.61L40.91 11.6L40.91 11.59L40.92 11.58L40.92 11.57L40.93 11.57L40.94 11.56L40.94 11.55L40.95 11.54L40.96 11.54L40.97 11.53L40.97 11.52L40.98 11.52L40.99 11.51L41 11.5L41.01 11.5L41.02 11.49L41.03 11.49L41.04 11.48L41.05 11.48L41.06 11.47L41.07 11.47L41.08 11.47L41.09 11.46L41.11 11.46L41.12 11.46L41.13 11.46L41.14 11.45L41.15 11.45L41.17 11.45L41.18 11.45L41.19 11.45L47.35 11.45L47.35 6.64L47.35 6.63L47.35 6.62L47.35 6.61L47.36 6.61L47.36 6.6L47.36 6.59L47.36 6.58L47.37 6.57L47.37 6.56L47.38 6.55L47.38 6.54L47.39 6.53L47.39 6.53L47.4 6.52L47.4 6.51L47.41 6.5L47.42 6.49L47.43 6.49L47.43 6.48L47.44 6.47L47.45 6.47L47.46 6.46L47.47 6.46L47.48 6.45L47.49 6.44L47.5 6.44L47.51 6.43L47.52 6.43L47.53 6.43L47.54 6.42L47.55 6.42L47.56 6.42L47.57 6.41L47.59 6.41L47.6 6.41L47.61 6.41L47.62 6.41L47.63 6.4L47.65 6.4L47.66 6.4L52.59 6.4L52.6 6.4L52.61 6.4Z" id="b39Rzh3o"></path></defs><g><g><use xlink:href="#f221vyxIFw" opacity="1" fill="#1f398d" fill-opacity="1"></use><g><use xlink:href="#f221vyxIFw" opacity="1" fill-opacity="0" stroke="#000000" stroke-width="1" stroke-opacity="0"></use></g></g><g><use xlink:href="#a2NmjCCVi3" opacity="1" fill="#1f398d" fill-opacity="1"></use><g><use xlink:href="#a2NmjCCVi3" opacity="1" fill-opacity="0" stroke="#000000" stroke-width="1" stroke-opacity="0"></use></g></g><g><use xlink:href="#c58YrlHqk0" opacity="1" fill="#1f398d" fill-opacity="1"></use><g><use xlink:href="#c58YrlHqk0" opacity="1" fill-opacity="0" stroke="#000000" stroke-width="1" stroke-opacity="0"></use></g></g><g><use xlink:href="#b22lVLSWZR" opacity="1" fill="#1f398d" fill-opacity="1"></use><g><use xlink:href="#b22lVLSWZR" opacity="1" fill-opacity="0" stroke="#000000" stroke-width="1" stroke-opacity="0"></use></g></g><g><use xlink:href="#b2Wf4GsroT" opacity="1" fill="#1f398d" fill-opacity="1"></use><g><use xlink:href="#b2Wf4GsroT" opacity="1" fill-opacity="0" stroke="#000000" stroke-width="1" stroke-opacity="0"></use></g></g><g><use xlink:href="#a2Ti4Dg4E" opacity="1" fill="#1f398d" fill-opacity="1"></use><g><use xlink:href="#a2Ti4Dg4E" opacity="1" fill-opacity="0" stroke="#000000" stroke-width="1" stroke-opacity="0"></use></g></g><g><use xlink:href="#g1TfH0CjgQ" opacity="1" fill="#1f398d" fill-opacity="1"></use><g><use xlink:href="#g1TfH0CjgQ" opacity="1" fill-opacity="0" stroke="#000000" stroke-width="1" stroke-opacity="0"></use></g></g><g><use xlink:href="#cjjHUv8up" opacity="1" fill="#1f398d" fill-opacity="1"></use><g><use xlink:href="#cjjHUv8up" opacity="1" fill-opacity="0" stroke="#000000" stroke-width="1" stroke-opacity="0"></use></g></g><g><use xlink:href="#f1j0UQIX1" opacity="1" fill="#1f398d" fill-opacity="1"></use><g><use xlink:href="#f1j0UQIX1" opacity="1" fill-opacity="0" stroke="#000000" stroke-width="1" stroke-opacity="0"></use></g></g><g><use xlink:href="#b6jYuoCcF9" opacity="1" fill="#1f398d" fill-opacity="1"></use><g><use xlink:href="#b6jYuoCcF9" opacity="1" fill-opacity="0" stroke="#000000" stroke-width="1" stroke-opacity="0"></use></g></g><g><use xlink:href="#c63T4UYVk" opacity="1" fill="#1f398d" fill-opacity="1"></use><g><use xlink:href="#c63T4UYVk" opacity="1" fill-opacity="0" stroke="#000000" stroke-width="1" stroke-opacity="0"></use></g></g><g><use xlink:href="#a2IzARijU" opacity="1" fill="#1f398d" fill-opacity="1"></use><g><use xlink:href="#a2IzARijU" opacity="1" fill-opacity="0" stroke="#000000" stroke-width="1" stroke-opacity="0"></use></g></g><g><use xlink:href="#b2Ss2kI1rd" opacity="1" fill="#1f398d" fill-opacity="1"></use><g><use xlink:href="#b2Ss2kI1rd" opacity="1" fill-opacity="0" stroke="#000000" stroke-width="1" stroke-opacity="0"></use></g></g><g><use xlink:href="#k6MI0LbyTT" opacity="1" fill="#1f398d" fill-opacity="1"></use><g><use xlink:href="#k6MI0LbyTT" opacity="1" fill-opacity="0" stroke="#000000" stroke-width="1" stroke-opacity="0"></use></g></g><g><use xlink:href="#ct6kCYMPt" opacity="1" fill="#1f398d" fill-opacity="1"></use><g><use xlink:href="#ct6kCYMPt" opacity="1" fill-opacity="0" stroke="#000000" stroke-width="1" stroke-opacity="0"></use></g></g><g><use xlink:href="#bEbwWqMO" opacity="1" fill="#1f398d" fill-opacity="1"></use><g><use xlink:href="#bEbwWqMO" opacity="1" fill-opacity="0" stroke="#000000" stroke-width="1" stroke-opacity="0"></use></g></g><g><use xlink:href="#is0LEwaiK" opacity="1" fill="#1f398d" fill-opacity="1"></use><g><use xlink:href="#is0LEwaiK" opacity="1" fill-opacity="0" stroke="#000000" stroke-width="1" stroke-opacity="0"></use></g></g><g><use xlink:href="#a2wxjM2HEJ" opacity="1" fill="#1f398d" fill-opacity="1"></use><g><use xlink:href="#a2wxjM2HEJ" opacity="1" fill-opacity="0" stroke="#000000" stroke-width="1" stroke-opacity="0"></use></g></g><g><use xlink:href="#a6JPquG2OY" opacity="1" fill="#1f398d" fill-opacity="1"></use><g><use xlink:href="#a6JPquG2OY" opacity="1" fill-opacity="0" stroke="#000000" stroke-width="1" stroke-opacity="0"></use></g></g><g><use xlink:href="#o1aoq2WPsL" opacity="1" fill="#1f398d" fill-opacity="1"></use><g><use xlink:href="#o1aoq2WPsL" opacity="1" fill-opacity="0" stroke="#000000" stroke-width="1" stroke-opacity="0"></use></g></g><g><use xlink:href="#a1wL27sGSj" opacity="1" fill="#1f398d" fill-opacity="1"></use><g><use xlink:href="#a1wL27sGSj" opacity="1" fill-opacity="0" stroke="#000000" stroke-width="1" stroke-opacity="0"></use></g></g><g><use xlink:href="#a3HUCUgYhX" opacity="1" fill="#1f398d" fill-opacity="1"></use><g><use xlink:href="#a3HUCUgYhX" opacity="1" fill-opacity="0" stroke="#000000" stroke-width="1" stroke-opacity="0"></use></g></g><g><use xlink:href="#c10fzl9nDY" opacity="1" fill="#1f398d" fill-opacity="1"></use><g><use xlink:href="#c10fzl9nDY" opacity="1" fill-opacity="0" stroke="#000000" stroke-width="1" stroke-opacity="0"></use></g></g><g><use xlink:href="#d1STJYMrdk" opacity="1" fill="#1f398d" fill-opacity="1"></use><g><use xlink:href="#d1STJYMrdk" opacity="1" fill-opacity="0" stroke="#000000" stroke-width="1" stroke-opacity="0"></use></g></g><g><use xlink:href="#ej48svkT" opacity="1" fill="#1f398d" fill-opacity="1"></use><g><use xlink:href="#ej48svkT" opacity="1" fill-opacity="0" stroke="#000000" stroke-width="1" stroke-opacity="0"></use></g></g><g><use xlink:href="#dVgxi0JB" opacity="1" fill="#1f398d" fill-opacity="1"></use><g><use xlink:href="#dVgxi0JB" opacity="1" fill-opacity="0" stroke="#000000" stroke-width="1" stroke-opacity="0"></use></g></g><g><use xlink:href="#jpM83GA5I" opacity="1" fill="#1f398d" fill-opacity="1"></use><g><use xlink:href="#jpM83GA5I" opacity="1" fill-opacity="0" stroke="#000000" stroke-width="1" stroke-opacity="0"></use></g></g><g><use xlink:href="#a1iJb82Awq" opacity="1" fill="#1f398d" fill-opacity="1"></use><g><use xlink:href="#a1iJb82Awq" opacity="1" fill-opacity="0" stroke="#000000" stroke-width="1" stroke-opacity="0"></use></g></g><g><use xlink:href="#cd0AHkwum" opacity="1" fill="#1f398d" fill-opacity="1"></use><g><use xlink:href="#cd0AHkwum" opacity="1" fill-opacity="0" stroke="#000000" stroke-width="1" stroke-opacity="0"></use></g></g><g><use xlink:href="#ahct4rgz8" opacity="1" fill="#1f398d" fill-opacity="1"></use><g><use xlink:href="#ahct4rgz8" opacity="1" fill-opacity="0" stroke="#000000" stroke-width="1" stroke-opacity="0"></use></g></g><g><use xlink:href="#bE5hr551d" opacity="1" fill="#1f398d" fill-opacity="1"></use><g><use xlink:href="#bE5hr551d" opacity="1" fill-opacity="0" stroke="#000000" stroke-width="1" stroke-opacity="0"></use></g></g><g><use xlink:href="#j7Zm0L4BH2" opacity="1" fill="#1f398d" fill-opacity="1"></use><g><use xlink:href="#j7Zm0L4BH2" opacity="1" fill-opacity="0" stroke="#000000" stroke-width="1" stroke-opacity="0"></use></g></g><g><use xlink:href="#g1aEBqn6D" opacity="1" fill="#1f398d" fill-opacity="1"></use><g><use xlink:href="#g1aEBqn6D" opacity="1" fill-opacity="0" stroke="#000000" stroke-width="1" stroke-opacity="0"></use></g></g><g><use xlink:href="#a1UnLhxJ6x" opacity="1" fill="#1f398d" fill-opacity="1"></use><g><use xlink:href="#a1UnLhxJ6x" opacity="1" fill-opacity="0" stroke="#000000" stroke-width="1" stroke-opacity="0"></use></g></g><g><use xlink:href="#bfRePWHm5" opacity="1" fill="#1f398d" fill-opacity="1"></use><g><use xlink:href="#bfRePWHm5" opacity="1" fill-opacity="0" stroke="#000000" stroke-width="1" stroke-opacity="0"></use></g></g><g><use xlink:href="#fBkYxMI5" opacity="1" fill="#1f398d" fill-opacity="1"></use><g><use xlink:href="#fBkYxMI5" opacity="1" fill-opacity="0" stroke="#000000" stroke-width="1" stroke-opacity="0"></use></g></g><g><use xlink:href="#d5rTnm0I" opacity="1" fill="#1f398d" fill-opacity="1"></use><g><use xlink:href="#d5rTnm0I" opacity="1" fill-opacity="0" stroke="#000000" stroke-width="1" stroke-opacity="0"></use></g></g><g><use xlink:href="#a5e0sRGP2l" opacity="1" fill="#1f398d" fill-opacity="1"></use><g><use xlink:href="#a5e0sRGP2l" opacity="1" fill-opacity="0" stroke="#000000" stroke-width="1" stroke-opacity="0"></use></g></g><g><use xlink:href="#aeAe8EttV" opacity="1" fill="#1f398d" fill-opacity="1"></use><g><use xlink:href="#aeAe8EttV" opacity="1" fill-opacity="0" stroke="#000000" stroke-width="1" stroke-opacity="0"></use></g></g><g><use xlink:href="#c35iIGZmIz" opacity="1" fill="#1f398d" fill-opacity="1"></use><g><use xlink:href="#c35iIGZmIz" opacity="1" fill-opacity="0" stroke="#000000" stroke-width="1" stroke-opacity="0"></use></g></g><g><use xlink:href="#cBn2Qupa7" opacity="1" fill="#1f398d" fill-opacity="1"></use><g><use xlink:href="#cBn2Qupa7" opacity="1" fill-opacity="0" stroke="#000000" stroke-width="1" stroke-opacity="0"></use></g></g><g><use xlink:href="#d1d7rdJUL" opacity="1" fill="#1f398d" fill-opacity="1"></use><g><use xlink:href="#d1d7rdJUL" opacity="1" fill-opacity="0" stroke="#000000" stroke-width="1" stroke-opacity="0"></use></g></g><g><use xlink:href="#c2k8xaBsdS" opacity="1" fill="#1f398d" fill-opacity="1"></use><g><use xlink:href="#c2k8xaBsdS" opacity="1" fill-opacity="0" stroke="#000000" stroke-width="1" stroke-opacity="0"></use></g></g><g><use xlink:href="#a9VmNDZnP" opacity="1" fill="#1f398d" fill-opacity="1"></use><g><use xlink:href="#a9VmNDZnP" opacity="1" fill-opacity="0" stroke="#000000" stroke-width="1" stroke-opacity="0"></use></g></g><g><use xlink:href="#b2BDlk6nC" opacity="1" fill="#1f398d" fill-opacity="1"></use><g><use xlink:href="#b2BDlk6nC" opacity="1" fill-opacity="0" stroke="#000000" stroke-width="1" stroke-opacity="0"></use></g></g><g><use xlink:href="#c5JQvT1b3x" opacity="1" fill="#1f398d" fill-opacity="1"></use><g><use xlink:href="#c5JQvT1b3x" opacity="1" fill-opacity="0" stroke="#000000" stroke-width="1" stroke-opacity="0"></use></g></g><g><use xlink:href="#a3UvRMoqlT" opacity="1" fill="#1f398d" fill-opacity="1"></use><g><use xlink:href="#a3UvRMoqlT" opacity="1" fill-opacity="0" stroke="#000000" stroke-width="1" stroke-opacity="0"></use></g></g><g><use xlink:href="#b1yJJPmSui" opacity="1" fill="#1f398d" fill-opacity="1"></use><g><use xlink:href="#b1yJJPmSui" opacity="1" fill-opacity="0" stroke="#000000" stroke-width="1" stroke-opacity="0"></use></g></g><g><use xlink:href="#bxVJODUR" opacity="1" fill="#1f398d" fill-opacity="1"></use><g><use xlink:href="#bxVJODUR" opacity="1" fill-opacity="0" stroke="#000000" stroke-width="1" stroke-opacity="0"></use></g></g><g><use xlink:href="#a1uyEcWlS2" opacity="1" fill="#1f398d" fill-opacity="1"></use><g><use xlink:href="#a1uyEcWlS2" opacity="1" fill-opacity="0" stroke="#000000" stroke-width="1" stroke-opacity="0"></use></g></g><g><use xlink:href="#aSxA76KtY" opacity="1" fill="#1f398d" fill-opacity="1"></use><g><use xlink:href="#aSxA76KtY" opacity="1" fill-opacity="0" stroke="#000000" stroke-width="1" stroke-opacity="0"></use></g></g><g><use xlink:href="#a4GIsCwfoN" opacity="1" fill="#1f398d" fill-opacity="1"></use><g><use xlink:href="#a4GIsCwfoN" opacity="1" fill-opacity="0" stroke="#000000" stroke-width="1" stroke-opacity="0"></use></g></g><g><use xlink:href="#d33jQWQlz" opacity="1" fill="#1f398d" fill-opacity="1"></use><g><use xlink:href="#d33jQWQlz" opacity="1" fill-opacity="0" stroke="#000000" stroke-width="1" stroke-opacity="0"></use></g></g><g><use xlink:href="#aAnmTTa6w" opacity="1" fill="#1f398d" fill-opacity="1"></use><g><use xlink:href="#aAnmTTa6w" opacity="1" fill-opacity="0" stroke="#000000" stroke-width="1" stroke-opacity="0"></use></g></g><g><use xlink:href="#aRNlCNHzx" opacity="1" fill="#1f398d" fill-opacity="1"></use><g><use xlink:href="#aRNlCNHzx" opacity="1" fill-opacity="0" stroke="#000000" stroke-width="1" stroke-opacity="0"></use></g></g><g><use xlink:href="#c2Kg5G0NYe" opacity="1" fill="#1f398d" fill-opacity="1"></use><g><use xlink:href="#c2Kg5G0NYe" opacity="1" fill-opacity="0" stroke="#000000" stroke-width="1" stroke-opacity="0"></use></g></g><g><use xlink:href="#b39Rzh3o" opacity="1" fill="#1f398d" fill-opacity="1"></use></g></g></svg>