<?xml version="1.0" encoding="UTF-8" standalone="no"?>
<!DOCTYPE svg PUBLIC "-//W3C//DTD SVG 1.1//EN" "http://www.w3.org/Graphics/SVG/1.1/DTD/svg11.dtd">
<svg version="1.1" xmlns="http://www.w3.org/2000/svg" xmlns:xlink="http://www.w3.org/1999/xlink" preserveAspectRatio="xMidYMid meet" viewBox="0 0 640 640" width="60" height="60"><defs><path d="M15.98 432.01C15.98 392.3 48.28 360.01 87.98 360.01C92.41 360.01 95.98 363.58 95.98 368.01C95.98 372.43 92.41 376.01 87.98 376.01C57.11 376.01 31.98 401.14 31.98 432.01C31.98 436.43 28.41 440.01 23.98 440.01C19.56 440.01 15.98 436.43 15.98 432.01Z" id="c2Qpjd3oKb"></path><path d="M87.98 376.01C83.56 376.01 79.98 372.42 79.98 368.01C79.98 363.58 83.57 360.01 87.98 360.01C92.78 360.01 131.18 360.02 135.98 360.02C140.41 360.02 143.98 363.6 143.98 368.02C143.98 372.44 140.4 376.02 135.98 376.02C126.38 376.01 92.78 376.01 87.98 376.01Z" id="a9GtFcCtX"></path><path d="M247.98 376C243.56 376 239.98 372.42 239.98 368C239.98 363.58 243.57 360 247.98 360C251.31 360 277.91 360.01 281.23 360.02C285.66 360.02 289.23 363.6 289.23 368.02C289.23 372.44 285.65 376.02 281.23 376.02C274.58 376.01 251.31 376 247.98 376Z" id="b2mI3J4LgW"></path><path d="M16 488C16 482.4 15.99 437.61 15.98 432.01C15.98 427.59 19.56 424.01 23.98 424.01C28.4 424.01 31.98 427.58 31.98 432.01C31.99 437.61 32 482.4 32 488C32 492.42 28.42 496 24 496C19.58 496 16 492.42 16 488Z" id="bnBas4oW8"></path><path d="M127.98 368.02C127.98 363.43 127.98 326.75 127.98 322.17C127.98 317.74 131.56 314.17 135.98 314.17C140.41 314.17 143.98 317.74 143.98 322.17C143.98 326.75 143.98 363.43 143.98 368.02C143.98 372.44 140.41 376.02 135.98 376.02C131.56 376.02 127.98 372.44 127.98 368.02Z" id="huawWu2Ye"></path><path d="M239.98 368C239.98 363.42 239.98 326.75 239.98 322.17C239.98 317.74 243.56 314.17 247.98 314.17C252.41 314.17 255.98 317.74 255.98 322.17C255.98 326.75 255.98 363.42 255.98 368C255.98 372.42 252.41 376 247.98 376C243.56 376 239.98 372.42 239.98 368Z" id="b1fWlQO80W"></path><path d="M63.98 216.01C63.98 211.58 67.56 208.01 71.98 208.01C76.41 208.01 79.98 211.58 79.98 216.01C79.98 277.77 130.22 328.01 191.98 328.01C253.74 328.01 303.98 277.77 303.98 216.01C303.98 211.58 307.56 208.01 311.98 208.01C316.41 208.01 319.98 211.58 319.98 216.01C319.98 286.58 262.56 344.01 191.98 344.01C121.41 344.01 63.98 286.58 63.98 216.01Z" id="bpiFwfnac"></path><path d="M63.98 216.01C63.98 207.21 63.98 136.8 63.98 128C63.98 123.58 67.56 120 71.98 120C76.41 120 79.98 123.58 79.98 128C79.98 136.8 79.98 207.21 79.98 216.01C79.98 220.43 76.41 224.01 71.98 224.01C67.56 224.01 63.98 220.43 63.98 216.01Z" id="a1T0tRflU5"></path><path d="M303.98 216.01C303.98 206.41 303.98 129.62 303.98 120.02C303.98 115.59 307.56 112.02 311.98 112.02C316.41 112.02 319.98 115.59 319.98 120.02C319.98 129.62 319.98 206.41 319.98 216.01C319.98 220.43 316.41 224.01 311.98 224.01C307.56 224.01 303.98 220.43 303.98 216.01Z" id="g7IAMXA3j"></path><path d="M303.98 120.02C303.98 93.54 282.46 72.02 255.98 72.02C251.56 72.02 247.98 68.44 247.98 64.02C247.98 59.59 251.56 56.02 255.98 56.02C291.27 56.02 319.98 84.73 319.98 120.02C319.98 124.44 316.41 128.02 311.98 128.02C307.56 128.02 303.98 124.44 303.98 120.02Z" id="bA6SPdWuV"></path><path d="M247.98 64.02C247.98 60.01 247.98 28 247.98 24C247.98 19.58 251.56 16 255.98 16C260.41 16 263.98 19.58 263.98 24C263.98 28 263.98 60.01 263.98 64.02C263.98 68.44 260.41 72.02 255.98 72.02C251.56 72.02 247.98 68.44 247.98 64.02Z" id="fIxaWPEZN"></path><path d="M175.98 32C171.56 32 167.98 28.42 167.98 24C167.98 19.58 171.56 16 175.98 16C183.98 16 247.98 16 255.98 16C260.41 16 263.98 19.58 263.98 24C263.98 28.42 260.41 32 255.98 32C239.98 32 183.98 32 175.98 32Z" id="c6Wz0Ykt5L"></path><path d="M63.98 128C63.98 66.24 114.22 16 175.98 16C180.41 16 183.98 19.58 183.98 24C183.98 28.42 180.41 32 175.98 32C123.05 32 79.98 75.06 79.98 128C79.98 132.42 76.41 136 71.98 136C67.56 136 63.98 132.42 63.98 128Z" id="dxo6WUpEd"></path><path d="M306.33 173.66C303.13 170.46 277.53 144.86 274.33 141.66C271.2 138.53 271.2 133.47 274.33 130.34C277.46 127.22 282.51 127.22 285.64 130.34C288.84 133.54 314.44 159.14 317.64 162.34C320.77 165.47 320.77 170.53 317.64 173.66C316.08 175.22 314.03 176 311.98 176C309.94 176 307.89 175.22 306.33 173.66Z" id="iwGCRP9x"></path><path d="M99.86 142.86C96.08 140.58 94.86 135.68 97.12 131.89C99.38 128.11 104.27 126.86 108.09 129.13C108.48 129.37 146.9 152 191.98 152C237.07 152 275.49 129.37 275.87 129.14C279.7 126.86 284.58 128.12 286.84 131.9C289.1 135.69 287.88 140.59 284.1 142.86C282.39 143.88 241.63 168 191.98 168C142.34 168 101.58 143.88 99.86 142.86Z" id="c1Jx5r0cIy"></path><path d="M66.33 173.66C63.2 170.53 63.2 165.47 66.33 162.34C69.53 159.14 95.13 133.54 98.33 130.34C101.46 127.22 106.51 127.22 109.64 130.34C112.77 133.47 112.77 138.53 109.64 141.66C106.44 144.86 80.84 170.46 77.64 173.66C76.08 175.22 74.03 176 71.98 176C69.94 176 67.89 175.22 66.33 173.66Z" id="b7XDOQAvUJ"></path><path d="M155.54 390.66C153.14 389.06 133.94 376.27 131.54 374.67C127.87 372.22 126.87 367.26 129.33 363.58C131.78 359.9 136.73 358.91 140.42 361.36C142.82 362.96 162.02 375.75 164.42 377.34C168.1 379.79 169.1 384.76 166.64 388.44C165.1 390.75 162.56 392 159.98 392C158.46 392 156.91 391.56 155.54 390.66Z" id="ajPialyVS"></path><path d="M152.22 385.94C151.14 381.65 153.75 377.31 158.05 376.24C161.25 375.44 186.85 369.05 190.05 368.25C194.32 367.17 198.67 369.77 199.74 374.07C200.82 378.36 198.22 382.7 193.92 383.77C190.72 384.57 165.12 390.96 161.92 391.76C161.27 391.92 160.62 392 159.98 392C156.39 392 153.14 389.58 152.22 385.94Z" id="ebD5ZYiZt"></path><path d="M217.33 388.44C214.87 384.76 215.87 379.79 219.54 377.34C221.94 375.75 241.14 362.96 243.54 361.36C247.22 358.91 252.18 359.9 254.64 363.58C257.1 367.26 256.1 372.22 252.42 374.67C250.02 376.27 230.82 389.06 228.42 390.66C227.06 391.56 225.51 392 223.99 392C221.41 392 218.86 390.75 217.33 388.44Z" id="bJqb853MB"></path><path d="M222.05 391.76C218.85 390.96 193.25 384.57 190.05 383.77C185.76 382.7 183.15 378.36 184.22 374.07C185.29 369.79 189.62 367.17 193.92 368.25C197.12 369.05 222.72 375.44 225.92 376.24C230.21 377.31 232.82 381.65 231.74 385.94C230.83 389.57 227.58 392 223.99 392C223.35 392 222.7 391.92 222.05 391.76Z" id="dlrN8NeF4"></path><path d="M184.18 416C184.18 411.58 187.72 408 192.14 408C192.14 408 192.22 408 192.22 408C196.64 408 200.22 411.58 200.22 416C200.22 420.42 196.64 424 192.22 424C187.8 424 184.18 420.42 184.18 416Z" id="aixJ6LpH"></path><path d="M184.18 464.01C184.18 459.58 187.72 456.01 192.14 456.01C192.14 456.01 192.22 456.01 192.22 456.01C196.64 456.01 200.22 459.58 200.22 464.01C200.22 468.43 196.64 472.01 192.22 472.01C187.8 472.01 184.18 468.43 184.18 464.01Z" id="a3obPpv1in"></path><path d="M393.19 272.34L397.7 272.8L402.16 273.44L406.56 274.25L410.9 275.23L415.17 276.38L419.38 277.69L423.51 279.16L427.57 280.78L431.55 282.56L435.44 284.49L439.25 286.56L442.97 288.77L446.59 291.12L450.12 293.61L453.55 296.22L456.87 298.96L460.08 301.83L463.18 304.81L466.16 307.91L469.02 311.12L471.76 314.44L474.38 317.87L476.86 321.4L479.21 325.02L481.43 328.74L483.5 332.55L485.42 336.44L487.2 340.42L488.83 344.48L490.3 348.61L491.61 352.82L492.76 357.09L493.74 361.43L494.55 365.83L495.18 370.29L495.64 374.8L495.92 379.37L496.02 383.98L495.92 388.59L495.64 393.15L495.18 397.66L494.55 402.12L493.74 406.53L492.76 410.87L491.61 415.14L490.3 419.35L488.83 423.48L487.2 427.54L485.42 431.52L483.5 435.42L481.43 439.23L479.21 442.94L476.86 446.57L474.38 450.1L471.76 453.52L469.02 456.84L466.16 460.05L463.18 463.15L460.08 466.14L456.87 469L453.55 471.74L450.12 474.36L446.59 476.84L442.97 479.19L439.25 481.41L435.44 483.48L431.55 485.41L427.57 487.18L423.51 488.81L419.38 490.28L415.17 491.59L410.9 492.74L406.56 493.72L402.16 494.53L397.7 495.17L393.19 495.63L388.63 495.91L384.02 496L379.41 495.91L374.84 495.63L370.33 495.17L365.87 494.53L361.47 493.72L357.13 492.74L352.86 491.59L348.65 490.28L344.52 488.81L340.46 487.18L336.48 485.41L332.59 483.48L328.78 481.41L325.06 479.19L321.44 476.84L317.91 474.36L314.49 471.74L311.17 469L307.96 466.14L304.86 463.15L301.87 460.05L299.01 456.84L296.27 453.52L293.65 450.1L291.17 446.57L288.82 442.94L286.61 439.23L284.54 435.42L282.61 431.52L280.83 427.54L279.21 423.48L277.74 419.35L276.42 415.14L275.28 410.87L274.3 406.53L273.48 402.12L272.85 397.66L272.39 393.15L272.11 388.59L272.02 383.98L272.11 379.37L272.39 374.8L272.85 370.29L273.48 365.83L274.3 361.43L275.28 357.09L276.42 352.82L277.74 348.61L279.21 344.48L280.83 340.42L282.61 336.44L284.54 332.55L286.61 328.74L288.82 325.02L291.17 321.4L293.65 317.87L296.27 314.44L299.01 311.12L301.87 307.91L304.86 304.81L307.96 301.83L311.17 298.96L314.49 296.22L317.91 293.61L321.44 291.12L325.06 288.77L328.78 286.56L332.59 284.49L336.48 282.56L340.46 280.78L344.52 279.16L348.65 277.69L352.86 276.38L357.13 275.23L361.47 274.25L365.87 273.44L370.33 272.8L374.84 272.34L379.41 272.06L384.02 271.97L388.63 272.06L393.19 272.34ZM376.15 288.29L372.29 288.68L368.46 289.23L364.69 289.92L360.97 290.76L357.31 291.75L353.7 292.87L350.16 294.13L346.68 295.53L343.27 297.05L339.94 298.7L336.67 300.48L333.48 302.37L330.38 304.39L327.36 306.52L324.42 308.76L321.57 311.11L318.82 313.56L316.17 316.12L313.61 318.78L311.15 321.53L308.8 324.38L306.56 327.31L304.43 330.34L302.42 333.44L300.52 336.63L298.75 339.89L297.1 343.23L295.57 346.64L294.18 350.12L292.92 353.66L291.79 357.27L290.81 360.93L289.97 364.65L289.27 368.42L288.73 372.25L288.33 376.11L288.1 380.02L288.02 383.98L288.1 387.93L288.33 391.84L288.73 395.71L289.27 399.53L289.97 403.3L290.81 407.02L291.79 410.69L292.92 414.29L294.18 417.84L295.57 421.32L297.1 424.73L298.75 428.07L300.52 431.33L302.42 434.52L304.43 437.62L306.56 440.65L308.8 443.58L311.15 446.43L313.61 449.18L316.17 451.84L318.82 454.4L321.57 456.86L324.42 459.21L327.36 461.45L330.38 463.58L333.48 465.59L336.67 467.49L339.94 469.27L343.27 470.92L346.68 472.44L350.16 473.84L353.7 475.1L357.31 476.22L360.97 477.2L364.69 478.05L368.46 478.74L372.29 479.29L376.15 479.68L380.06 479.92L384.02 480L387.97 479.92L391.88 479.68L395.75 479.29L399.57 478.74L403.34 478.05L407.06 477.2L410.72 476.22L414.33 475.1L417.87 473.84L421.35 472.44L424.76 470.92L428.1 469.27L431.36 467.49L434.55 465.59L437.65 463.58L440.68 461.45L443.61 459.21L446.46 456.86L449.21 454.4L451.87 451.84L454.42 449.18L456.88 446.43L459.23 443.58L461.47 440.65L463.6 437.62L465.61 434.52L467.51 431.33L469.28 428.07L470.94 424.73L472.46 421.32L473.85 417.84L475.11 414.29L476.24 410.69L477.22 407.02L478.06 403.3L478.76 399.53L479.3 395.71L479.7 391.84L479.94 387.93L480.02 383.98L479.94 380.02L479.7 376.11L479.3 372.25L478.76 368.42L478.06 364.65L477.22 360.93L476.24 357.27L475.11 353.66L473.85 350.12L472.46 346.64L470.94 343.23L469.28 339.89L467.51 336.63L465.61 333.44L463.6 330.34L461.47 327.31L459.23 324.38L456.88 321.53L454.42 318.78L451.87 316.12L449.21 313.56L446.46 311.11L443.61 308.76L440.68 306.52L437.65 304.39L434.55 302.37L431.36 300.48L428.1 298.7L424.76 297.05L421.35 295.53L417.87 294.13L414.33 292.87L410.72 291.75L407.06 290.76L403.34 289.92L399.57 289.23L395.75 288.68L391.88 288.29L387.97 288.05L384.02 287.97L380.06 288.05L376.15 288.29Z" id="c2jI28rJDt"></path><path d="M391.22 296.26L394.77 296.62L398.27 297.12L401.73 297.76L405.14 298.53L408.5 299.43L411.8 300.46L415.05 301.62L418.24 302.9L421.36 304.29L424.42 305.81L427.41 307.43L430.33 309.17L433.18 311.02L435.95 312.97L438.64 315.03L441.25 317.18L443.78 319.43L446.21 321.77L448.56 324.21L450.81 326.73L452.96 329.34L455.01 332.03L456.97 334.8L458.81 337.65L460.55 340.57L462.18 343.57L463.69 346.63L465.09 349.75L466.37 352.94L467.52 356.19L468.55 359.49L469.45 362.85L470.22 366.26L470.86 369.72L471.36 373.22L471.72 376.77L471.94 380.35L472.02 383.98L471.94 387.6L471.72 391.18L471.36 394.73L470.86 398.23L470.22 401.69L469.45 405.1L468.55 408.46L467.52 411.77L466.37 415.02L465.09 418.21L463.69 421.33L462.18 424.39L460.55 427.39L458.81 430.31L456.97 433.16L455.01 435.93L452.96 438.62L450.81 441.23L448.56 443.75L446.21 446.19L443.78 448.53L441.25 450.78L438.64 452.94L435.95 454.99L433.18 456.95L430.33 458.79L427.41 460.53L424.42 462.16L421.36 463.67L418.24 465.07L415.05 466.35L411.8 467.5L408.5 468.54L405.14 469.44L401.73 470.21L398.27 470.85L394.77 471.35L391.22 471.71L387.64 471.93L384.02 472L380.39 471.93L376.81 471.71L373.26 471.35L369.76 470.85L366.3 470.21L362.89 469.44L359.54 468.54L356.23 467.5L352.98 466.35L349.8 465.07L346.67 463.67L343.61 462.16L340.62 460.53L337.7 458.79L334.85 456.95L332.08 454.99L329.39 452.94L326.78 450.78L324.26 448.53L321.82 446.19L319.48 443.75L317.23 441.23L315.07 438.62L313.02 435.93L311.07 433.16L309.22 430.31L307.48 427.39L305.85 424.39L304.34 421.33L302.94 418.21L301.67 415.02L300.51 411.77L299.48 408.46L298.58 405.1L297.81 401.69L297.17 398.23L296.67 394.73L296.31 391.18L296.09 387.6L296.02 383.98L296.09 380.35L296.31 376.77L296.67 373.22L297.17 369.72L297.81 366.26L298.58 362.85L299.48 359.49L300.51 356.19L301.67 352.94L302.94 349.75L304.34 346.63L305.85 343.57L307.48 340.57L309.22 337.65L311.07 334.8L313.02 332.03L315.07 329.34L317.23 326.73L319.48 324.21L321.82 321.77L324.26 319.43L326.78 317.18L329.39 315.03L332.08 312.97L334.85 311.02L337.7 309.17L340.62 307.43L343.61 305.81L346.67 304.29L349.8 302.9L352.98 301.62L356.23 300.46L359.54 299.43L362.89 298.53L366.3 297.76L369.76 297.12L373.26 296.62L376.81 296.26L380.39 296.04L384.02 295.97L387.64 296.04L391.22 296.26ZM378.12 312.21L375.22 312.5L372.35 312.91L369.52 313.43L366.73 314.06L363.99 314.8L361.28 315.65L358.62 316.59L356.02 317.64L353.46 318.78L350.95 320.02L348.51 321.35L346.12 322.77L343.79 324.28L341.52 325.88L339.32 327.56L337.18 329.32L335.12 331.16L333.13 333.08L331.21 335.08L329.37 337.14L327.61 339.28L325.93 341.48L324.33 343.74L322.82 346.07L321.4 348.46L320.06 350.91L318.83 353.42L317.68 355.97L316.64 358.58L315.69 361.24L314.85 363.94L314.11 366.69L313.48 369.48L312.96 372.31L312.55 375.18L312.26 378.08L312.08 381.01L312.02 383.98L312.08 386.94L312.26 389.87L312.55 392.78L312.96 395.64L313.48 398.47L314.11 401.26L314.85 404.01L315.69 406.72L316.64 409.37L317.68 411.98L318.83 414.54L320.06 417.05L321.4 419.5L322.82 421.89L324.33 424.22L325.93 426.48L327.61 428.69L329.37 430.82L331.21 432.89L333.13 434.88L335.12 436.8L337.18 438.64L339.32 440.4L341.52 442.08L343.79 443.68L346.12 445.19L348.51 446.62L350.95 447.95L353.46 449.19L356.02 450.33L358.62 451.38L361.28 452.32L363.99 453.16L366.73 453.9L369.52 454.53L372.35 455.06L375.22 455.47L378.12 455.76L381.05 455.94L384.02 456L386.98 455.94L389.91 455.76L392.81 455.47L395.68 455.06L398.51 454.53L401.3 453.9L404.05 453.16L406.75 452.32L409.41 451.38L412.02 450.33L414.57 449.19L417.08 447.95L419.53 446.62L421.92 445.19L424.25 443.68L426.51 442.08L428.71 440.4L430.85 438.64L432.91 436.8L434.91 434.88L436.82 432.89L438.66 430.82L440.43 428.69L442.11 426.48L443.7 424.22L445.21 421.89L446.64 419.5L447.97 417.05L449.21 414.54L450.35 411.98L451.39 409.37L452.34 406.72L453.18 404.01L453.92 401.26L454.55 398.47L455.07 395.64L455.48 392.78L455.78 389.87L455.96 386.94L456.02 383.98L455.96 381.01L455.78 378.08L455.48 375.18L455.07 372.31L454.55 369.48L453.92 366.69L453.18 363.94L452.34 361.24L451.39 358.58L450.35 355.97L449.21 353.42L447.97 350.91L446.64 348.46L445.21 346.07L443.7 343.74L442.11 341.48L440.43 339.28L438.66 337.14L436.82 335.08L434.91 333.08L432.91 331.16L430.85 329.32L428.71 327.56L426.51 325.88L424.25 324.28L421.92 322.77L419.53 321.35L417.08 320.02L414.57 318.78L412.02 317.64L409.41 316.59L406.75 315.65L404.05 314.8L401.3 314.06L398.51 313.43L395.68 312.91L392.81 312.5L389.91 312.21L386.98 312.03L384.02 311.97L381.05 312.03L378.12 312.21Z" id="c1Pg9QqhWM"></path><path d="M386.63 360.1L387.9 360.27L389.16 360.51L390.39 360.82L391.59 361.19L392.77 361.61L393.92 362.1L395.04 362.64L396.12 363.24L397.17 363.9L398.18 364.6L399.15 365.35L400.09 366.15L400.98 367L401.82 367.89L402.63 368.83L403.38 369.8L404.08 370.81L404.73 371.86L405.33 372.95L405.88 374.06L406.36 375.21L406.79 376.39L407.16 377.6L407.46 378.83L407.7 380.08L407.87 381.36L407.98 382.65L408.02 383.97L407.98 385.28L407.87 386.58L407.7 387.86L407.46 389.11L407.16 390.34L406.79 391.55L406.36 392.72L405.88 393.87L405.33 394.99L404.73 396.07L404.08 397.12L403.38 398.13L402.63 399.11L401.82 400.04L400.98 400.93L400.09 401.78L399.15 402.58L398.18 403.33L397.17 404.03L396.12 404.69L395.04 405.28L393.92 405.83L392.77 406.31L391.59 406.74L390.39 407.11L389.16 407.41L387.9 407.65L386.63 407.83L385.33 407.93L384.02 407.97L382.7 407.93L381.4 407.83L380.13 407.65L378.87 407.41L377.64 407.11L376.44 406.74L375.26 406.31L374.11 405.83L373 405.28L371.91 404.69L370.86 404.03L369.85 403.33L368.88 402.58L367.94 401.78L367.05 400.93L366.21 400.04L365.41 399.11L364.65 398.13L363.95 397.12L363.3 396.07L362.7 394.99L362.16 393.87L361.67 392.72L361.24 391.55L360.87 390.34L360.57 389.11L360.33 387.86L360.16 386.58L360.05 385.28L360.02 383.97L360.05 382.65L360.16 381.36L360.33 380.08L360.57 378.83L360.87 377.6L361.24 376.39L361.67 375.21L362.16 374.06L362.7 372.95L363.3 371.86L363.95 370.81L364.65 369.8L365.41 368.83L366.21 367.89L367.05 367L367.94 366.15L368.88 365.35L369.85 364.6L370.86 363.9L371.91 363.24L373 362.64L374.11 362.1L375.26 361.61L376.44 361.19L377.64 360.82L378.87 360.51L380.13 360.27L381.4 360.1L382.7 360L384.02 359.96L385.33 360L386.63 360.1ZM381.49 376.37L380.34 376.86L379.29 377.51L378.36 378.31L377.56 379.24L376.91 380.29L376.42 381.44L376.12 382.67L376.02 383.97L376.12 385.27L376.42 386.5L376.91 387.64L377.56 388.69L378.36 389.62L379.29 390.42L380.34 391.07L381.49 391.56L382.72 391.86L384.02 391.97L385.31 391.86L386.54 391.56L387.69 391.07L388.74 390.42L389.67 389.62L390.47 388.69L391.12 387.64L391.61 386.5L391.91 385.27L392.02 383.97L391.91 382.67L391.61 381.44L391.12 380.29L390.47 379.24L389.67 378.31L388.74 377.51L387.69 376.86L386.54 376.37L385.31 376.06L384.02 375.96L382.72 376.06L381.49 376.37Z" id="a3Gvsjo5TA"></path><path d="M314.72 351.97C310.3 351.97 306.72 348.39 306.72 343.97C306.72 339.54 310.3 335.97 314.72 335.97C328.58 335.97 439.45 335.97 453.31 335.97C457.74 335.97 461.31 339.54 461.31 343.97C461.31 348.39 457.74 351.97 453.31 351.97C425.59 351.97 328.58 351.97 314.72 351.97Z" id="a1k3Xhj10A"></path><path d="M399.88 470.31C395.46 470.22 391.94 466.58 392.03 462.16C392.84 419.64 420.83 383.27 461.69 371.66C465.95 370.43 470.36 372.91 471.57 377.16C472.78 381.41 470.31 385.83 466.06 387.04C432.02 396.72 408.7 427.02 408.03 462.46C407.94 466.83 404.38 470.31 400.03 470.31C399.98 470.31 399.93 470.31 399.88 470.31Z" id="gB9ROu95A"></path><path d="M360.03 462.54C359.4 427.05 336.08 396.71 301.99 387.04C297.74 385.84 295.27 381.42 296.48 377.17C297.68 372.91 302.12 370.42 306.35 371.66C347.27 383.26 375.27 419.67 376.03 462.26C376.11 466.67 372.59 470.32 368.18 470.4C368.13 470.39 368.08 470.39 368.03 470.39C363.68 470.39 360.11 466.9 360.03 462.54Z" id="ar3Y6hIXC"></path><path d="M402.72 80.59L402.72 132.02L381.34 132.02L381.34 80.59L317.21 80.59L317.21 63.44L381.34 63.44L381.34 12.02L402.72 12.02L402.72 63.44L466.85 63.44L466.85 80.59L402.72 80.59Z" id="buoPG9D3T"></path></defs><g><g><g><use xlink:href="#c2Qpjd3oKb" opacity="1" fill="#000000" fill-opacity="1"></use><g><use xlink:href="#c2Qpjd3oKb" opacity="1" fill-opacity="0" stroke="#000000" stroke-width="1" stroke-opacity="0"></use></g></g><g><use xlink:href="#a9GtFcCtX" opacity="1" fill="#000000" fill-opacity="1"></use><g><use xlink:href="#a9GtFcCtX" opacity="1" fill-opacity="0" stroke="#000000" stroke-width="1" stroke-opacity="0"></use></g></g><g><use xlink:href="#b2mI3J4LgW" opacity="1" fill="#000000" fill-opacity="1"></use><g><use xlink:href="#b2mI3J4LgW" opacity="1" fill-opacity="0" stroke="#000000" stroke-width="1" stroke-opacity="0"></use></g></g><g><use xlink:href="#bnBas4oW8" opacity="1" fill="#000000" fill-opacity="1"></use><g><use xlink:href="#bnBas4oW8" opacity="1" fill-opacity="0" stroke="#000000" stroke-width="1" stroke-opacity="0"></use></g></g><g><use xlink:href="#huawWu2Ye" opacity="1" fill="#000000" fill-opacity="1"></use><g><use xlink:href="#huawWu2Ye" opacity="1" fill-opacity="0" stroke="#000000" stroke-width="1" stroke-opacity="0"></use></g></g><g><use xlink:href="#b1fWlQO80W" opacity="1" fill="#000000" fill-opacity="1"></use><g><use xlink:href="#b1fWlQO80W" opacity="1" fill-opacity="0" stroke="#000000" stroke-width="1" stroke-opacity="0"></use></g></g><g><use xlink:href="#bpiFwfnac" opacity="1" fill="#000000" fill-opacity="1"></use><g><use xlink:href="#bpiFwfnac" opacity="1" fill-opacity="0" stroke="#000000" stroke-width="1" stroke-opacity="0"></use></g></g><g><use xlink:href="#a1T0tRflU5" opacity="1" fill="#000000" fill-opacity="1"></use><g><use xlink:href="#a1T0tRflU5" opacity="1" fill-opacity="0" stroke="#000000" stroke-width="1" stroke-opacity="0"></use></g></g><g><use xlink:href="#g7IAMXA3j" opacity="1" fill="#000000" fill-opacity="1"></use><g><use xlink:href="#g7IAMXA3j" opacity="1" fill-opacity="0" stroke="#000000" stroke-width="1" stroke-opacity="0"></use></g></g><g><use xlink:href="#bA6SPdWuV" opacity="1" fill="#000000" fill-opacity="1"></use><g><use xlink:href="#bA6SPdWuV" opacity="1" fill-opacity="0" stroke="#000000" stroke-width="1" stroke-opacity="0"></use></g></g><g><use xlink:href="#fIxaWPEZN" opacity="1" fill="#000000" fill-opacity="1"></use><g><use xlink:href="#fIxaWPEZN" opacity="1" fill-opacity="0" stroke="#000000" stroke-width="1" stroke-opacity="0"></use></g></g><g><use xlink:href="#c6Wz0Ykt5L" opacity="1" fill="#000000" fill-opacity="1"></use><g><use xlink:href="#c6Wz0Ykt5L" opacity="1" fill-opacity="0" stroke="#000000" stroke-width="1" stroke-opacity="0"></use></g></g><g><use xlink:href="#dxo6WUpEd" opacity="1" fill="#000000" fill-opacity="1"></use><g><use xlink:href="#dxo6WUpEd" opacity="1" fill-opacity="0" stroke="#000000" stroke-width="1" stroke-opacity="0"></use></g></g><g><use xlink:href="#iwGCRP9x" opacity="1" fill="#000000" fill-opacity="1"></use><g><use xlink:href="#iwGCRP9x" opacity="1" fill-opacity="0" stroke="#000000" stroke-width="1" stroke-opacity="0"></use></g></g><g><use xlink:href="#c1Jx5r0cIy" opacity="1" fill="#000000" fill-opacity="1"></use><g><use xlink:href="#c1Jx5r0cIy" opacity="1" fill-opacity="0" stroke="#000000" stroke-width="1" stroke-opacity="0"></use></g></g><g><use xlink:href="#b7XDOQAvUJ" opacity="1" fill="#000000" fill-opacity="1"></use><g><use xlink:href="#b7XDOQAvUJ" opacity="1" fill-opacity="0" stroke="#000000" stroke-width="1" stroke-opacity="0"></use></g></g><g><use xlink:href="#ajPialyVS" opacity="1" fill="#000000" fill-opacity="1"></use><g><use xlink:href="#ajPialyVS" opacity="1" fill-opacity="0" stroke="#000000" stroke-width="1" stroke-opacity="0"></use></g></g><g><use xlink:href="#ebD5ZYiZt" opacity="1" fill="#000000" fill-opacity="1"></use><g><use xlink:href="#ebD5ZYiZt" opacity="1" fill-opacity="0" stroke="#000000" stroke-width="1" stroke-opacity="0"></use></g></g><g><use xlink:href="#bJqb853MB" opacity="1" fill="#000000" fill-opacity="1"></use><g><use xlink:href="#bJqb853MB" opacity="1" fill-opacity="0" stroke="#000000" stroke-width="1" stroke-opacity="0"></use></g></g><g><use xlink:href="#dlrN8NeF4" opacity="1" fill="#000000" fill-opacity="1"></use><g><use xlink:href="#dlrN8NeF4" opacity="1" fill-opacity="0" stroke="#000000" stroke-width="1" stroke-opacity="0"></use></g></g><g><use xlink:href="#aixJ6LpH" opacity="1" fill="#000000" fill-opacity="1"></use><g><use xlink:href="#aixJ6LpH" opacity="1" fill-opacity="0" stroke="#000000" stroke-width="1" stroke-opacity="0"></use></g></g><g><use xlink:href="#a3obPpv1in" opacity="1" fill="#000000" fill-opacity="1"></use><g><use xlink:href="#a3obPpv1in" opacity="1" fill-opacity="0" stroke="#000000" stroke-width="1" stroke-opacity="0"></use></g></g><g><use xlink:href="#c2jI28rJDt" opacity="1" fill="#000000" fill-opacity="1"></use><g><use xlink:href="#c2jI28rJDt" opacity="1" fill-opacity="0" stroke="#000000" stroke-width="1" stroke-opacity="0"></use></g></g><g><use xlink:href="#c1Pg9QqhWM" opacity="1" fill="#000000" fill-opacity="1"></use><g><use xlink:href="#c1Pg9QqhWM" opacity="1" fill-opacity="0" stroke="#000000" stroke-width="1" stroke-opacity="0"></use></g></g><g><use xlink:href="#a3Gvsjo5TA" opacity="1" fill="#000000" fill-opacity="1"></use><g><use xlink:href="#a3Gvsjo5TA" opacity="1" fill-opacity="0" stroke="#000000" stroke-width="1" stroke-opacity="0"></use></g></g><g><use xlink:href="#a1k3Xhj10A" opacity="1" fill="#000000" fill-opacity="1"></use><g><use xlink:href="#a1k3Xhj10A" opacity="1" fill-opacity="0" stroke="#000000" stroke-width="1" stroke-opacity="0"></use></g></g><g><use xlink:href="#gB9ROu95A" opacity="1" fill="#000000" fill-opacity="1"></use><g><use xlink:href="#gB9ROu95A" opacity="1" fill-opacity="0" stroke="#000000" stroke-width="1" stroke-opacity="0"></use></g></g><g><use xlink:href="#ar3Y6hIXC" opacity="1" fill="#000000" fill-opacity="1"></use><g><use xlink:href="#ar3Y6hIXC" opacity="1" fill-opacity="0" stroke="#000000" stroke-width="1" stroke-opacity="0"></use></g></g><g><use xlink:href="#buoPG9D3T" opacity="1" fill="#000000" fill-opacity="1"></use><g><use xlink:href="#buoPG9D3T" opacity="1" fill-opacity="0" stroke="#000000" stroke-width="1" stroke-opacity="0"></use></g></g></g></g></svg>