<svg height="512" viewBox="0 0 60 60" width="512" xmlns="http://www.w3.org/2000/svg"><g id="Page-1" fill="none" fill-rule="evenodd"><g id="009---Car-Seat" fill="rgb(0,0,0)" fill-rule="nonzero" transform="translate(0 -1)"><path id="Shape" d="m44 33c-1.5555693.0032646-3.1071591.1573184-4.633.46 2.9967649-4.9700584 4.5973241-10.6564832 4.633-16.46-.0365443-4.7284094-.76114-9.42632304-2.151-13.946-.5230137-1.57401154-2.2229885-2.42601366-3.797-1.903s-2.4260137 2.22298846-1.903 3.797c1.1836998 3.90961581 1.806906 7.9673584 1.851 12.052 0 5.888-2.127 11.63-6.323 17.071-.573.745-1.207 1.486-1.868 2.215-.145-.046-.29-.077-.435-.111-.3433333-.522-.6746667-1.0203333-.994-1.495 13.501-11.92 4.63-32.865 4.537-33.08-.1591192-.36458809-.5192018-.60019286-.917-.6-30.2 0-31.931 28.633-31.98 29.762-.01352226.0786075-.02021391.1582382-.02.238v4c.00085149.0928697.01499499.1851392.042.274 1.60808603 4.880459 4.29375253 9.3365191 7.858 13.038.1225402.1242027.21045125.2783056.255.447l1.545 6.173c.29258987 1.1905256 1.1185402 2.1792302 2.238 2.679 2.82 1.266 9.301 3.389 21.062 3.389 12.932 0 20.1-2.576 22.581-3.684.7534616-.3378737 1.3827083-.9024478 1.8-1.615 1.7121593-2.9465668 2.615632-6.2931071 2.619-9.701v-6c-.0000566-.2651948-.1054506-.5195073-.293-.707-4.2864412-3.9534136-9.8766413-6.1931239-15.707-6.293zm14 7.438v3.532c-2.558-1.828-7.722-4.97-13-4.97-3.0864247.0611698-6.0865173 1.029783-8.626 2.785-.806522.4910805-1.6390773.9380699-2.494 1.339.0754306-.3700326.1156104-.746383.12-1.124-.0056864-.4034499-.0509026-.8053713-.135-1.2 1.4454867-1.5400385 2.773853-3.1859559 3.974-4.924 2.0008823-.5866306 4.075902-.8816667 6.161-.876 5.1579968.1247535 10.1101911 2.0483272 14 5.438zm-35.288-1.269c-.246-.736-.492-1.536-.75-2.444-.5134679-2.1383039-1.9416381-3.9424431-3.905-4.933-3.391-1.665-8.517-1.111-16.057 1.745v-2.413c.581-.985 4.939-4.124 10-4.124 7.32 0 9.582 1.283 14.232 8.072.224.328.458.676.7 1.03-1.7998753.3274006-3.3529263 1.4561228-4.22 3.067zm5.288-1.169c.2053088.0000683.4102874.0164532.613.049.3660901.055968.7227571.1619587 1.06.315.2904022.1310954.5626547.2991524.81.5.6265699.4960487 1.0927251 1.1660597 1.34 1.926.115642.3929954.1752299.8003473.177 1.21-.0018556.7855856-.2310811 1.5538383-.66 2.212-.9384955 1.4208082-2.6735983 2.0917261-4.3238162 1.6719041-1.650218-.4198219-2.8537594-1.8383424-2.9991838-3.5349041-.008-.117-.017-.232-.017-.349 0-2.209139 1.790861-4 4-4zm5.262-2.709c4.47-5.797 6.738-11.951 6.738-18.291-.0427121-4.3000135-.699686-8.57185926-1.951-12.686-.1712083-.52605122.1164488-1.09129173.6425-1.2625s1.0912917.11644878 1.2625.6425c1.3114683 4.3154283 2.0004126 8.7959232 2.046 13.306-.0652035 6.2540017-2.023929 12.341461-5.618 17.46-1.0177822 1.5036397-2.1366999 2.9362821-3.349 4.288-.3487637-.5467517-.7852841-1.0322624-1.292-1.437l-.012-.008-.012-.012c-.024-.02-.052-.036-.076-.055.567-.636 1.117-1.291 1.621-1.945zm-1.938-32.286c1.288 3.386 6.867 20.116-4.084 30.021-4.605-6.485-7.657-8.026-15.24-8.026-3.45823835.0658589-6.81940444 1.1550451-9.659 3.13 1.165-7.053 6.342-24.779 28.983-25.125zm24.336 51.68c-.2074251.3532536-.5199658.6329321-.894.8-2.366 1.06-9.219 3.515-21.766 3.515-11.388 0-17.569-2.013-20.239-3.213-.5596965-.2494064-.9724749-.7437806-1.118-1.339l-1.543-6.173c-.12899314-.509199-.38972541-.9754821-.756-1.352-3.10404537-3.2624937-5.51607932-7.1191628-7.091-11.338 7.141-2.759 12.034-3.416 14.923-2 1.4546203.7419899 2.5035352 2.0928985 2.862 3.686.4640971 1.8985253 1.1452493 3.7373007 2.03 5.48.29748 2.4144248 2.0283754 4.4077824 4.3772141 5.0409476s4.8471005-.2201587 6.3177859-2.1579476c1.6356809-.4869824 3.1939073-1.203807 4.628-2.129 2.185-1.287 4.25-2.505 7.609-2.505 5.672 0 11.491 4.286 12.98 5.461-.0773485 2.8916159-.8747511 5.7182704-2.32 8.224z"/></g></g></svg>