<?xml version="1.0" encoding="UTF-8" standalone="no"?>
<!DOCTYPE svg PUBLIC "-//W3C//DTD SVG 1.1//EN" "http://www.w3.org/Graphics/SVG/1.1/DTD/svg11.dtd">
<svg version="1.1" xmlns="http://www.w3.org/2000/svg" xmlns:xlink="http://www.w3.org/1999/xlink" preserveAspectRatio="xMidYMid meet" viewBox="-1.0000233269373426 -1.0258590146559987 63.99999690350407 64" width="60" height="60"><defs><path d="M39.24 -0.02L39.35 0L39.47 0.01L39.58 0.03L39.7 0.06L39.81 0.09L39.92 0.12L40.03 0.16L40.13 0.2L40.24 0.24L40.34 0.29L40.45 0.35L40.55 0.4L40.64 0.47L40.74 0.53L40.83 0.6L40.92 0.67L41.01 0.75L41.1 0.83L41.18 0.91L41.26 1L41.33 1.09L41.4 1.18L41.47 1.27L41.54 1.37L41.6 1.48L41.66 1.58L41.71 1.69L41.76 1.8L41.81 1.91L41.85 2.03L41.95 2.37L42.05 2.71L42.15 3.05L42.25 3.39L42.34 3.73L42.43 4.08L42.52 4.42L42.6 4.76L42.69 5.11L42.77 5.45L42.84 5.8L42.92 6.14L42.99 6.49L43.06 6.84L43.13 7.18L43.2 7.53L43.26 7.88L43.32 8.23L43.38 8.58L43.43 8.93L43.48 9.28L43.53 9.63L43.58 9.98L43.63 10.33L43.67 10.68L43.71 11.03L43.75 11.38L43.78 11.73L43.81 12.09L43.84 12.44L43.87 12.79L43.9 13.14L43.92 13.5L43.94 13.85L43.95 14.21L43.97 14.56L43.98 14.91L43.99 15.27L44 15.62L44 15.98L43.99 16.41L43.98 16.85L43.97 17.28L43.94 17.71L43.91 18.15L43.88 18.58L43.84 19.01L43.79 19.44L43.74 19.87L43.68 20.3L43.62 20.72L43.55 21.15L43.48 21.58L43.39 22L43.31 22.42L43.22 22.85L43.12 23.27L43.02 23.68L42.91 24.1L42.79 24.52L42.67 24.93L42.55 25.35L42.42 25.76L42.28 26.17L42.14 26.57L41.99 26.98L41.84 27.38L41.68 27.79L41.52 28.19L41.35 28.58L41.18 28.98L41 29.37L40.81 29.76L40.62 30.15L40.42 30.54L40.22 30.92L40.02 31.31L39.81 31.68L39.59 32.06L39.37 32.44L39.48 32.41L39.6 32.39L39.71 32.37L39.83 32.35L39.94 32.33L40.06 32.31L40.17 32.29L40.29 32.27L40.4 32.25L40.52 32.24L40.63 32.22L40.75 32.2L40.86 32.19L40.98 32.17L41.09 32.16L41.21 32.14L41.32 32.13L41.44 32.12L41.56 32.11L41.67 32.09L41.79 32.08L41.9 32.07L42.02 32.06L42.14 32.05L42.25 32.04L42.37 32.03L42.49 32.03L42.6 32.02L42.72 32.01L42.83 32.01L42.95 32L43.07 32L43.18 31.99L43.3 31.99L43.42 31.98L43.53 31.98L43.65 31.98L43.77 31.98L43.88 31.98L44 31.98L44.44 31.99L44.87 32.01L45.31 32.03L45.74 32.07L46.17 32.11L46.6 32.16L47.03 32.22L47.46 32.29L47.89 32.36L48.31 32.44L48.73 32.53L49.15 32.63L49.57 32.74L49.99 32.85L50.4 32.97L50.81 33.1L51.22 33.23L51.63 33.37L52.03 33.52L52.43 33.68L52.83 33.84L53.23 34.01L53.62 34.19L54.01 34.37L54.39 34.57L54.77 34.77L55.15 34.97L55.53 35.18L55.9 35.4L56.26 35.63L56.63 35.86L56.99 36.11L57.34 36.35L57.69 36.61L58.04 36.87L58.38 37.13L58.72 37.41L59.05 37.69L59.38 37.97L59.71 38.27L59.72 38.28L59.73 38.3L59.75 38.31L59.76 38.33L59.77 38.34L59.79 38.36L59.8 38.37L59.81 38.39L59.82 38.4L59.83 38.42L59.84 38.44L59.85 38.45L59.86 38.47L59.87 38.49L59.88 38.5L59.89 38.52L59.9 38.54L59.91 38.56L59.92 38.57L59.92 38.59L59.93 38.61L59.94 38.63L59.94 38.65L59.95 38.67L59.96 38.68L59.96 38.7L59.97 38.72L59.97 38.74L59.98 38.76L59.98 38.78L59.98 38.8L59.99 38.82L59.99 38.84L59.99 38.86L60 38.88L60 38.9L60 38.92L60 38.94L60 38.96L60 38.98L60 44.97L60 45.23L59.99 45.49L59.98 45.74L59.97 46L59.96 46.25L59.94 46.5L59.92 46.76L59.89 47.01L59.86 47.26L59.83 47.51L59.79 47.77L59.76 48.02L59.71 48.27L59.67 48.52L59.62 48.76L59.57 49.01L59.51 49.26L59.46 49.51L59.4 49.75L59.33 50L59.26 50.24L59.19 50.49L59.12 50.73L59.04 50.97L58.96 51.21L58.88 51.45L58.79 51.69L58.7 51.92L58.61 52.16L58.51 52.4L58.41 52.63L58.31 52.86L58.21 53.09L58.1 53.32L57.98 53.55L57.87 53.78L57.75 54.01L57.63 54.23L57.51 54.45L57.38 54.68L57.35 54.73L57.32 54.78L57.28 54.83L57.25 54.88L57.21 54.94L57.18 54.99L57.14 55.04L57.11 55.08L57.07 55.13L57.03 55.18L56.99 55.23L56.95 55.27L56.91 55.32L56.87 55.37L56.83 55.41L56.78 55.45L56.74 55.5L56.7 55.54L56.65 55.58L56.61 55.62L56.56 55.66L56.51 55.7L56.47 55.74L56.42 55.78L56.37 55.82L56.32 55.86L56.27 55.89L56.22 55.93L56.17 55.96L56.12 56L56.07 56.03L56.02 56.06L55.96 56.09L55.91 56.12L55.86 56.15L55.8 56.18L55.75 56.21L55.69 56.24L55.64 56.26L55.58 56.29L55.39 56.38L55.17 56.47L54.94 56.56L54.69 56.66L54.43 56.77L54.14 56.87L53.84 56.99L53.52 57.1L53.18 57.22L52.82 57.33L52.45 57.45L52.05 57.57L51.64 57.7L51.21 57.82L50.76 57.94L50.29 58.07L49.8 58.19L49.29 58.31L48.76 58.43L48.21 58.55L47.64 58.66L47.05 58.78L46.45 58.89L45.82 59L45.17 59.1L44.51 59.2L43.82 59.3L43.11 59.39L42.38 59.47L41.64 59.55L40.87 59.63L40.08 59.7L39.27 59.76L38.43 59.81L37.58 59.86L36.71 59.9L35.81 59.93L34.9 59.96L33.96 59.97L33 59.97L32.13 59.97L31.28 59.96L30.44 59.94L29.63 59.91L28.83 59.88L28.06 59.84L27.3 59.8L26.56 59.74L25.84 59.69L25.14 59.62L24.46 59.55L23.8 59.48L23.15 59.4L22.52 59.32L21.91 59.24L21.32 59.15L20.74 59.05L20.18 58.96L19.64 58.86L19.12 58.75L18.61 58.65L18.12 58.54L17.64 58.43L17.18 58.33L16.74 58.21L16.31 58.1L15.9 57.99L15.51 57.88L15.13 57.76L14.76 57.65L14.42 57.54L14.08 57.42L13.76 57.31L13.46 57.2L13.17 57.09L12.9 56.99L12.63 56.88L12.39 56.78L12.16 56.68L11.94 56.59L11.85 56.55L11.77 56.51L11.69 56.46L11.61 56.42L11.53 56.38L11.45 56.33L11.38 56.28L11.3 56.23L11.23 56.18L11.16 56.12L11.09 56.07L11.02 56.01L10.95 55.95L10.88 55.89L10.82 55.83L10.75 55.77L10.69 55.71L10.63 55.64L10.57 55.57L10.51 55.5L10.45 55.44L10.4 55.36L10.34 55.29L10.29 55.22L10.24 55.15L10.19 55.07L10.15 54.99L10.1 54.92L10.06 54.84L10.02 54.76L9.98 54.68L9.94 54.59L9.9 54.51L9.87 54.43L9.83 54.34L9.8 54.26L9.77 54.17L9.75 54.08L9.72 54L9.7 53.91L8.15 47.73L8.15 47.72L8.15 47.71L8.14 47.7L8.14 47.68L8.14 47.67L8.13 47.66L8.13 47.65L8.12 47.63L8.12 47.62L8.11 47.61L8.11 47.6L8.1 47.59L8.1 47.57L8.09 47.56L8.09 47.55L8.08 47.54L8.08 47.53L8.07 47.52L8.06 47.5L8.06 47.49L8.05 47.48L8.04 47.47L8.04 47.46L8.03 47.45L8.02 47.44L8.02 47.43L8.01 47.42L8 47.41L7.99 47.4L7.99 47.39L7.98 47.37L7.97 47.36L7.96 47.35L7.95 47.34L7.94 47.33L7.94 47.32L7.93 47.32L7.92 47.31L7.91 47.3L7.9 47.29L7.63 47.01L7.37 46.73L7.11 46.44L6.86 46.15L6.6 45.86L6.36 45.57L6.11 45.28L5.87 44.98L5.63 44.68L5.39 44.37L5.16 44.07L4.93 43.76L4.71 43.45L4.49 43.14L4.27 42.82L4.06 42.5L3.85 42.18L3.64 41.86L3.44 41.54L3.24 41.21L3.04 40.88L2.85 40.55L2.66 40.22L2.48 39.88L2.3 39.54L2.12 39.2L1.94 38.86L1.77 38.52L1.61 38.17L1.45 37.82L1.29 37.48L1.13 37.12L0.98 36.77L0.84 36.42L0.7 36.06L0.56 35.7L0.42 35.34L0.29 34.98L0.16 34.61L0.04 34.25L0.04 34.24L0.04 34.23L0.03 34.22L0.03 34.21L0.03 34.2L0.03 34.19L0.02 34.18L0.02 34.16L0.02 34.15L0.02 34.14L0.01 34.13L0.01 34.12L0.01 34.11L0.01 34.1L0.01 34.09L0.01 34.08L0.01 34.07L0 34.06L0 34.04L0 34.04L0 34.02L0 34.01L0 34L0 33.99L0 33.98L0 29.98L0 29.95L0 29.93L0 29.93L0 29.91L0 29.89L0 29.87L0 29.86L0.01 29.85L0.01 29.83L0.01 29.81L0.01 29.8L0.01 29.78L0.02 29.76L0.02 29.74L0.03 29.6L0.04 29.37L0.07 29.04L0.11 28.63L0.17 28.13L0.25 27.56L0.34 26.92L0.47 26.21L0.61 25.44L0.79 24.61L1 23.73L1.24 22.81L1.52 21.85L1.84 20.85L2.2 19.83L2.6 18.77L3.05 17.7L3.55 16.62L4.1 15.53L4.7 14.43L5.36 13.34L6.08 12.26L6.87 11.18L7.71 10.13L8.62 9.1L9.6 8.09L10.66 7.12L11.78 6.19L12.99 5.31L14.27 4.47L15.63 3.69L17.08 2.96L18.62 2.31L20.24 1.72L21.96 1.21L23.77 0.78L25.67 0.44L27.68 0.18L29.79 0.03L32 -0.02L32.03 -0.02L32.06 -0.02L32.09 -0.02L32.12 -0.02L32.15 -0.01L32.18 -0.01L32.2 0L32.23 0L32.26 0.01L32.29 0.02L32.32 0.03L32.34 0.04L32.37 0.05L32.4 0.06L32.42 0.07L32.45 0.08L32.47 0.1L32.5 0.11L32.52 0.13L32.55 0.14L32.57 0.16L32.59 0.17L32.62 0.19L32.64 0.21L32.66 0.23L32.68 0.25L32.7 0.27L32.72 0.29L32.74 0.31L32.76 0.33L32.78 0.35L32.8 0.37L32.82 0.4L32.83 0.42L32.85 0.45L32.86 0.47L32.88 0.5L32.89 0.52L32.9 0.55L32.92 0.58L32.94 0.63L32.99 0.76L33.07 0.96L33.18 1.23L33.3 1.57L33.45 1.97L33.61 2.44L33.78 2.96L33.96 3.53L34.15 4.16L34.34 4.84L34.53 5.56L34.72 6.33L34.9 7.15L35.08 7.99L35.25 8.88L35.4 9.8L35.54 10.75L35.65 11.73L35.75 12.73L35.81 13.75L35.85 14.79L35.86 15.85L35.84 16.92L35.77 18.01L35.67 19.1L35.52 20.2L35.33 21.29L35.09 22.39L34.8 23.49L34.45 24.58L34.05 25.66L33.58 26.73L33.05 27.78L32.46 28.82L31.79 29.84L31.05 30.83L30.24 31.8L29.35 32.75L28.38 33.66L28.43 33.73L28.45 33.76L28.48 33.8L28.52 33.87L28.55 33.91L28.57 33.94L28.62 34.02L28.65 34.05L28.67 34.09L28.72 34.16L28.77 34.24L28.79 34.27L28.82 34.31L28.84 34.35L28.89 34.42L28.94 34.5L28.99 34.57L29.02 34.61L29.04 34.65L29.07 34.69L29.09 34.73L29.12 34.76L29.14 34.8L29.17 34.84L29.19 34.88L29.22 34.92L29.25 34.96L29.27 34.99L29.3 35.03L29.32 35.07L29.35 35.11L29.37 35.15L29.4 35.16L29.45 35.17L29.5 35.18L29.54 35.19L29.57 35.2L29.59 35.2L29.61 35.21L29.63 35.21L29.65 35.22L29.67 35.22L29.69 35.23L29.7 35.23L29.72 35.24L29.74 35.24L29.77 35.25L29.78 35.25L29.8 35.26L29.81 35.26L29.86 35.21L29.91 35.15L29.96 35.1L30.01 35.04L30.06 34.99L30.1 34.93L30.15 34.88L30.2 34.82L30.25 34.77L30.3 34.71L30.35 34.66L30.4 34.6L30.44 34.55L30.49 34.49L30.54 34.44L30.59 34.38L30.63 34.33L30.68 34.27L30.73 34.22L30.78 34.16L30.82 34.1L30.87 34.05L30.92 33.99L30.96 33.94L31.01 33.88L31.05 33.83L31.1 33.77L31.15 33.72L31.19 33.66L31.24 33.6L31.28 33.55L31.33 33.49L31.37 33.44L31.42 33.38L31.46 33.33L31.5 33.27L31.55 33.21L31.59 33.16L31.63 33.1L31.68 33.05L31.99 32.64L32.29 32.23L32.59 31.82L32.87 31.41L33.15 30.99L33.43 30.58L33.69 30.16L33.95 29.75L34.19 29.33L34.44 28.91L34.67 28.49L34.89 28.07L35.11 27.65L35.32 27.23L35.52 26.81L35.72 26.38L35.9 25.96L36.08 25.53L36.25 25.11L36.41 24.68L36.57 24.25L36.71 23.82L36.85 23.39L36.98 22.96L37.11 22.53L37.22 22.1L37.33 21.67L37.43 21.23L37.52 20.8L37.6 20.36L37.68 19.93L37.75 19.49L37.8 19.05L37.86 18.62L37.9 18.18L37.94 17.74L37.96 17.3L37.98 16.86L38 16.42L38 15.98L38 15.67L37.99 15.36L37.98 15.06L37.97 14.75L37.96 14.45L37.94 14.14L37.92 13.84L37.9 13.53L37.88 13.22L37.86 12.92L37.83 12.62L37.8 12.31L37.77 12.01L37.74 11.7L37.71 11.4L37.67 11.1L37.63 10.79L37.59 10.49L37.55 10.19L37.5 9.89L37.45 9.58L37.4 9.28L37.35 8.98L37.3 8.68L37.24 8.38L37.19 8.08L37.12 7.78L37.06 7.48L37 7.18L36.93 6.88L36.86 6.58L36.79 6.29L36.72 5.99L36.64 5.69L36.57 5.4L36.49 5.1L36.41 4.81L36.32 4.51L36.24 4.22L36.15 3.92L36.11 3.81L36.08 3.69L36.05 3.57L36.03 3.45L36.02 3.33L36 3.21L36 3.09L35.99 2.98L36 2.86L36 2.74L36.02 2.62L36.03 2.51L36.05 2.4L36.08 2.28L36.11 2.17L36.14 2.06L36.18 1.95L36.22 1.84L36.26 1.74L36.31 1.63L36.37 1.53L36.43 1.43L36.49 1.33L36.55 1.24L36.62 1.14L36.69 1.05L36.77 0.97L36.85 0.88L36.93 0.8L37.02 0.72L37.11 0.65L37.2 0.57L37.3 0.5L37.39 0.44L37.5 0.38L37.6 0.32L37.71 0.27L37.82 0.22L37.94 0.17L38.05 0.13L38.17 0.09L38.29 0.06L38.41 0.03L38.53 0.01L38.65 0L38.76 -0.02L38.88 -0.02L39 -0.03L39.12 -0.02L39.24 -0.02ZM12.34 31.88L11.83 31.93L11.31 31.99L10.77 32.07L10.21 32.17L9.64 32.28L9.05 32.41L8.45 32.55L7.83 32.71L7.19 32.88L6.54 33.08L5.86 33.28L5.18 33.51L4.47 33.75L3.75 34L3.01 34.27L2.25 34.56L2.42 35.01L2.6 35.46L2.79 35.9L2.98 36.35L3.18 36.78L3.38 37.22L3.59 37.65L3.8 38.08L4.03 38.51L4.25 38.93L4.49 39.35L4.73 39.77L4.97 40.18L5.23 40.59L5.48 40.99L5.75 41.39L6.01 41.79L6.29 42.19L6.57 42.58L6.86 42.96L7.15 43.34L7.45 43.72L7.75 44.09L8.06 44.46L8.37 44.83L8.69 45.19L9.01 45.55L9.34 45.9L9.38 45.94L9.42 45.98L9.46 46.02L9.49 46.06L9.53 46.11L9.56 46.15L9.6 46.2L9.63 46.24L9.66 46.29L9.69 46.33L9.73 46.38L9.75 46.43L9.78 46.48L9.81 46.52L9.84 46.57L9.86 46.62L9.89 46.67L9.91 46.72L9.94 46.77L9.96 46.82L9.98 46.88L10 46.93L10.02 46.98L10.04 47.03L10.05 47.09L10.07 47.14L10.09 47.2L10.1 47.25L11.64 53.42L11.66 53.49L11.68 53.55L11.7 53.61L11.72 53.67L11.75 53.73L11.77 53.79L11.8 53.85L11.83 53.9L11.86 53.96L11.9 54.02L11.93 54.07L11.97 54.12L12.01 54.17L12.05 54.22L12.09 54.27L12.13 54.32L12.18 54.36L12.22 54.41L12.27 54.45L12.32 54.49L12.37 54.53L12.42 54.57L12.48 54.61L12.53 54.64L12.59 54.67L12.64 54.7L12.7 54.73L12.76 54.76L13.06 54.89L13.39 55.03L13.74 55.17L14.13 55.32L14.54 55.47L14.98 55.62L15.45 55.77L15.95 55.92L16.48 56.08L17.04 56.23L17.64 56.38L18.26 56.53L18.92 56.68L19.61 56.82L20.34 56.96L21.09 57.09L21.89 57.21L22.71 57.33L23.58 57.44L24.47 57.55L25.41 57.64L26.38 57.72L27.39 57.8L28.43 57.86L29.52 57.91L30.64 57.94L31.8 57.97L33 57.97L34.32 57.97L35.6 57.94L36.84 57.89L38.03 57.84L39.18 57.76L40.29 57.67L41.36 57.57L42.39 57.46L43.37 57.34L44.32 57.21L45.22 57.07L46.09 56.92L46.91 56.77L47.7 56.61L48.45 56.45L49.16 56.29L49.83 56.12L50.46 55.95L51.05 55.79L51.61 55.62L52.13 55.46L52.61 55.3L53.06 55.14L53.47 54.99L53.85 54.84L54.19 54.71L54.5 54.58L54.77 54.46L54.81 54.44L54.85 54.42L54.88 54.4L54.92 54.38L54.96 54.36L55 54.34L55.03 54.31L55.07 54.29L55.11 54.26L55.14 54.24L55.18 54.21L55.21 54.19L55.24 54.16L55.28 54.13L55.31 54.1L55.34 54.07L55.37 54.04L55.4 54.01L55.43 53.98L55.46 53.94L55.49 53.91L55.51 53.88L55.54 53.84L55.56 53.81L55.59 53.77L55.61 53.73L55.64 53.7L55.66 53.66L55.81 53.39L55.96 53.12L56.1 52.84L56.24 52.57L56.37 52.29L56.5 52.01L56.62 51.72L56.74 51.44L56.85 51.15L56.96 50.86L57.06 50.57L57.16 50.28L57.25 49.99L57.33 49.69L57.41 49.4L57.49 49.1L57.56 48.8L57.62 48.5L57.68 48.2L57.74 47.89L57.79 47.59L57.83 47.28L57.87 46.98L57.9 46.67L57.93 46.36L57.95 46.05L57.97 45.75L57.98 45.44L57.8 45.3L57.6 45.14L57.36 44.96L57.09 44.76L56.79 44.55L56.47 44.32L56.12 44.09L55.75 43.84L55.35 43.58L54.93 43.32L54.49 43.06L54.03 42.79L53.55 42.53L53.06 42.26L52.55 42.01L52.02 41.75L51.48 41.51L50.93 41.28L50.37 41.06L49.79 40.85L49.21 40.66L48.62 40.49L48.03 40.34L47.43 40.22L46.82 40.11L46.22 40.04L45.61 39.99L45 39.98L44.64 39.98L44.3 39.99L43.96 40.02L43.64 40.05L43.32 40.09L43 40.13L42.7 40.19L42.4 40.25L42.12 40.31L41.83 40.39L41.55 40.47L41.28 40.56L41.02 40.65L40.76 40.74L40.5 40.85L40.25 40.95L40 41.06L39.75 41.18L39.51 41.3L39.27 41.42L39.03 41.55L38.79 41.67L38.56 41.8L38.32 41.94L38.09 42.07L37.86 42.21L37.62 42.34L37.39 42.48L37.24 42.58L37.08 42.68L36.93 42.77L36.77 42.86L36.61 42.96L36.45 43.05L36.29 43.13L36.13 43.22L35.97 43.31L35.81 43.39L35.65 43.47L35.48 43.55L35.32 43.63L35.15 43.71L34.99 43.78L34.82 43.86L34.65 43.93L34.48 44L34.31 44.07L34.14 44.14L33.97 44.2L33.8 44.26L33.63 44.33L33.46 44.39L33.29 44.44L33.11 44.5L32.94 44.56L32.76 44.61L32.6 44.81L32.43 45.01L32.26 45.19L32.07 45.37L31.88 45.54L31.69 45.7L31.49 45.85L31.28 45.99L31.07 46.13L30.85 46.25L30.63 46.37L30.4 46.47L30.17 46.57L29.93 46.65L29.7 46.73L29.45 46.79L29.21 46.85L28.97 46.89L28.72 46.93L28.47 46.95L28.22 46.97L27.96 46.97L27.71 46.97L27.46 46.95L27.2 46.92L26.95 46.88L26.7 46.83L26.45 46.77L26.2 46.69L25.95 46.61L25.71 46.52L25.48 46.41L25.25 46.3L25.03 46.18L24.81 46.05L24.6 45.91L24.4 45.77L24.2 45.61L24.01 45.45L23.83 45.28L23.65 45.1L23.49 44.91L23.33 44.72L23.18 44.52L23.03 44.32L22.9 44.11L22.77 43.89L22.65 43.67L22.55 43.44L22.45 43.21L22.36 42.97L22.28 42.73L22.21 42.49L22.15 42.24L22.11 41.98L22.07 41.73L21.97 41.54L21.88 41.35L21.79 41.16L21.7 40.97L21.61 40.78L21.53 40.59L21.44 40.4L21.36 40.21L21.28 40.02L21.2 39.82L21.12 39.63L21.04 39.44L20.97 39.24L20.9 39.04L20.82 38.85L20.75 38.65L20.68 38.45L20.62 38.26L20.55 38.06L20.49 37.86L20.43 37.66L20.37 37.46L20.31 37.26L20.25 37.06L20.19 36.85L20.14 36.65L20.09 36.45L20.04 36.25L20 36.08L19.95 35.91L19.9 35.74L19.84 35.58L19.78 35.42L19.72 35.26L19.64 35.1L19.57 34.95L19.49 34.8L19.4 34.65L19.31 34.5L19.22 34.36L19.12 34.22L19.02 34.08L18.91 33.95L18.8 33.82L18.69 33.69L18.57 33.57L18.44 33.45L18.32 33.34L18.19 33.23L18.05 33.12L17.91 33.01L17.77 32.91L17.63 32.82L17.48 32.73L17.33 32.64L17.18 32.56L16.86 32.42L16.53 32.29L16.18 32.18L15.81 32.08L15.44 32L15.04 31.94L14.63 31.89L14.2 31.86L13.76 31.84L13.3 31.84L12.83 31.85L12.34 31.88ZM25.64 37.75L24.77 38.61L24.2 39.71L24 40.98L24 41.05L24 41.11L24.01 41.18L24.01 41.25L24.02 41.32L24.23 42.3L24.66 43.18L25.29 43.92L26.08 44.49L27.02 44.86L28.01 44.98L28.98 44.86L29.89 44.51L30.69 43.95L31.34 43.19L31.57 42.78L31.76 42.35L31.89 41.9L31.97 41.44L32 40.98L31.99 40.73L31.97 40.49L31.93 40.24L31.89 40L31.82 39.77L31.65 39.32L31.42 38.9L31.15 38.51L30.84 38.16L30.48 37.84L30.33 37.72L30.17 37.61L30.01 37.51L29.84 37.42L29.67 37.34L29.47 37.25L29.26 37.18L29.05 37.12L28.83 37.06L28.61 37.02L28.49 37.01L28.37 36.99L28.25 36.98L28.12 36.98L28 36.98L26.74 37.18L25.64 37.75ZM42.86 34L42.3 34.04L41.73 34.09L41.17 34.15L40.61 34.23L40.05 34.33L39.49 34.44L38.94 34.56L38.39 34.7L37.84 34.85L37.51 35.32L37.17 35.79L36.83 36.25L36.48 36.71L36.12 37.16L35.76 37.61L35.39 38.05L35.02 38.49L34.64 38.92L34.26 39.35L33.86 39.78L33.89 39.88L33.91 39.99L33.93 40.1L33.94 40.21L33.96 40.32L33.97 40.43L33.98 40.54L33.99 40.65L33.99 40.76L34 40.87L34 40.98L34 41.08L33.99 41.18L33.99 41.28L33.98 41.39L33.97 41.49L33.96 41.59L33.95 41.69L33.93 41.79L33.92 41.9L33.9 42L33.88 42.1L34.11 41.99L34.34 41.88L34.57 41.76L34.8 41.64L35.03 41.52L35.26 41.4L35.48 41.28L35.71 41.15L35.93 41.02L36.15 40.89L36.37 40.76L37.08 40.3L37.8 39.88L38.55 39.5L39.31 39.16L40.09 38.87L40.88 38.61L41.69 38.4L42.5 38.23L43.33 38.1L44.16 38.01L45 37.98L46.43 38.05L47.85 38.26L49.24 38.59L50.59 39.01L51.89 39.5L53.13 40.06L54.3 40.64L55.38 41.25L56.36 41.84L57.24 42.42L58 42.95L58 39.41L56.91 38.53L55.78 37.71L54.6 36.97L53.38 36.31L52.12 35.73L50.83 35.23L49.5 34.81L48.16 34.47L46.79 34.22L45.4 34.05L44 33.98L43.43 33.98L42.86 34ZM9.54 26.21L8.38 26.48L7.29 26.83L6.26 27.23L5.32 27.67L4.47 28.13L3.73 28.59L3.1 29.04L2.59 29.45L2.22 29.81L2 30.1L2 32.51L3.84 31.85L5.57 31.28L7.21 30.8L8.76 30.42L10.22 30.14L11.58 29.94L12.87 29.85L14.06 29.85L15.18 29.94L16.21 30.12L17.17 30.4L18.06 30.77L18.54 31.03L18.99 31.33L19.42 31.66L19.83 32.01L20.2 32.39L20.55 32.8L20.87 33.24L21.16 33.69L21.41 34.17L21.63 34.66L21.81 35.17L21.96 35.7L22.03 35.93L22.09 36.15L22.15 36.36L22.22 36.57L22.28 36.78L22.34 36.99L22.4 37.19L22.47 37.39L22.53 37.58L22.59 37.77L22.65 37.96L22.71 38.14L22.94 37.75L23.2 37.38L23.48 37.03L23.79 36.71L24.12 36.4L24.47 36.13L24.84 35.88L25.23 35.66L25.64 35.47L26.05 35.31L26.49 35.18L26.93 35.08L26.87 34.99L26.81 34.9L26.75 34.81L26.69 34.73L26.63 34.64L26.58 34.55L26.52 34.47L26.46 34.38L26.4 34.3L26.34 34.21L26.29 34.13L26.23 34.05L25.11 32.46L24.07 31.09L23.08 29.92L22.1 28.94L21.12 28.12L20.12 27.47L19.05 26.95L17.91 26.56L16.66 26.28L15.27 26.1L13.73 26.01L12 25.98L10.75 26.04L9.54 26.21ZM38.8 2L38.69 2.03L38.59 2.07L38.49 2.12L38.41 2.18L38.33 2.24L38.25 2.32L38.19 2.4L38.13 2.48L38.09 2.57L38.05 2.67L38.02 2.77L38.01 2.87L38 2.97L38 3.08L38.02 3.19L38.05 3.29L38.29 4.12L38.52 4.94L38.73 5.78L38.92 6.61L39.1 7.45L39.26 8.3L39.41 9.14L39.54 9.99L39.66 10.84L39.75 11.69L39.84 12.54L39.9 13.4L39.95 14.26L39.98 15.12L40 15.98L39.97 17.24L39.88 18.5L39.73 19.76L39.52 21.01L39.25 22.25L38.92 23.48L38.52 24.71L38.07 25.94L37.56 27.15L37 28.36L36.37 29.56L35.68 30.75L34.93 31.93L34.13 33.1L33.26 34.27L33.16 34.4L33.06 34.53L32.95 34.66L32.85 34.79L32.74 34.92L32.64 35.05L32.53 35.18L32.42 35.31L32.31 35.44L32.2 35.57L32.09 35.7L31.98 35.83L31.87 35.96L31.75 36.08L31.64 36.21L31.65 36.22L31.65 36.22L31.66 36.22L31.67 36.23L31.69 36.24L31.7 36.25L31.7 36.25L31.71 36.26L31.71 36.26L31.72 36.27L31.73 36.28L31.74 36.29L31.84 36.37L31.94 36.45L32.04 36.54L32.13 36.63L32.22 36.72L32.31 36.81L32.4 36.9L32.49 37L32.57 37.1L32.66 37.2L32.74 37.3L32.81 37.4L32.89 37.51L32.96 37.61L33.03 37.72L33.27 37.45L33.51 37.18L33.75 36.9L33.98 36.62L34.21 36.35L34.44 36.06L34.67 35.78L34.89 35.49L35.11 35.21L35.33 34.92L35.55 34.62L35.76 34.33L35.97 34.03L36.18 33.74L36.38 33.44L37.08 32.4L37.73 31.34L38.34 30.25L38.9 29.15L39.42 28.02L39.89 26.88L40.32 25.72L40.7 24.54L41.03 23.35L41.31 22.14L41.55 20.93L41.74 19.7L41.87 18.47L41.96 17.22L42 15.98L41.98 15.07L41.95 14.17L41.9 13.28L41.83 12.38L41.74 11.48L41.64 10.59L41.52 9.7L41.38 8.81L41.23 7.92L41.06 7.04L40.87 6.16L40.67 5.28L40.45 4.41L40.21 3.54L39.95 2.67L39.91 2.57L39.87 2.47L39.81 2.39L39.74 2.31L39.67 2.23L39.59 2.17L39.5 2.11L39.41 2.07L39.31 2.03L39.21 2L39.11 1.99L39.01 1.98L38.9 1.98L38.8 2ZM25.04 2.58L22.27 3.22L19.73 4.05L17.41 5.06L15.3 6.23L13.39 7.53L11.68 8.94L10.14 10.45L8.78 12.03L7.58 13.66L6.53 15.32L5.62 16.98L4.84 18.63L4.18 20.25L3.63 21.82L3.18 23.31L2.82 24.7L2.55 25.97L2.34 27.11L2.77 26.82L3.21 26.54L3.65 26.28L4.1 26.03L4.56 25.79L5.03 25.57L5.5 25.36L5.97 25.17L6.45 24.99L6.94 24.83L7.43 24.67L7.92 24.54L8.42 24.42L8.93 24.31L9.43 24.22L9.94 24.14L10.45 24.07L10.97 24.03L11.48 23.99L12 23.98L13.1 23.99L14.15 24.03L15.13 24.09L16.05 24.19L16.93 24.32L17.77 24.48L18.56 24.69L19.31 24.93L20.04 25.22L20.74 25.56L21.41 25.94L22.07 26.38L22.71 26.86L23.35 27.41L23.98 28.01L24.61 28.68L25.25 29.41L25.9 30.2L26.56 31.07L27.24 32L28.76 30.47L30.05 28.85L31.12 27.15L31.99 25.4L32.68 23.61L33.19 21.79L33.56 19.96L33.78 18.13L33.88 16.32L33.87 14.55L33.77 12.82L33.6 11.16L33.36 9.58L33.08 8.09L32.77 6.71L32.45 5.45L32.12 4.34L31.82 3.38L31.55 2.59L31.32 1.98L28.06 2.16L25.04 2.58Z" id="ctvu1qanX"></path></defs><g><g><use xlink:href="#ctvu1qanX" opacity="1" fill="#1f398d" fill-opacity="1"></use><g><use xlink:href="#ctvu1qanX" opacity="1" fill-opacity="0" stroke="#000000" stroke-width="1" stroke-opacity="0"></use></g></g></g></svg>