<?xml version="1.0"?>
<svg xmlns="http://www.w3.org/2000/svg" viewBox="0 0 512 512" width="512" height="512"><g id="outline"><path d="M384,16H128A56.063,56.063,0,0,0,72,72V288H64a24.028,24.028,0,0,0-24,24v77.255a42.8,42.8,0,0,0,24.759,38.763l6.39,25.564A55.92,55.92,0,0,0,125.478,496H382.736a56.26,56.26,0,0,0,52.434-36.337L447,428.129a42.794,42.794,0,0,0,25-38.874V312a24.028,24.028,0,0,0-24-24h-8V72A56.063,56.063,0,0,0,384,16Zm0,16a40.045,40.045,0,0,1,40,40V288h-8a24.028,24.028,0,0,0-24,24v48a24.042,24.042,0,0,1-17.034,22.966A23.932,23.932,0,0,0,376,376V264a23.869,23.869,0,0,0-1.57-8.524A40.059,40.059,0,0,0,408,216V88a71.883,71.883,0,0,0-26.815-56ZM248,448V400h16v48Zm-88-64a8.009,8.009,0,0,1-8-8v-8H360v8a8.009,8.009,0,0,1-8,8ZM176,32a16.019,16.019,0,0,1,16,16V96H176a40.045,40.045,0,0,0-40,40v80a39.788,39.788,0,0,0,8.022,24H144a24.027,24.027,0,0,1-24-24V88A56.063,56.063,0,0,1,176,32ZM392,88V216a24.027,24.027,0,0,1-24,24h-.022A39.788,39.788,0,0,0,376,216V136a40.045,40.045,0,0,0-40-40H320V48a16.019,16.019,0,0,1,16-16A56.063,56.063,0,0,1,392,88ZM184,352V256h.626l21.45,38.61-3.733,3.733a8,8,0,0,0,0,11.314L224,331.314V352Zm80-32H248V304h16Zm16-3.313V296a8,8,0,0,0-8-8H240a8,8,0,0,0-8,8v20.687L219.313,304,256,267.313,292.687,304ZM328,216h-8a8.009,8.009,0,0,1-8-8V144h8a8.009,8.009,0,0,1,8,8Zm-66.343,34.343a8,8,0,0,0-11.314,0L238.985,261.7l-14.95-26.911a197.717,197.717,0,0,1,63.93,0L273.015,261.7Zm34.521-30.337a213.525,213.525,0,0,0-80.356,0l-1.617-2.912A23.863,23.863,0,0,0,216,208V196.293a196.913,196.913,0,0,1,80,0V208a23.863,23.863,0,0,0,1.8,9.095ZM296,179.994a213.073,213.073,0,0,0-80,0v-23.7a196.913,196.913,0,0,1,80,0ZM200,144v64a8.009,8.009,0,0,1-8,8h-8V152a8.009,8.009,0,0,1,8-8Zm-8,88a23.835,23.835,0,0,0,10.761-2.558l24.458,44.025-9.376,9.377L189.6,232Zm92.781,41.467,24.458-44.025A23.835,23.835,0,0,0,320,232h2.4l-28.247,50.844ZM360,216a24.024,24.024,0,0,1-23.733,23.993l6.726-12.108h0A7.954,7.954,0,0,0,344,224V152a24.027,24.027,0,0,0-24-24V112h16a24.027,24.027,0,0,1,24,24Zm-56-88a8,8,0,0,0-8,8v3.994a213.053,213.053,0,0,0-80,0V136a8,8,0,0,0-8-8V112h96Zm-112,0a24.027,24.027,0,0,0-24,24v72a7.954,7.954,0,0,0,1.009,3.884h0l6.726,12.108A24.024,24.024,0,0,1,152,216V136a24.027,24.027,0,0,1,24-24h16ZM160,256h8v96H152V264A8.009,8.009,0,0,1,160,256Zm80,80h32v16H240Zm48-4.686,21.657-21.657a8,8,0,0,0,0-11.314l-3.733-3.733L327.374,256H328v96H288ZM344,256h8a8.009,8.009,0,0,1,8,8v88H344ZM304,48V96H208V48A31.793,31.793,0,0,0,203.7,32h104.61A31.793,31.793,0,0,0,304,48ZM88,72a40.045,40.045,0,0,1,40-40h2.815A71.883,71.883,0,0,0,104,88V216a40.059,40.059,0,0,0,33.57,39.476A23.869,23.869,0,0,0,136,264V376a23.932,23.932,0,0,0,1.034,6.966A24.042,24.042,0,0,1,120,360V312a24.028,24.028,0,0,0-24-24H88ZM56,312a8.009,8.009,0,0,1,8-8H96a8.009,8.009,0,0,1,8,8v8H56Zm0,77.255V336h48v24a40.045,40.045,0,0,0,40,40h88v48H141.255a23.849,23.849,0,0,1-16.971-7.029l-13.255-13.256A39.742,39.742,0,0,0,82.745,416,26.776,26.776,0,0,1,56,389.255ZM86.671,449.7l-4.428-17.714c.168,0,.334.013.5.013a23.849,23.849,0,0,1,16.971,7.029l13.255,13.256A39.742,39.742,0,0,0,141.255,464h59.55a39.841,39.841,0,0,0,7.217,16H125.478A39.943,39.943,0,0,1,86.671,449.7ZM240,480a24.039,24.039,0,0,1-22.624-16h77.248A24.039,24.039,0,0,1,272,480Zm180.189-25.955A40.187,40.187,0,0,1,382.736,480H303.978a39.841,39.841,0,0,0,7.217-16h59.55a39.742,39.742,0,0,0,28.285-11.716l13.253-13.254a23.826,23.826,0,0,1,16.166-7.01ZM456,389.255A26.776,26.776,0,0,1,429.255,416a39.742,39.742,0,0,0-28.285,11.716L387.717,440.97A23.85,23.85,0,0,1,370.745,448H280V400h88a40.045,40.045,0,0,0,40-40V336h48ZM456,312v8H408v-8a8.009,8.009,0,0,1,8-8h32A8.009,8.009,0,0,1,456,312Z"/><path d="M256,88c17.944,0,32-10.542,32-24s-14.056-24-32-24-32,10.542-32,24S238.056,88,256,88Zm0-32c9.767,0,16,4.738,16,8s-6.233,8-16,8-16-4.738-16-8S246.233,56,256,56Z"/></g></svg>
