<?xml version="1.0" encoding="UTF-8" standalone="no"?>
<!DOCTYPE svg PUBLIC "-//W3C//DTD SVG 1.1//EN" "http://www.w3.org/Graphics/SVG/1.1/DTD/svg11.dtd">
<svg version="1.1" xmlns="http://www.w3.org/2000/svg" xmlns:xlink="http://www.w3.org/1999/xlink" preserveAspectRatio="xMidYMid meet" viewBox="2 -1 58 64.00000000000001" width="54" height="60"><defs><path d="M46.29 0.01L46.57 0.02L46.86 0.05L47.13 0.09L47.41 0.14L47.68 0.2L47.95 0.28L48.21 0.36L48.47 0.45L48.72 0.55L48.97 0.66L49.22 0.78L49.45 0.91L49.69 1.05L49.91 1.2L50.13 1.35L50.35 1.52L50.55 1.69L50.75 1.87L50.95 2.05L51.13 2.25L51.31 2.45L51.48 2.65L51.65 2.87L51.8 3.09L51.95 3.31L52.09 3.55L52.22 3.78L52.34 4.03L52.45 4.28L52.55 4.53L52.64 4.79L52.72 5.05L52.8 5.32L52.86 5.59L52.91 5.87L52.95 6.14L52.98 6.43L52.99 6.71L53 7L53 34L54 34L54.12 34L54.25 34.01L54.37 34.02L54.49 34.04L54.6 34.06L54.72 34.09L54.84 34.12L54.95 34.15L55.06 34.19L55.17 34.24L55.27 34.28L55.38 34.34L55.48 34.39L55.58 34.45L55.68 34.51L55.77 34.58L55.86 34.65L55.95 34.72L56.04 34.8L56.12 34.88L56.2 34.96L56.28 35.05L56.35 35.14L56.42 35.23L56.49 35.32L56.55 35.42L56.61 35.52L56.66 35.62L56.72 35.73L56.76 35.83L56.81 35.94L56.85 36.05L56.88 36.16L56.91 36.28L56.94 36.4L56.96 36.51L56.98 36.63L56.99 36.75L57 36.88L57 37L57 46.66L57 46.81L56.99 46.97L56.98 47.12L56.96 47.28L56.94 47.43L56.92 47.58L56.89 47.73L56.86 47.88L56.82 48.03L56.78 48.18L56.73 48.32L56.68 48.46L56.63 48.61L56.57 48.75L56.51 48.88L56.45 49.02L56.38 49.15L56.31 49.29L56.23 49.42L56.15 49.54L56.07 49.67L55.98 49.79L55.89 49.91L55.8 50.03L55.7 50.15L55.6 50.26L55.5 50.37L55.39 50.48L55.28 50.58L55.17 50.68L55.05 50.78L54.93 50.88L54.81 50.97L54.68 51.06L54.56 51.14L54.42 51.23L54.29 51.3L54.16 51.38L54.02 51.45L53.88 51.52L52.4 55.46L52.32 55.66L52.23 55.86L52.14 56.06L52.04 56.25L51.94 56.44L51.83 56.62L51.72 56.8L51.6 56.98L51.47 57.15L51.35 57.32L51.21 57.48L51.08 57.64L50.93 57.79L50.79 57.94L50.64 58.09L50.48 58.23L50.32 58.37L50.16 58.5L50 58.63L49.83 58.75L49.65 58.86L49.47 58.98L49.29 59.08L49.11 59.18L48.92 59.28L48.74 59.37L48.54 59.45L48.35 59.53L48.15 59.6L47.95 59.67L47.75 59.73L47.54 59.79L47.34 59.83L47.13 59.88L46.92 59.91L46.71 59.94L46.49 59.97L46.28 59.99L46.06 60L45.84 60L13.68 60L13.44 60L13.21 59.98L12.97 59.96L12.73 59.94L12.5 59.9L12.27 59.86L12.04 59.81L11.82 59.75L11.6 59.68L11.38 59.61L11.16 59.53L10.95 59.45L10.74 59.35L10.53 59.25L10.33 59.15L10.13 59.03L9.93 58.91L9.74 58.79L9.56 58.66L9.38 58.52L9.2 58.38L9.02 58.23L8.86 58.07L8.69 57.91L8.54 57.75L8.38 57.58L8.24 57.4L8.1 57.22L7.96 57.03L7.83 56.84L7.71 56.65L7.59 56.45L7.48 56.24L7.37 56.03L7.28 55.82L7.19 55.6L7.1 55.38L7.02 55.16L6.96 54.93L6.89 54.7L6.09 51.5L5.95 51.43L5.82 51.36L5.68 51.29L5.55 51.21L5.42 51.13L5.29 51.04L5.17 50.95L5.05 50.86L4.93 50.77L4.82 50.67L4.7 50.57L4.6 50.46L4.49 50.35L4.39 50.24L4.29 50.13L4.19 50.02L4.1 49.9L4.01 49.78L3.92 49.66L3.84 49.53L3.76 49.4L3.69 49.27L3.62 49.14L3.55 49.01L3.48 48.87L3.42 48.74L3.37 48.6L3.31 48.45L3.26 48.31L3.22 48.17L3.18 48.02L3.14 47.88L3.11 47.73L3.08 47.58L3.06 47.43L3.04 47.27L3.02 47.12L3.01 46.97L3 46.81L3 46.66L3 37L3 36.88L3.01 36.75L3.02 36.63L3.04 36.51L3.06 36.4L3.09 36.28L3.12 36.16L3.15 36.05L3.19 35.94L3.24 35.83L3.28 35.73L3.34 35.62L3.39 35.52L3.45 35.42L3.51 35.32L3.58 35.23L3.65 35.14L3.72 35.05L3.8 34.96L3.88 34.88L3.96 34.8L4.05 34.72L4.14 34.65L4.23 34.58L4.32 34.51L4.42 34.45L4.52 34.39L4.62 34.34L4.73 34.28L4.83 34.24L4.94 34.19L5.05 34.15L5.16 34.12L5.28 34.09L5.4 34.06L5.51 34.04L5.63 34.02L5.75 34.01L5.88 34L6 34L7 34L7 7L7.01 6.71L7.02 6.43L7.05 6.14L7.09 5.87L7.14 5.59L7.2 5.32L7.28 5.05L7.36 4.79L7.45 4.53L7.55 4.28L7.66 4.03L7.78 3.78L7.91 3.55L8.05 3.31L8.2 3.09L8.35 2.87L8.52 2.65L8.69 2.45L8.87 2.25L9.05 2.05L9.25 1.87L9.45 1.69L9.65 1.52L9.87 1.35L10.09 1.2L10.31 1.05L10.55 0.91L10.78 0.78L11.03 0.66L11.28 0.55L11.53 0.45L11.79 0.36L12.05 0.28L12.32 0.2L12.59 0.14L12.87 0.09L13.14 0.05L13.43 0.02L13.71 0.01L14 0L46 0L46.29 0.01ZM50.92 52.09L50.61 52.19L50.32 52.31L50.04 52.47L49.78 52.66L49.54 52.88L47.88 54.54L47.46 54.91L47 55.24L46.51 55.51L46 55.72L45.46 55.88L44.91 55.97L44.34 56L36.9 56L36.83 56.31L36.73 56.61L36.62 56.91L36.49 57.19L36.35 57.47L36.18 57.74L36 58L45.84 58L46.72 57.92L47.55 57.69L48.33 57.33L49.03 56.85L49.64 56.25L50.14 55.55L50.52 54.76L51.56 52L51.23 52.03L50.92 52.09ZM9.16 55.12L9.64 55.94L10.25 56.64L10.99 57.21L11.82 57.64L12.72 57.91L13.68 58L24 58L23.82 57.74L23.65 57.47L23.51 57.19L23.38 56.91L23.27 56.61L23.17 56.31L23.1 56L15.66 56L15.09 55.97L14.54 55.88L14 55.72L13.49 55.51L13 55.24L12.54 54.91L12.12 54.54L10.46 52.88L10.21 52.65L9.94 52.46L9.64 52.3L9.34 52.17L9.01 52.07L8.68 52.02L8.34 52L8.33 52L8.32 52L8.31 52L8.29 52L8.28 52L8.83 54.21L9.16 55.12ZM25.61 56.82L26.27 57.45L27.08 57.86L28 58L32 58L32.92 57.86L33.73 57.45L34.39 56.82L34.83 56L25.17 56L25.61 56.82ZM29 54L31 54L31 48L29 48L29 54ZM5 46.66L5.03 47.08L5.1 47.48L5.23 47.86L5.39 48.23L5.6 48.57L5.84 48.88L6.12 49.16L6.43 49.4L6.77 49.61L7.14 49.77L7.52 49.9L7.92 49.97L8.34 50L8.65 50.01L8.95 50.04L9.25 50.08L9.54 50.14L9.83 50.22L10.12 50.32L10.4 50.44L10.67 50.57L10.93 50.72L11.18 50.88L11.42 51.06L11.66 51.25L11.88 51.46L13.54 53.12L13.67 53.25L13.81 53.36L13.95 53.47L14.11 53.57L14.26 53.66L14.43 53.74L14.59 53.81L14.76 53.87L14.94 53.91L15.11 53.95L15.29 53.98L15.47 53.99L15.66 54L27 54L27 48L16 48L15.37 47.96L14.77 47.85L14.19 47.66L13.65 47.41L13.14 47.1L12.68 46.74L12.26 46.32L11.9 45.86L11.59 45.35L11.34 44.81L11.15 44.23L11.04 43.63L11 43L11 40L5 40L5 46.66ZM49 43L48.96 43.63L48.85 44.23L48.66 44.81L48.41 45.35L48.1 45.86L47.74 46.32L47.32 46.74L46.86 47.1L46.35 47.41L45.81 47.66L45.23 47.85L44.63 47.96L44 48L33 48L33 54L44.34 54L44.53 53.99L44.71 53.98L44.89 53.95L45.06 53.91L45.24 53.87L45.41 53.81L45.57 53.74L45.74 53.66L45.89 53.57L46.05 53.47L46.19 53.36L46.33 53.25L46.46 53.12L48.12 51.46L48.34 51.25L48.58 51.06L48.82 50.88L49.07 50.72L49.33 50.57L49.6 50.44L49.88 50.32L50.17 50.22L50.46 50.14L50.75 50.08L51.05 50.04L51.35 50.01L51.66 50L52.08 49.97L52.48 49.9L52.86 49.77L53.23 49.61L53.57 49.4L53.88 49.16L54.16 48.88L54.4 48.57L54.61 48.23L54.77 47.86L54.9 47.48L54.97 47.08L55 46.66L55 40L49 40L49 43ZM17 45L17.01 45.15L17.04 45.29L17.09 45.42L17.16 45.54L17.25 45.66L17.34 45.75L17.46 45.84L17.58 45.91L17.71 45.96L17.85 45.99L18 46L42 46L42.15 45.99L42.29 45.96L42.42 45.91L42.54 45.84L42.66 45.75L42.75 45.66L42.84 45.54L42.91 45.42L42.96 45.29L42.99 45.15L43 45L43 44L17 44L17 45ZM13.57 2.02L13.15 2.07L12.74 2.16L12.34 2.28L11.96 2.44L11.6 2.62L11.25 2.83L10.92 3.06L10.61 3.33L10.33 3.61L10.06 3.92L9.83 4.25L9.62 4.6L9.44 4.96L9.28 5.34L9.16 5.74L9.07 6.15L9.02 6.57L9 7L9 34L10 34L10.26 34.01L10.51 34.04L10.76 34.1L10.99 34.17L11.22 34.26L11.44 34.37L11.65 34.5L11.85 34.64L12.03 34.8L12.2 34.97L12.36 35.15L12.5 35.35L12.63 35.56L12.74 35.78L12.83 36.01L12.9 36.24L12.96 36.49L12.99 36.74L13 37L13 43L13.01 43.21L13.03 43.41L13.06 43.61L13.11 43.81L13.17 44L13.25 44.19L13.33 44.37L13.43 44.54L13.53 44.71L13.65 44.86L13.78 45.02L13.92 45.16L14.07 45.29L14.22 45.42L14.39 45.53L14.56 45.63L14.74 45.72L14.93 45.8L15.13 45.87L15.12 45.83L15.1 45.78L15.09 45.74L15.08 45.69L15.07 45.65L15.06 45.6L15.05 45.55L15.04 45.51L15.04 45.46L15.03 45.42L15.02 45.37L15.02 45.32L15.01 45.28L15.01 45.23L15.01 45.19L15 45.14L15 45.09L15 45.05L15 45L15 31L15 30.94L15 30.89L15 30.83L15.01 30.77L15.01 30.71L15.02 30.66L15.03 30.6L15.04 30.54L15.04 30.49L15.05 30.43L15.07 30.37L15.08 30.32L15.09 30.26L15.11 30.21L15.12 30.15L15.14 30.1L15.16 30.04L15.18 29.99L15.2 29.93L14.82 29.86L14.46 29.75L14.1 29.63L13.77 29.47L13.44 29.29L13.13 29.09L12.84 28.87L12.57 28.63L12.31 28.37L12.08 28.1L11.86 27.8L11.67 27.49L11.5 27.17L11.35 26.83L11.23 26.49L11.13 26.13L11.06 25.76L11.02 25.38L11 25L11 9L11.01 8.57L11.04 8.15L11.09 7.73L11.16 7.31L11.25 6.9L11.36 6.49L11.48 6.09L11.63 5.7L11.79 5.31L11.97 4.93L12.17 4.56L12.39 4.2L12.62 3.85L12.87 3.51L13.13 3.19L13.42 2.87L13.71 2.57L14.02 2.28L14.35 2L14 2L13.57 2.02ZM45.98 2.28L46.29 2.57L46.58 2.87L46.87 3.19L47.13 3.51L47.38 3.85L47.61 4.2L47.83 4.56L48.03 4.93L48.21 5.31L48.37 5.7L48.52 6.09L48.64 6.49L48.75 6.9L48.84 7.31L48.91 7.73L48.96 8.15L48.99 8.57L49 9L49 25L48.98 25.38L48.94 25.76L48.87 26.13L48.77 26.49L48.65 26.83L48.5 27.17L48.33 27.49L48.14 27.8L47.92 28.1L47.69 28.37L47.43 28.63L47.16 28.87L46.87 29.09L46.56 29.29L46.23 29.47L45.9 29.63L45.54 29.75L45.18 29.86L44.8 29.93L44.82 29.99L44.84 30.04L44.86 30.1L44.88 30.15L44.89 30.21L44.91 30.26L44.92 30.32L44.93 30.37L44.95 30.43L44.96 30.49L44.96 30.54L44.97 30.6L44.98 30.66L44.99 30.71L44.99 30.77L45 30.83L45 30.89L45 30.94L45 31L45 45L45 45.05L45 45.09L45 45.14L44.99 45.19L44.99 45.23L44.99 45.28L44.98 45.32L44.98 45.37L44.97 45.42L44.96 45.46L44.96 45.51L44.95 45.55L44.94 45.6L44.93 45.65L44.92 45.69L44.91 45.74L44.9 45.78L44.88 45.83L44.87 45.87L45.07 45.8L45.26 45.72L45.44 45.63L45.61 45.53L45.78 45.42L45.93 45.29L46.08 45.16L46.22 45.02L46.35 44.86L46.47 44.71L46.57 44.54L46.67 44.37L46.75 44.19L46.83 44L46.89 43.81L46.94 43.61L46.97 43.41L46.99 43.21L47 43L47 37L47.01 36.74L47.04 36.49L47.1 36.24L47.17 36.01L47.26 35.78L47.37 35.56L47.5 35.35L47.64 35.15L47.8 34.97L47.97 34.8L48.15 34.64L48.35 34.5L48.56 34.37L48.78 34.26L49.01 34.17L49.24 34.1L49.49 34.04L49.74 34.01L50 34L51 34L51 7L50.98 6.57L50.93 6.15L50.84 5.74L50.72 5.34L50.56 4.96L50.38 4.6L50.17 4.25L49.94 3.92L49.67 3.61L49.39 3.33L49.08 3.06L48.75 2.83L48.4 2.62L48.04 2.44L47.66 2.28L47.26 2.16L46.85 2.07L46.43 2.02L46 2L45.65 2L45.98 2.28ZM36.24 34.83L36.71 35.29L36.87 35.51L36.97 35.75L37 36L36.97 36.25L36.87 36.49L36.71 36.71L34 39.41L34 42L39 42L39 30L38.92 30L36.24 34.83ZM17.68 30.05L17.41 30.19L17.19 30.41L17.05 30.68L17 31L17 42L19 42L19 30L18 30L17.68 30.05ZM21 42L26 42L26 39.41L23.29 36.71L23.13 36.49L23.03 36.25L23 36L23.03 35.75L23.13 35.51L23.29 35.29L23.76 34.83L21.08 30L21 30L21 42ZM28 42L32 42L32 40L28 40L28 42ZM41 42L43 42L43 31L42.95 30.68L42.81 30.41L42.59 30.19L42.32 30.05L42 30L41 30L41 42ZM49.61 36.08L49.29 36.29L49.08 36.61L49 37L49 38L55 38L55 37L54.92 36.61L54.71 36.29L54.39 36.08L54 36L50 36L49.61 36.08ZM5.61 36.08L5.29 36.29L5.08 36.61L5 37L5 38L11 38L11 37L10.92 36.61L10.71 36.29L10.39 36.08L10 36L6 36L5.61 36.08ZM29 38L31 38L31 36L29 36L29 38ZM27 37.59L27 35L27.05 34.68L27.19 34.41L27.41 34.19L27.68 34.05L28 34L32 34L32.32 34.05L32.59 34.19L32.81 34.41L32.95 34.68L33 35L33 37.59L34.59 36L30 31.41L25.41 36L27 37.59ZM34.77 33.36L38.3 27L38 27L37.65 26.98L37.31 26.92L36.98 26.82L36.65 26.68L33.6 32.18L34.77 33.36ZM22.69 26.92L22.35 26.98L22 27L21.7 27L25.23 33.36L26.4 32.18L23.35 26.68L23.02 26.82L22.69 26.92ZM26 27.35L27.87 30.71L29.29 29.29L29.62 29.07L30 29L30.38 29.07L30.71 29.29L32.13 30.71L34 27.35L32 27.1L30 27.02L28 27.1L26 27.35ZM39.47 2.07L39.22 2.16L38.99 2.27L38.78 2.42L38.59 2.59L38.42 2.78L38.27 2.99L38.16 3.22L38.07 3.47L38.02 3.73L38 4L38 10L40 10L40.68 10.05L41.33 10.18L41.95 10.39L42.52 10.68L43.05 11.04L43.53 11.47L43.96 11.95L44.32 12.48L44.61 13.05L44.82 13.67L44.95 14.32L45 15L45 25L44.99 25.27L44.97 25.54L44.94 25.8L44.89 26.07L44.82 26.33L44.74 26.58L44.65 26.83L44.55 27.08L44.43 27.32L44.3 27.55L44.15 27.78L44 28L44 28L44.41 27.97L44.8 27.89L45.17 27.76L45.51 27.59L45.83 27.37L46.12 27.12L46.37 26.83L46.59 26.51L46.76 26.17L46.89 25.8L46.97 25.41L47 25L47 9L46.94 8.05L46.75 7.14L46.45 6.28L46.04 5.47L45.54 4.72L44.95 4.05L44.28 3.46L43.53 2.96L42.72 2.55L41.86 2.25L40.95 2.06L40 2L39.73 2.02L39.47 2.07ZM18.14 2.25L17.28 2.55L16.47 2.96L15.72 3.46L15.05 4.05L14.46 4.72L13.96 5.47L13.55 6.28L13.25 7.14L13.06 8.05L13 9L13 25L13.03 25.41L13.11 25.8L13.24 26.17L13.41 26.51L13.63 26.83L13.88 27.12L14.17 27.37L14.49 27.59L14.83 27.76L15.2 27.89L15.59 27.97L16 28L16 28L15.85 27.78L15.7 27.55L15.57 27.32L15.45 27.08L15.35 26.83L15.26 26.58L15.18 26.33L15.11 26.07L15.06 25.8L15.03 25.54L15.01 25.27L15 25L15 15L15.05 14.32L15.18 13.67L15.39 13.05L15.68 12.48L16.04 11.95L16.47 11.47L16.95 11.04L17.48 10.68L18.05 10.39L18.67 10.18L19.32 10.05L20 10L22 10L22 4L21.98 3.73L21.93 3.47L21.84 3.22L21.73 2.99L21.58 2.78L21.41 2.59L21.22 2.42L21.01 2.27L20.78 2.16L20.53 2.07L20.27 2.02L20 2L19.05 2.06L18.14 2.25ZM38 14L38.69 14.08L39.32 14.31L39.88 14.66L40.34 15.12L40.69 15.68L40.92 16.31L41 17L41 26L41 26.07L40.99 26.14L40.98 26.22L40.96 26.29L40.94 26.35L40.91 26.42L40.87 26.49L40.03 28L40.71 27.91L41.34 27.68L41.89 27.33L42.35 26.86L42.7 26.31L42.92 25.68L43 25L43 15L42.92 14.31L42.69 13.68L42.34 13.12L41.88 12.66L41.32 12.31L40.69 12.08L40 12L38 12L38 14ZM18.68 12.31L18.12 12.66L17.66 13.12L17.31 13.68L17.08 14.31L17 15L17 25L17.08 25.68L17.3 26.31L17.65 26.86L18.11 27.33L18.66 27.68L19.29 27.91L19.97 28L19.13 26.49L19.09 26.42L19.06 26.35L19.04 26.29L19.02 26.22L19.01 26.14L19 26.07L19 26L19 17L19.08 16.31L19.31 15.68L19.66 15.12L20.12 14.66L20.68 14.31L21.31 14.08L22 14L22 12L20 12L19.31 12.08L18.68 12.31ZM26.99 22.21L25 22.54L25 24L24.99 24.23L24.96 24.46L24.92 24.69L24.86 24.92L24.78 25.14L24.98 25.5L26.98 25.2L28.99 25.04L31.01 25.04L33.02 25.2L35.02 25.5L35.23 25.14L35.14 24.92L35.08 24.69L35.04 24.46L35.01 24.23L35 24L35 22.54L33.01 22.21L31.01 22.04L28.99 22.04L26.99 22.21ZM21.61 16.08L21.29 16.29L21.08 16.61L21 17L21 25L22 25L22.39 24.92L22.71 24.71L22.92 24.39L23 24L23 16L22 16L21.61 16.08ZM37 24L37.08 24.39L37.29 24.71L37.61 24.92L38 25L39 25L39 17L38.92 16.61L38.71 16.29L38.39 16.08L38 16L37 16L37 24ZM26.99 17.21L25 17.54L25 20.5L26.99 20.2L29 20.04L31 20.04L33.01 20.2L35 20.5L35 17.54L33.01 17.21L31.01 17.04L28.99 17.04L26.99 17.21ZM24 14L24.27 14.04L24.5 14.14L24.71 14.29L24.86 14.5L24.96 14.73L25 15L25 15.5L26.66 15.24L28.33 15.08L30 15.03L31.67 15.08L33.34 15.24L35 15.5L35 15L35.04 14.73L35.14 14.5L35.29 14.29L35.5 14.14L35.73 14.04L36 14L36 12L24 12L24 14ZM23.59 2.23L23.7 2.47L23.79 2.71L23.86 2.96L23.92 3.22L23.97 3.48L23.99 3.74L24 4L24 10L36 10L36 4L36.01 3.74L36.03 3.48L36.08 3.22L36.14 2.96L36.21 2.71L36.31 2.47L36.41 2.23L36.54 2L23.46 2L23.59 2.23Z" id="c1CdUhcPUL"></path></defs><g><g><use xlink:href="#c1CdUhcPUL" opacity="1" fill="#1f398d" fill-opacity="1"></use><g><use xlink:href="#c1CdUhcPUL" opacity="1" fill-opacity="0" stroke="#000000" stroke-width="1" stroke-opacity="0"></use></g></g></g></svg>