<?xml version="1.0" encoding="iso-8859-1"?>
<!-- Generator: Adobe Illustrator 22.0.0, SVG Export Plug-In . SVG Version: 6.00 Build 0)  -->
<svg xmlns="http://www.w3.org/2000/svg" xmlns:xlink="http://www.w3.org/1999/xlink" version="1.1" id="Capa_1" x="0px" y="0px" viewBox="0 0 512 512" style="enable-background:new 0 0 512 512;" xml:space="preserve" width="512" height="512">
<g>
	<path d="M452,123h-58.885c-3.272-30.185-16.444-59.49-39.534-82.581C327.516,14.354,292.861,0,256,0s-71.516,14.354-97.581,40.419   c-23.09,23.09-36.262,52.396-39.534,82.581H60c-33.084,0-60,26.916-60,60v269c0,33.084,26.916,60,60,60h392   c33.084,0,60-26.916,60-60V183C512,149.916,485.084,123,452,123z M90,392h60.5v30H90V392z M180.5,392H241v30h-60.5V392z M271,392   h60.5v30H271V392z M361.5,392H422v30h-60.5V392z M422,362H90V213h50.153c5.18,7.998,11.263,15.577,18.267,22.581L256,333.162   l97.581-97.581c7.003-7.003,13.087-14.583,18.267-22.581H422V362z M179.632,61.632C200.031,41.234,227.152,30,256,30   s55.969,11.234,76.368,31.632c42.109,42.109,42.109,110.626,0,152.735L256,290.735l-76.368-76.367   C137.523,172.258,137.523,103.742,179.632,61.632z M482,452c0,16.542-13.458,30-30,30H60c-16.542,0-30-13.458-30-30V183   c0-16.542,13.458-30,30-30h58.885c1.102,10.168,3.326,20.236,6.677,30H60v269h392V183h-65.562c3.351-9.764,5.575-19.832,6.677-30   H452c16.542,0,30,13.458,30,30V452z"/>
	<path d="M256,216c43.009,0,78-34.991,78-78s-34.991-78-78-78s-78,34.991-78,78S212.991,216,256,216z M256,90   c26.467,0,48,21.533,48,48s-21.533,48-48,48s-48-21.533-48-48S229.533,90,256,90z"/>
</g>















</svg>
