<?xml version="1.0" encoding="UTF-8" standalone="no"?>
<!DOCTYPE svg PUBLIC "-//W3C//DTD SVG 1.1//EN" "http://www.w3.org/Graphics/SVG/1.1/DTD/svg11.dtd">
<svg version="1.1" xmlns="http://www.w3.org/2000/svg" xmlns:xlink="http://www.w3.org/1999/xlink" preserveAspectRatio="xMidYMid meet" viewBox="-1 4.734265734265653 64 54.63" width="60" height="50.63"><defs><path d="M5.86 5.73C2.63 5.73 0 8.36 0 11.59C0 15.49 0 46.61 0 50.5C0 53.74 2.63 56.36 5.86 56.36C6.25 56.36 9.41 56.36 9.8 56.36C10.45 56.36 10.98 55.84 10.98 55.19C10.98 54.54 10.45 54.02 9.8 54.02C9.41 54.02 6.25 54.02 5.86 54.02C3.92 54.02 2.34 52.44 2.34 50.5C2.34 46.61 2.34 15.49 2.34 11.59C2.34 9.66 3.92 8.08 5.86 8.08C10.69 8.08 49.31 8.08 54.14 8.08C56.08 8.08 57.66 9.66 57.66 11.59C57.66 15.49 57.66 46.61 57.66 50.5C57.66 52.44 56.08 54.02 54.14 54.02C50.64 54.02 22.68 54.02 19.18 54.02C18.53 54.02 18.01 54.54 18.01 55.19C18.01 55.84 18.53 56.36 19.18 56.36C22.68 56.36 50.64 56.36 54.14 56.36C57.37 56.36 60 53.74 60 50.5C60 46.61 60 15.49 60 11.59C60 8.36 57.37 5.73 54.14 5.73C44.48 5.73 10.69 5.73 5.86 5.73Z" id="b4VqLXmMwJ"></path><path d="M13.66 54.36C13.44 54.58 13.32 54.88 13.32 55.19C13.32 55.5 13.44 55.8 13.66 56.02C13.88 56.24 14.18 56.36 14.49 56.36C14.8 56.36 15.1 56.24 15.32 56.02C15.54 55.8 15.66 55.5 15.66 55.19C15.66 54.88 15.54 54.58 15.32 54.36C15.1 54.15 14.8 54.02 14.49 54.02C14.18 54.02 13.88 54.15 13.66 54.36Z" id="b23w4hIX2d"></path><path d="M40.7 11.36L40.75 11.37L40.8 11.38L40.84 11.38L40.89 11.39L40.93 11.41L40.98 11.42L41.02 11.43L41.06 11.45L41.1 11.47L41.14 11.49L41.18 11.51L41.22 11.54L41.26 11.56L41.3 11.59L41.33 11.61L41.37 11.64L41.4 11.67L41.43 11.7L41.47 11.74L41.5 11.77L41.52 11.8L41.55 11.84L41.58 11.88L41.6 11.91L41.62 11.95L41.65 11.99L41.67 12.03L41.69 12.08L41.7 12.12L41.72 12.16L41.73 12.21L41.74 12.25L41.75 12.3L41.76 12.34L41.77 12.39L41.77 12.44L41.78 12.48L41.78 12.53L41.78 12.56L41.77 12.6L41.77 12.63L41.77 12.66L41.76 12.69L41.75 12.72L41.74 12.75L41.73 12.79L41.72 12.82L41.7 12.85L41.69 12.88L41.67 12.91L41.65 12.94L41.63 12.97L41.61 13L41.59 13.03L41.57 13.06L41.54 13.09L41.51 13.12L41.48 13.15L41.45 13.18L41.42 13.21L41.39 13.24L41.36 13.26L41.32 13.29L41.28 13.32L41.24 13.35L41.2 13.38L41.16 13.41L41.12 13.43L41.07 13.46L41.03 13.49L40.98 13.52L40.93 13.54L40.88 13.57L40.83 13.6L40.77 13.62L40.72 13.65L40.66 13.68L40.61 13.7L38.09 13.7L38.09 22.39L52.5 22.39L52.5 13.7L49.98 13.7L49.93 13.7L49.88 13.7L49.84 13.7L49.79 13.69L49.74 13.68L49.7 13.67L49.65 13.66L49.61 13.64L49.57 13.63L49.52 13.61L49.48 13.59L49.44 13.57L49.4 13.55L49.36 13.53L49.33 13.5L49.29 13.48L49.25 13.45L49.22 13.42L49.18 13.39L49.15 13.36L49.12 13.33L49.09 13.29L49.06 13.26L49.03 13.22L49.01 13.19L48.98 13.15L48.96 13.11L48.94 13.07L48.92 13.03L48.9 12.99L48.88 12.95L48.87 12.9L48.85 12.86L48.84 12.81L48.83 12.77L48.82 12.72L48.82 12.68L48.81 12.63L48.81 12.58L48.81 12.53L48.81 12.48L48.81 12.44L48.82 12.39L48.82 12.34L48.83 12.3L48.84 12.25L48.85 12.21L48.87 12.16L48.88 12.12L48.9 12.08L48.92 12.03L48.94 11.99L48.96 11.95L48.98 11.91L49.01 11.88L49.03 11.84L49.06 11.8L49.09 11.77L49.12 11.74L49.15 11.7L49.18 11.67L49.22 11.64L49.25 11.61L49.29 11.59L49.33 11.56L49.36 11.54L49.4 11.51L49.44 11.49L49.48 11.47L49.52 11.45L49.57 11.43L49.61 11.42L49.65 11.41L49.7 11.39L49.74 11.38L49.79 11.38L49.84 11.37L49.88 11.36L49.93 11.36L49.98 11.36L53.67 11.36L53.72 11.36L53.77 11.36L53.82 11.37L53.86 11.38L53.91 11.38L53.95 11.39L54 11.41L54.04 11.42L54.09 11.43L54.13 11.45L54.17 11.47L54.21 11.49L54.25 11.51L54.29 11.54L54.33 11.56L54.36 11.59L54.4 11.61L54.43 11.64L54.47 11.67L54.5 11.7L54.53 11.74L54.56 11.77L54.59 11.8L54.62 11.84L54.64 11.88L54.67 11.91L54.69 11.95L54.71 11.99L54.73 12.03L54.75 12.08L54.77 12.12L54.78 12.16L54.8 12.21L54.81 12.25L54.82 12.3L54.83 12.34L54.84 12.39L54.84 12.44L54.84 12.48L54.84 12.53L54.84 49.57L54.84 49.62L54.84 49.66L54.84 49.71L54.83 49.76L54.82 49.8L54.81 49.85L54.8 49.89L54.78 49.94L54.77 49.98L54.75 50.02L54.73 50.06L54.71 50.11L54.69 50.15L54.67 50.18L54.64 50.22L54.62 50.26L54.59 50.29L54.56 50.33L54.53 50.36L54.5 50.4L54.47 50.43L54.43 50.46L54.4 50.49L54.36 50.51L54.33 50.54L54.29 50.56L54.25 50.59L54.21 50.61L54.17 50.63L54.13 50.65L54.09 50.66L54.04 50.68L54 50.69L53.95 50.7L53.91 50.71L53.86 50.72L53.82 50.73L53.77 50.73L53.72 50.74L53.67 50.74L6.33 50.74L6.28 50.74L6.23 50.73L6.18 50.73L6.14 50.72L6.09 50.71L6.05 50.7L6 50.69L5.96 50.68L5.91 50.66L5.87 50.65L5.83 50.63L5.79 50.61L5.75 50.59L5.71 50.56L5.67 50.54L5.64 50.51L5.6 50.49L5.57 50.46L5.53 50.43L5.5 50.4L5.47 50.36L5.44 50.33L5.41 50.29L5.38 50.26L5.36 50.22L5.33 50.18L5.31 50.15L5.29 50.11L5.27 50.06L5.25 50.02L5.23 49.98L5.22 49.94L5.2 49.89L5.19 49.85L5.18 49.8L5.17 49.76L5.16 49.71L5.16 49.66L5.16 49.62L5.16 49.57L5.16 12.53L5.16 12.48L5.16 12.44L5.16 12.39L5.17 12.34L5.18 12.3L5.19 12.25L5.2 12.21L5.22 12.16L5.23 12.12L5.25 12.08L5.27 12.03L5.29 11.99L5.31 11.95L5.33 11.91L5.36 11.88L5.38 11.84L5.41 11.8L5.44 11.77L5.47 11.74L5.5 11.7L5.53 11.67L5.57 11.64L5.6 11.61L5.64 11.59L5.67 11.56L5.71 11.54L5.75 11.51L5.79 11.49L5.83 11.47L5.87 11.45L5.91 11.43L5.96 11.42L6 11.41L6.05 11.39L6.09 11.38L6.14 11.38L6.18 11.37L6.23 11.36L6.28 11.36L6.33 11.36L40.61 11.36L40.65 11.36L40.7 11.36ZM29.65 29.89L29.65 29.95L29.64 30.01L29.64 30.07L29.63 30.12L29.61 30.18L29.6 30.23L29.58 30.28L29.56 30.34L29.54 30.39L29.52 30.44L29.49 30.48L29.46 30.53L29.43 30.58L29.4 30.62L29.36 30.66L29.32 30.7L29.29 30.74L29.25 30.78L29.2 30.81L29.16 30.85L29.11 30.88L29.07 30.91L29.02 30.93L28.97 30.96L28.92 30.98L28.87 31L28.82 31.02L28.76 31.03L28.71 31.04L28.65 31.05L28.59 31.06L28.54 31.06L28.48 31.07L28.42 31.06L28.36 31.06L28.3 31.05L28.25 31.04L28.19 31.03L28.14 31.02L28.09 31L28.03 30.98L27.98 30.96L27.93 30.93L27.89 30.91L27.84 30.88L27.79 30.85L27.75 30.81L27.71 30.78L27.67 30.74L27.63 30.7L27.59 30.66L27.56 30.62L27.52 30.58L27.49 30.53L27.46 30.48L27.44 30.44L27.41 30.39L27.39 30.34L27.37 30.28L27.35 30.23L27.34 30.18L27.33 30.12L27.32 30.07L27.31 30.01L27.31 29.95L27.3 29.89L27.3 27.63L26.81 27.17L26.31 26.72L25.8 26.28L25.28 25.85L24.75 25.44L24.21 25.04L23.67 24.65L23.12 24.27L22.56 23.91L22 23.56L21.43 23.22L20.85 22.9L20.26 22.59L19.67 22.29L19.08 22.01L18.47 21.73L17.86 21.48L17.25 21.23L16.63 21L16.01 20.78L15.38 20.58L14.74 20.39L14.1 20.21L13.46 20.05L12.81 19.9L12.16 19.77L11.5 19.65L10.84 19.54L10.18 19.45L9.52 19.38L8.85 19.31L8.17 19.27L7.5 19.23L7.5 26.27L8.58 26.35L9.64 26.48L10.69 26.65L11.72 26.87L12.74 27.14L13.73 27.45L14.71 27.8L15.67 28.2L16.6 28.63L17.52 29.11L18.4 29.62L19.27 30.17L20.1 30.76L20.91 31.38L21.69 32.04L22.45 32.73L23.17 33.45L23.86 34.2L24.51 34.98L25.13 35.79L25.72 36.63L26.27 37.49L26.78 38.38L27.26 39.29L27.7 40.22L28.09 41.18L28.44 42.16L28.75 43.16L29.02 44.17L29.24 45.2L29.41 46.25L29.54 47.32L29.62 48.39L34.63 48.39L31.78 44.74L31.69 44.63L31.61 44.52L31.52 44.4L31.45 44.29L31.37 44.17L31.29 44.06L31.22 43.94L31.15 43.82L31.09 43.69L31.02 43.57L30.96 43.45L30.9 43.32L30.84 43.2L30.79 43.07L30.74 42.94L30.69 42.81L30.64 42.68L30.6 42.55L30.56 42.42L30.52 42.28L30.49 42.15L30.45 42.01L30.42 41.88L30.4 41.74L30.37 41.61L30.35 41.47L30.33 41.33L30.32 41.19L30.3 41.05L30.29 40.92L30.29 40.78L30.28 40.64L30.28 40.5L30.29 40.2L30.31 39.91L30.34 39.62L30.38 39.33L30.44 39.05L30.5 38.77L30.58 38.5L30.67 38.23L30.77 37.96L30.88 37.71L31.01 37.45L31.14 37.21L31.28 36.97L31.43 36.73L31.59 36.51L31.76 36.29L31.94 36.07L32.12 35.87L32.32 35.67L32.52 35.48L32.73 35.3L32.94 35.13L33.17 34.96L33.4 34.81L33.64 34.66L33.88 34.53L34.13 34.4L34.39 34.29L34.65 34.18L34.91 34.09L35.19 34L35.46 33.93L35.74 33.87L35.74 31.06L35.74 31.01L35.75 30.95L35.75 30.89L35.76 30.83L35.78 30.78L35.79 30.73L35.81 30.67L35.83 30.62L35.85 30.57L35.88 30.52L35.9 30.47L35.93 30.43L35.96 30.38L35.99 30.34L36.03 30.3L36.07 30.25L36.1 30.22L36.15 30.18L36.19 30.14L36.23 30.11L36.28 30.08L36.32 30.05L36.37 30.03L36.42 30L36.47 29.98L36.52 29.96L36.58 29.94L36.63 29.93L36.68 29.91L36.74 29.9L36.8 29.9L36.86 29.89L36.91 29.89L52.5 29.89L52.5 24.74L36.91 24.74L36.86 24.73L36.8 24.73L36.74 24.72L36.68 24.71L36.63 24.7L36.58 24.69L36.52 24.67L36.47 24.65L36.42 24.63L36.37 24.6L36.32 24.58L36.28 24.55L36.23 24.52L36.19 24.48L36.15 24.45L36.1 24.41L36.07 24.37L36.03 24.33L35.99 24.29L35.96 24.25L35.93 24.2L35.9 24.15L35.88 24.11L35.85 24.06L35.83 24.01L35.81 23.95L35.79 23.9L35.78 23.85L35.76 23.79L35.75 23.74L35.75 23.68L35.74 23.62L35.74 23.56L35.74 13.7L29.65 13.7L29.65 29.89ZM27.27 48.39L27.07 46.77L26.65 45.16L26.01 43.57L25.15 41.99L24.07 40.43L22.77 38.9L21.25 37.37L19.51 35.87L17.54 34.39L15.36 32.92L12.96 31.47L10.34 30.04L7.5 28.62L7.5 48.39L27.27 48.39ZM38.09 33.83L38.88 34L39.63 34.26L40.34 34.61L41 35.03L41.6 35.53L42.14 36.09L42.62 36.71L43.02 37.39L43.35 38.11L43.58 38.87L43.73 39.67L43.78 40.5L43.77 40.88L43.74 41.26L43.69 41.64L43.61 42.01L43.51 42.38L43.4 42.74L43.26 43.1L43.11 43.44L42.93 43.78L42.74 44.11L42.52 44.42L42.29 44.73L42.29 44.73L42.29 44.73L42.28 44.75L42.27 44.76L42.26 44.77L39.43 48.39L52.5 48.39L52.5 32.24L38.09 32.24L38.09 33.83ZM34.81 36.69L33.92 37.38L33.23 38.27L32.78 39.33L32.62 40.5L32.65 41L32.74 41.5L32.88 41.98L33.07 42.43L33.31 42.87L33.61 43.28L33.62 43.29L33.62 43.29L33.63 43.31L33.64 43.32L37.03 47.66L40.37 43.39L40.38 43.38L40.39 43.36L40.4 43.35L40.41 43.33L40.42 43.32L40.43 43.3L40.73 42.89L40.98 42.45L41.18 41.99L41.32 41.5L41.41 41.01L41.44 40.5L41.28 39.33L40.84 38.27L40.15 37.38L39.25 36.69L38.2 36.25L37.03 36.09L35.86 36.25L34.81 36.69ZM7.5 16.89L9.49 17.02L11.45 17.27L13.38 17.63L15.28 18.1L17.14 18.69L18.96 19.39L20.74 20.2L22.46 21.11L24.14 22.13L25.75 23.26L27.3 24.48L27.3 13.7L7.5 13.7L7.5 16.89Z" id="bvUgh8v5v"></path><path d="M46.46 12.53C46.46 12.22 46.34 11.92 46.12 11.7C45.9 11.49 45.6 11.36 45.29 11.36C44.98 11.36 44.68 11.49 44.46 11.7C44.25 11.92 44.12 12.22 44.12 12.53C44.12 12.84 44.25 13.14 44.46 13.36C44.68 13.58 44.98 13.7 45.29 13.7C45.6 13.7 45.9 13.58 46.12 13.36C46.34 13.14 46.46 12.84 46.46 12.53Z" id="ciA2jtSwr"></path></defs><g><g><use xlink:href="#b4VqLXmMwJ" opacity="1" fill="#1f398d" fill-opacity="1"></use><g><use xlink:href="#b4VqLXmMwJ" opacity="1" fill-opacity="0" stroke="#000000" stroke-width="1" stroke-opacity="0"></use></g></g><g><use xlink:href="#b23w4hIX2d" opacity="1" fill="#1f398d" fill-opacity="1"></use><g><use xlink:href="#b23w4hIX2d" opacity="1" fill-opacity="0" stroke="#000000" stroke-width="1" stroke-opacity="0"></use></g></g><g><use xlink:href="#bvUgh8v5v" opacity="1" fill="#1f398d" fill-opacity="1"></use><g><use xlink:href="#bvUgh8v5v" opacity="1" fill-opacity="0" stroke="#000000" stroke-width="1" stroke-opacity="0"></use></g></g><g><use xlink:href="#ciA2jtSwr" opacity="1" fill="#1f398d" fill-opacity="1"></use><g><use xlink:href="#ciA2jtSwr" opacity="1" fill-opacity="0" stroke="#000000" stroke-width="1" stroke-opacity="0"></use></g></g></g></svg>